<ttFont>
<head>
    <!-- Most of this table will be recalculated by the compiler -->
    <tableVersion value="1.0"/>
    <fontRevision value="1.106"/>
    <checkSumAdjustment value="0x69c5aa69"/>
    <magicNumber value="0x5f0f3cf5"/>
    <flags value="00000000 00000001"/>
    <unitsPerEm value="1000"/>
    <created value="Mon Sep 16 15:13:07 2019"/>
    <modified value="Mon Sep 16 15:22:46 2019"/>
    <xMin value="-144"/>
    <yMin value="-359"/>
    <xMax value="1971"/>
    <yMax value="1320"/>
    <macStyle value="00000000 00000000"/>
    <lowestRecPPEM value="6"/>
    <fontDirectionHint value="2"/>
    <indexToLocFormat value="0"/>
    <glyphDataFormat value="0"/>
  </head>
    <TTGlyph name=".notdef" xMin="-1" yMin="-180" xMax="449" yMax="720">
      <contour>
        <pt x="-1" y="-180" on="1"/>
        <pt x="-1" y="720" on="1"/>
        <pt x="449" y="720" on="1"/>
        <pt x="449" y="-180" on="1"/>
      </contour>
      <contour>
        <pt x="224" y="324" on="1"/>
        <pt x="385" y="675" on="1"/>
        <pt x="63" y="675" on="1"/>
      </contour>
      <contour>
        <pt x="44" y="-68" on="1"/>
        <pt x="199" y="270" on="1"/>
        <pt x="44" y="608" on="1"/>
      </contour>
      <contour>
        <pt x="404" y="-68" on="1"/>
        <pt x="404" y="608" on="1"/>
        <pt x="249" y="270" on="1"/>
      </contour>
      <contour>
        <pt x="63" y="-135" on="1"/>
        <pt x="385" y="-135" on="1"/>
        <pt x="224" y="216" on="1"/>
      </contour>
    </TTGlyph>
    <TTGlyph name="A" xMin="76" yMin="0" xMax="758" yMax="700">
      <contour>
        <pt x="76" y="0" on="1"/>
        <pt x="373" y="700" on="1"/>
        <pt x="461" y="700" on="1"/>
        <pt x="758" y="0" on="1"/>
        <pt x="735" y="0" on="1"/>
        <pt x="638" y="227" on="1"/>
        <pt x="196" y="227" on="1"/>
        <pt x="99" y="0" on="1"/>
      </contour>
      <contour>
        <pt x="389" y="680" on="1"/>
        <pt x="205" y="247" on="1"/>
        <pt x="629" y="247" on="1"/>
        <pt x="445" y="680" on="1"/>
      </contour>
    </TTGlyph>
    <TTGlyph name="A.sc" xMin="72" yMin="0" xMax="662" yMax="560">
      <component glyphName="a.sc" x="0" y="0" flags="0x204"/>
    </TTGlyph>
    <TTGlyph name="AE" xMin="58" yMin="0" xMax="1240" yMax="700">
      <contour>
        <pt x="677" y="0" on="1"/>
        <pt x="677" y="227" on="1"/>
        <pt x="250" y="227" on="1"/>
        <pt x="85" y="0" on="1"/>
        <pt x="58" y="0" on="1"/>
        <pt x="565" y="700" on="1"/>
        <pt x="1219" y="700" on="1"/>
        <pt x="1222" y="680" on="1"/>
        <pt x="699" y="680" on="1"/>
        <pt x="699" y="372" on="1"/>
        <pt x="1140" y="372" on="1"/>
        <pt x="1140" y="352" on="1"/>
        <pt x="699" y="352" on="1"/>
        <pt x="699" y="20" on="1"/>
        <pt x="1240" y="20" on="1"/>
        <pt x="1237" y="0" on="1"/>
      </contour>
      <contour>
        <pt x="577" y="680" on="1"/>
        <pt x="264" y="247" on="1"/>
        <pt x="677" y="247" on="1"/>
        <pt x="677" y="680" on="1"/>
      </contour>
    </TTGlyph>
    <TTGlyph name="AE.sc" xMin="48" yMin="0" xMax="1024" yMax="560">
      <component glyphName="ae.sc" x="0" y="0" flags="0x204"/>
    </TTGlyph>
    <TTGlyph name="AEacute" xMin="58" yMin="0" xMax="1240" yMax="993">
      <component glyphName="AE" x="0" y="0" flags="0x204"/>
      <component glyphName="acute" x="504" y="180" flags="0x4"/>
    </TTGlyph>
    <TTGlyph name="AEacute.sc" xMin="48" yMin="0" xMax="1024" yMax="853">
      <component glyphName="aeacute.sc" x="0" y="0" flags="0x204"/>
    </TTGlyph>
    <TTGlyph name="Aacute" xMin="76" yMin="0" xMax="758" yMax="993">
      <component glyphName="A" x="0" y="0" flags="0x204"/>
      <component glyphName="acute" x="235" y="180" flags="0x4"/>
    </TTGlyph>
    <TTGlyph name="Aacute.sc" xMin="72" yMin="0" xMax="662" yMax="853">
      <component glyphName="aacute.sc" x="0" y="0" flags="0x204"/>
    </TTGlyph>
    <TTGlyph name="Abreve" xMin="76" yMin="0" xMax="758" yMax="993">
      <component glyphName="A" x="0" y="0" flags="0x204"/>
      <component glyphName="breve" x="169" y="180" flags="0x4"/>
    </TTGlyph>
    <TTGlyph name="Abreve.sc" xMin="72" yMin="0" xMax="662" yMax="853">
      <component glyphName="abreve.sc" x="0" y="0" flags="0x204"/>
    </TTGlyph>
    <TTGlyph name="Acircumflex" xMin="76" yMin="0" xMax="758" yMax="993">
      <component glyphName="A" x="0" y="0" flags="0x204"/>
      <component glyphName="circumflex" x="169" y="180" flags="0x4"/>
    </TTGlyph>
    <TTGlyph name="Acircumflex.sc" xMin="72" yMin="0" xMax="662" yMax="853">
      <component glyphName="acircumflex.sc" x="0" y="0" flags="0x204"/>
    </TTGlyph>
    <TTGlyph name="Adieresis" xMin="76" yMin="0" xMax="758" yMax="882">
      <component glyphName="A" x="0" y="0" flags="0x204"/>
      <component glyphName="dieresis" x="169" y="180" flags="0x4"/>
    </TTGlyph>
    <TTGlyph name="Adieresis.sc" xMin="72" yMin="0" xMax="662" yMax="742">
      <component glyphName="adieresis.sc" x="0" y="0" flags="0x204"/>
    </TTGlyph>
    <TTGlyph name="Agrave" xMin="76" yMin="0" xMax="758" yMax="993">
      <component glyphName="A" x="0" y="0" flags="0x204"/>
      <component glyphName="grave" x="103" y="180" flags="0x4"/>
    </TTGlyph>
    <TTGlyph name="Agrave.sc" xMin="72" yMin="0" xMax="662" yMax="853">
      <component glyphName="agrave.sc" x="0" y="0" flags="0x204"/>
    </TTGlyph>
    <TTGlyph name="Amacron" xMin="76" yMin="0" xMax="758" yMax="867">
      <component glyphName="A" x="0" y="0" flags="0x204"/>
      <component glyphName="macron" x="169" y="180" flags="0x4"/>
    </TTGlyph>
    <TTGlyph name="Amacron.sc" xMin="72" yMin="0" xMax="662" yMax="727">
      <component glyphName="amacron.sc" x="0" y="0" flags="0x204"/>
    </TTGlyph>
    <TTGlyph name="Aogonek" xMin="76" yMin="-289" xMax="812" yMax="700">
      <contour>
        <pt x="76" y="0" on="1"/>
        <pt x="373" y="700" on="1"/>
        <pt x="461" y="700" on="1"/>
        <pt x="758" y="0" on="1"/>
        <pt x="699" y="-61" on="1"/>
        <pt x="649" y="-113" on="0"/>
        <pt x="618" y="-170" on="0"/>
        <pt x="618" y="-197" on="1"/>
        <pt x="618" y="-237" on="0"/>
        <pt x="677" y="-270" on="0"/>
        <pt x="713" y="-270" on="1"/>
        <pt x="741" y="-270" on="0"/>
        <pt x="792" y="-254" on="0"/>
        <pt x="812" y="-237" on="1"/>
        <pt x="812" y="-261" on="1"/>
        <pt x="792" y="-275" on="0"/>
        <pt x="741" y="-289" on="0"/>
        <pt x="713" y="-289" on="1"/>
        <pt x="667" y="-289" on="0"/>
        <pt x="597" y="-247" on="0"/>
        <pt x="597" y="-197" on="1"/>
        <pt x="597" y="-167" on="0"/>
        <pt x="634" y="-99" on="0"/>
        <pt x="685" y="-47" on="1"/>
        <pt x="734" y="3" on="1"/>
        <pt x="638" y="227" on="1"/>
        <pt x="196" y="227" on="1"/>
        <pt x="99" y="0" on="1"/>
      </contour>
      <contour>
        <pt x="389" y="680" on="1"/>
        <pt x="205" y="247" on="1"/>
        <pt x="629" y="247" on="1"/>
        <pt x="445" y="680" on="1"/>
      </contour>
    </TTGlyph>
    <TTGlyph name="Aogonek.sc" xMin="72" yMin="-289" xMax="716" yMax="560">
      <component glyphName="aogonek.sc" x="0" y="0" flags="0x204"/>
    </TTGlyph>
    <TTGlyph name="Aring" xMin="76" yMin="0" xMax="758" yMax="1058">
      <component glyphName="A" x="0" y="0" flags="0x204"/>
      <component glyphName="ring" x="113" y="180" flags="0x4"/>
    </TTGlyph>
    <TTGlyph name="Aring.sc" xMin="72" yMin="0" xMax="662" yMax="918">
      <component glyphName="aring.sc" x="0" y="0" flags="0x204"/>
    </TTGlyph>
    <TTGlyph name="Aringacute" xMin="76" yMin="0" xMax="758" yMax="1320">
      <component glyphName="A" x="0" y="0" flags="0x204"/>
      <component glyphName="ring" x="113" y="180" flags="0x4"/>
      <component glyphName="acute" x="222" y="507" flags="0x4"/>
    </TTGlyph>
    <TTGlyph name="Aringacute.sc" xMin="72" yMin="0" xMax="662" yMax="1180">
      <component glyphName="aringacute.sc" x="0" y="0" flags="0x204"/>
    </TTGlyph>
    <TTGlyph name="Atilde" xMin="76" yMin="0" xMax="758" yMax="927">
      <component glyphName="A" x="0" y="0" flags="0x204"/>
      <component glyphName="tilde" x="169" y="180" flags="0x4"/>
    </TTGlyph>
    <TTGlyph name="Atilde.sc" xMin="72" yMin="0" xMax="662" yMax="787">
      <component glyphName="atilde.sc" x="0" y="0" flags="0x204"/>
    </TTGlyph>
    <TTGlyph name="B" xMin="141" yMin="0" xMax="737" yMax="700">
      <contour>
        <pt x="141" y="0" on="1"/>
        <pt x="141" y="700" on="1"/>
        <pt x="502" y="700" on="1"/>
        <pt x="607" y="700" on="0"/>
        <pt x="722" y="609" on="0"/>
        <pt x="722" y="526" on="1"/>
        <pt x="722" y="460" on="0"/>
        <pt x="639" y="372" on="0"/>
        <pt x="557" y="361" on="1"/>
        <pt x="644" y="348" on="0"/>
        <pt x="737" y="257" on="0"/>
        <pt x="737" y="188" on="1"/>
        <pt x="737" y="95" on="0"/>
        <pt x="609" y="0" on="0"/>
        <pt x="484" y="0" on="1"/>
      </contour>
      <contour>
        <pt x="163" y="370" on="1"/>
        <pt x="490" y="370" on="1"/>
        <pt x="591" y="370" on="0"/>
        <pt x="700" y="454" on="0"/>
        <pt x="700" y="526" on="1"/>
        <pt x="700" y="601" on="0"/>
        <pt x="593" y="680" on="0"/>
        <pt x="504" y="680" on="1"/>
        <pt x="163" y="680" on="1"/>
      </contour>
      <contour>
        <pt x="163" y="20" on="1"/>
        <pt x="480" y="20" on="1"/>
        <pt x="598" y="20" on="0"/>
        <pt x="715" y="105" on="0"/>
        <pt x="715" y="187" on="1"/>
        <pt x="715" y="259" on="0"/>
        <pt x="596" y="350" on="0"/>
        <pt x="491" y="350" on="1"/>
        <pt x="163" y="350" on="1"/>
      </contour>
    </TTGlyph>
    <TTGlyph name="B.sc" xMin="142" yMin="0" xMax="643" yMax="560">
      <component glyphName="b.sc" x="0" y="0" flags="0x204"/>
    </TTGlyph>
    <TTGlyph name="C" xMin="84" yMin="-12" xMax="729" yMax="712">
      <contour>
        <pt x="456" y="-12" on="1"/>
        <pt x="371" y="-12" on="0"/>
        <pt x="232" y="40" on="0"/>
        <pt x="136" y="135" on="0"/>
        <pt x="84" y="269" on="0"/>
        <pt x="84" y="350" on="1"/>
        <pt x="84" y="428" on="0"/>
        <pt x="138" y="561" on="0"/>
        <pt x="237" y="657" on="0"/>
        <pt x="376" y="712" on="0"/>
        <pt x="460" y="712" on="1"/>
        <pt x="544" y="712" on="0"/>
        <pt x="678" y="658" on="0"/>
        <pt x="729" y="621" on="1"/>
        <pt x="729" y="594" on="1"/>
        <pt x="728" y="594" on="1"/>
        <pt x="675" y="634" on="0"/>
        <pt x="543" y="692" on="0"/>
        <pt x="459" y="692" on="1"/>
        <pt x="380" y="692" on="0"/>
        <pt x="250" y="640" on="0"/>
        <pt x="157" y="549" on="0"/>
        <pt x="106" y="423" on="0"/>
        <pt x="106" y="350" on="1"/>
        <pt x="106" y="274" on="0"/>
        <pt x="155" y="147" on="0"/>
        <pt x="245" y="58" on="0"/>
        <pt x="375" y="8" on="0"/>
        <pt x="455" y="8" on="1"/>
        <pt x="537" y="8" on="0"/>
        <pt x="675" y="66" on="0"/>
        <pt x="728" y="106" on="1"/>
        <pt x="729" y="106" on="1"/>
        <pt x="729" y="79" on="1"/>
        <pt x="678" y="42" on="0"/>
        <pt x="539" y="-12" on="0"/>
      </contour>
    </TTGlyph>
    <TTGlyph name="C.sc" xMin="88" yMin="-10" xMax="632" yMax="570">
      <component glyphName="c.sc" x="0" y="0" flags="0x204"/>
    </TTGlyph>
    <TTGlyph name="Cacute" xMin="84" yMin="-12" xMax="729" yMax="1005">
      <component glyphName="C" x="0" y="0" flags="0x204"/>
      <component glyphName="acute" x="263" y="192" flags="0x4"/>
    </TTGlyph>
    <TTGlyph name="Cacute.sc" xMin="88" yMin="-10" xMax="632" yMax="863">
      <component glyphName="cacute.sc" x="0" y="0" flags="0x204"/>
    </TTGlyph>
    <TTGlyph name="Ccaron" xMin="84" yMin="-12" xMax="729" yMax="1005">
      <component glyphName="C" x="0" y="0" flags="0x204"/>
      <component glyphName="caron" x="210" y="192" flags="0x4"/>
    </TTGlyph>
    <TTGlyph name="Ccaron.sc" xMin="88" yMin="-10" xMax="632" yMax="863">
      <component glyphName="ccaron.sc" x="0" y="0" flags="0x204"/>
    </TTGlyph>
    <TTGlyph name="Ccedilla" xMin="84" yMin="-195" xMax="729" yMax="712">
      <contour>
        <pt x="729" y="79" on="1"/>
        <pt x="679" y="43" on="0"/>
        <pt x="546" y="-10" on="0"/>
        <pt x="466" y="-12" on="1"/>
        <pt x="325" y="-195" on="1"/>
        <pt x="292" y="-195" on="1"/>
        <pt x="445" y="-12" on="1"/>
        <pt x="362" y="-10" on="0"/>
        <pt x="227" y="44" on="0"/>
        <pt x="134" y="138" on="0"/>
        <pt x="84" y="271" on="0"/>
        <pt x="84" y="350" on="1"/>
        <pt x="84" y="428" on="0"/>
        <pt x="138" y="561" on="0"/>
        <pt x="237" y="657" on="0"/>
        <pt x="376" y="712" on="0"/>
        <pt x="460" y="712" on="1"/>
        <pt x="544" y="712" on="0"/>
        <pt x="678" y="658" on="0"/>
        <pt x="729" y="621" on="1"/>
        <pt x="729" y="594" on="1"/>
        <pt x="728" y="594" on="1"/>
        <pt x="675" y="634" on="0"/>
        <pt x="543" y="692" on="0"/>
        <pt x="459" y="692" on="1"/>
        <pt x="380" y="692" on="0"/>
        <pt x="250" y="640" on="0"/>
        <pt x="157" y="549" on="0"/>
        <pt x="106" y="423" on="0"/>
        <pt x="106" y="350" on="1"/>
        <pt x="106" y="274" on="0"/>
        <pt x="155" y="147" on="0"/>
        <pt x="245" y="58" on="0"/>
        <pt x="375" y="8" on="0"/>
        <pt x="455" y="8" on="1"/>
        <pt x="537" y="8" on="0"/>
        <pt x="675" y="66" on="0"/>
        <pt x="728" y="106" on="1"/>
        <pt x="729" y="106" on="1"/>
      </contour>
    </TTGlyph>
    <TTGlyph name="Ccedilla.sc" xMin="88" yMin="-196" xMax="632" yMax="570">
      <component glyphName="ccedilla.sc" x="0" y="0" flags="0x204"/>
    </TTGlyph>
    <TTGlyph name="Cdotaccent" xMin="84" yMin="-12" xMax="729" yMax="894">
      <component glyphName="C" x="0" y="0" flags="0x204"/>
      <component glyphName="dotaccent" x="210" y="192" flags="0x4"/>
    </TTGlyph>
    <TTGlyph name="Cdotaccent.sc" xMin="88" yMin="-10" xMax="632" yMax="752">
      <component glyphName="cdotaccent.sc" x="0" y="0" flags="0x204"/>
    </TTGlyph>
    <TTGlyph name="D" xMin="141" yMin="0" xMax="787" yMax="700">
      <contour>
        <pt x="141" y="0" on="1"/>
        <pt x="141" y="700" on="1"/>
        <pt x="434" y="700" on="1"/>
        <pt x="607" y="700" on="0"/>
        <pt x="787" y="513" on="0"/>
        <pt x="787" y="351" on="1"/>
        <pt x="787" y="270" on="0"/>
        <pt x="742" y="140" on="0"/>
        <pt x="653" y="49" on="0"/>
        <pt x="521" y="0" on="0"/>
        <pt x="434" y="0" on="1"/>
      </contour>
      <contour>
        <pt x="163" y="20" on="1"/>
        <pt x="433" y="20" on="1"/>
        <pt x="594" y="20" on="0"/>
        <pt x="764" y="196" on="0"/>
        <pt x="764" y="350" on="1"/>
        <pt x="764" y="504" on="0"/>
        <pt x="594" y="680" on="0"/>
        <pt x="434" y="680" on="1"/>
        <pt x="163" y="680" on="1"/>
      </contour>
    </TTGlyph>
    <TTGlyph name="D.sc" xMin="142" yMin="0" xMax="680" yMax="560">
      <component glyphName="d.sc" x="0" y="0" flags="0x204"/>
    </TTGlyph>
    <TTGlyph name="Dcaron" xMin="141" yMin="0" xMax="787" yMax="993">
      <component glyphName="D" x="0" y="0" flags="0x204"/>
      <component glyphName="caron" x="182" y="180" flags="0x4"/>
    </TTGlyph>
    <TTGlyph name="Dcaron.sc" xMin="142" yMin="0" xMax="680" yMax="853">
      <component glyphName="dcaron.sc" x="0" y="0" flags="0x204"/>
    </TTGlyph>
    <TTGlyph name="Dcroat" xMin="32" yMin="0" xMax="817" yMax="700">
      <component glyphName="Eth" x="0" y="0" flags="0x204"/>
    </TTGlyph>
    <TTGlyph name="Dcroat.sc" xMin="48" yMin="0" xMax="700" yMax="560">
      <component glyphName="dcroat.sc" x="0" y="0" flags="0x204"/>
    </TTGlyph>
    <TTGlyph name="E" xMin="141" yMin="0" xMax="704" yMax="700">
      <contour>
        <pt x="141" y="0" on="1"/>
        <pt x="141" y="700" on="1"/>
        <pt x="683" y="700" on="1"/>
        <pt x="686" y="680" on="1"/>
        <pt x="163" y="680" on="1"/>
        <pt x="163" y="372" on="1"/>
        <pt x="604" y="372" on="1"/>
        <pt x="604" y="352" on="1"/>
        <pt x="163" y="352" on="1"/>
        <pt x="163" y="20" on="1"/>
        <pt x="704" y="20" on="1"/>
        <pt x="701" y="0" on="1"/>
      </contour>
    </TTGlyph>
    <TTGlyph name="E.sc" xMin="142" yMin="0" xMax="616" yMax="560">
      <component glyphName="e.sc" x="0" y="0" flags="0x204"/>
    </TTGlyph>
    <TTGlyph name="Eacute" xMin="141" yMin="0" xMax="704" yMax="993">
      <component glyphName="E" x="0" y="0" flags="0x204"/>
      <component glyphName="acute" x="227" y="180" flags="0x4"/>
    </TTGlyph>
    <TTGlyph name="Eacute.sc" xMin="142" yMin="0" xMax="616" yMax="853">
      <component glyphName="eacute.sc" x="0" y="0" flags="0x204"/>
    </TTGlyph>
    <TTGlyph name="Ebreve" xMin="141" yMin="0" xMax="704" yMax="993">
      <component glyphName="E" x="0" y="0" flags="0x204"/>
      <component glyphName="breve" x="174" y="180" flags="0x4"/>
    </TTGlyph>
    <TTGlyph name="Ebreve.sc" xMin="142" yMin="0" xMax="616" yMax="853">
      <component glyphName="ebreve.sc" x="0" y="0" flags="0x204"/>
    </TTGlyph>
    <TTGlyph name="Ecaron" xMin="141" yMin="0" xMax="704" yMax="993">
      <component glyphName="E" x="0" y="0" flags="0x204"/>
      <component glyphName="caron" x="174" y="180" flags="0x4"/>
    </TTGlyph>
    <TTGlyph name="Ecaron.sc" xMin="142" yMin="0" xMax="616" yMax="853">
      <component glyphName="ecaron.sc" x="0" y="0" flags="0x204"/>
    </TTGlyph>
    <TTGlyph name="Ecircumflex" xMin="141" yMin="0" xMax="704" yMax="993">
      <component glyphName="E" x="0" y="0" flags="0x204"/>
      <component glyphName="circumflex" x="174" y="180" flags="0x4"/>
    </TTGlyph>
    <TTGlyph name="Ecircumflex.sc" xMin="142" yMin="0" xMax="616" yMax="853">
      <component glyphName="ecircumflex.sc" x="0" y="0" flags="0x204"/>
    </TTGlyph>
    <TTGlyph name="Edieresis" xMin="141" yMin="0" xMax="704" yMax="882">
      <component glyphName="E" x="0" y="0" flags="0x204"/>
      <component glyphName="dieresis" x="174" y="180" flags="0x4"/>
    </TTGlyph>
    <TTGlyph name="Edieresis.sc" xMin="142" yMin="0" xMax="616" yMax="742">
      <component glyphName="edieresis.sc" x="0" y="0" flags="0x204"/>
    </TTGlyph>
    <TTGlyph name="Edotaccent" xMin="141" yMin="0" xMax="704" yMax="882">
      <component glyphName="E" x="0" y="0" flags="0x204"/>
      <component glyphName="dotaccent" x="174" y="180" flags="0x4"/>
    </TTGlyph>
    <TTGlyph name="Edotaccent.sc" xMin="142" yMin="0" xMax="616" yMax="742">
      <component glyphName="edotaccent.sc" x="0" y="0" flags="0x204"/>
    </TTGlyph>
    <TTGlyph name="Egrave" xMin="141" yMin="0" xMax="704" yMax="993">
      <component glyphName="E" x="0" y="0" flags="0x204"/>
      <component glyphName="grave" x="122" y="180" flags="0x4"/>
    </TTGlyph>
    <TTGlyph name="Egrave.sc" xMin="142" yMin="0" xMax="616" yMax="853">
      <component glyphName="egrave.sc" x="0" y="0" flags="0x204"/>
    </TTGlyph>
    <TTGlyph name="Emacron" xMin="141" yMin="0" xMax="704" yMax="867">
      <component glyphName="E" x="0" y="0" flags="0x204"/>
      <component glyphName="macron" x="174" y="180" flags="0x4"/>
    </TTGlyph>
    <TTGlyph name="Emacron.sc" xMin="142" yMin="0" xMax="616" yMax="727">
      <component glyphName="emacron.sc" x="0" y="0" flags="0x204"/>
    </TTGlyph>
    <TTGlyph name="Eogonek" xMin="141" yMin="-289" xMax="755" yMax="700">
      <contour>
        <pt x="141" y="0" on="1"/>
        <pt x="141" y="700" on="1"/>
        <pt x="683" y="700" on="1"/>
        <pt x="686" y="680" on="1"/>
        <pt x="163" y="680" on="1"/>
        <pt x="163" y="372" on="1"/>
        <pt x="604" y="372" on="1"/>
        <pt x="604" y="352" on="1"/>
        <pt x="163" y="352" on="1"/>
        <pt x="163" y="20" on="1"/>
        <pt x="704" y="20" on="1"/>
        <pt x="701" y="0" on="1"/>
        <pt x="642" y="-61" on="1"/>
        <pt x="592" y="-113" on="0"/>
        <pt x="561" y="-170" on="0"/>
        <pt x="561" y="-197" on="1"/>
        <pt x="561" y="-237" on="0"/>
        <pt x="620" y="-270" on="0"/>
        <pt x="656" y="-270" on="1"/>
        <pt x="684" y="-270" on="0"/>
        <pt x="735" y="-254" on="0"/>
        <pt x="755" y="-237" on="1"/>
        <pt x="755" y="-261" on="1"/>
        <pt x="735" y="-275" on="0"/>
        <pt x="684" y="-289" on="0"/>
        <pt x="656" y="-289" on="1"/>
        <pt x="610" y="-289" on="0"/>
        <pt x="540" y="-247" on="0"/>
        <pt x="540" y="-197" on="1"/>
        <pt x="540" y="-167" on="0"/>
        <pt x="577" y="-99" on="0"/>
        <pt x="628" y="-47" on="1"/>
        <pt x="674" y="0" on="1"/>
      </contour>
    </TTGlyph>
    <TTGlyph name="Eogonek.sc" xMin="142" yMin="-289" xMax="667" yMax="560">
      <component glyphName="eogonek.sc" x="0" y="0" flags="0x204"/>
    </TTGlyph>
    <TTGlyph name="Eth" xMin="32" yMin="0" xMax="817" yMax="700">
      <contour>
        <pt x="171" y="0" on="1"/>
        <pt x="171" y="341" on="1"/>
        <pt x="32" y="341" on="1"/>
        <pt x="35" y="360" on="1"/>
        <pt x="171" y="360" on="1"/>
        <pt x="171" y="700" on="1"/>
        <pt x="464" y="700" on="1"/>
        <pt x="637" y="700" on="0"/>
        <pt x="817" y="513" on="0"/>
        <pt x="817" y="351" on="1"/>
        <pt x="817" y="270" on="0"/>
        <pt x="772" y="140" on="0"/>
        <pt x="683" y="49" on="0"/>
        <pt x="551" y="0" on="0"/>
        <pt x="464" y="0" on="1"/>
      </contour>
      <contour>
        <pt x="193" y="20" on="1"/>
        <pt x="463" y="20" on="1"/>
        <pt x="624" y="20" on="0"/>
        <pt x="794" y="196" on="0"/>
        <pt x="794" y="350" on="1"/>
        <pt x="794" y="504" on="0"/>
        <pt x="624" y="680" on="0"/>
        <pt x="464" y="680" on="1"/>
        <pt x="193" y="680" on="1"/>
        <pt x="193" y="360" on="1"/>
        <pt x="456" y="360" on="1"/>
        <pt x="456" y="341" on="1"/>
        <pt x="193" y="341" on="1"/>
      </contour>
    </TTGlyph>
    <TTGlyph name="Eth.sc" xMin="48" yMin="0" xMax="700" yMax="560">
      <component glyphName="eth.sc" x="0" y="0" flags="0x204"/>
    </TTGlyph>
    <TTGlyph name="Euro" xMin="50" yMin="-13" xMax="713" yMax="713">
      <contour>
        <pt x="50" y="243" on="1"/>
        <pt x="53" y="262" on="1"/>
        <pt x="183" y="262" on="1"/>
        <pt x="180" y="279" on="0"/>
        <pt x="177" y="316" on="0"/>
        <pt x="177" y="335" on="1"/>
        <pt x="177" y="356" on="0"/>
        <pt x="180" y="396" on="0"/>
        <pt x="184" y="415" on="1"/>
        <pt x="73" y="415" on="1"/>
        <pt x="76" y="434" on="1"/>
        <pt x="187" y="434" on="1"/>
        <pt x="200" y="496" on="0"/>
        <pt x="260" y="599" on="0"/>
        <pt x="346" y="672" on="0"/>
        <pt x="458" y="713" on="0"/>
        <pt x="523" y="713" on="1"/>
        <pt x="577" y="713" on="0"/>
        <pt x="672" y="691" on="0"/>
        <pt x="713" y="668" on="1"/>
        <pt x="713" y="645" on="1"/>
        <pt x="712" y="645" on="1"/>
        <pt x="670" y="669" on="0"/>
        <pt x="575" y="693" on="0"/>
        <pt x="523" y="693" on="1"/>
        <pt x="462" y="693" on="0"/>
        <pt x="358" y="655" on="0"/>
        <pt x="277" y="587" on="0"/>
        <pt x="222" y="491" on="0"/>
        <pt x="209" y="434" on="1"/>
        <pt x="583" y="434" on="1"/>
        <pt x="583" y="415" on="1"/>
        <pt x="206" y="415" on="1"/>
        <pt x="202" y="396" on="0"/>
        <pt x="199" y="357" on="0"/>
        <pt x="199" y="337" on="1"/>
        <pt x="199" y="318" on="0"/>
        <pt x="202" y="280" on="0"/>
        <pt x="205" y="262" on="1"/>
        <pt x="583" y="262" on="1"/>
        <pt x="583" y="243" on="1"/>
        <pt x="209" y="243" on="1"/>
        <pt x="234" y="136" on="0"/>
        <pt x="394" y="7" on="0"/>
        <pt x="513" y="7" on="1"/>
        <pt x="568" y="7" on="0"/>
        <pt x="667" y="30" on="0"/>
        <pt x="712" y="51" on="1"/>
        <pt x="713" y="51" on="1"/>
        <pt x="713" y="28" on="1"/>
        <pt x="666" y="8" on="0"/>
        <pt x="569" y="-13" on="0"/>
        <pt x="512" y="-13" on="1"/>
        <pt x="382" y="-13" on="0"/>
        <pt x="211" y="127" on="0"/>
        <pt x="186" y="243" on="1"/>
      </contour>
    </TTGlyph>
    <TTGlyph name="Euro.tab" xMin="32" yMin="-13" xMax="661" yMax="713">
      <contour>
        <pt x="32" y="243" on="1"/>
        <pt x="35" y="262" on="1"/>
        <pt x="155" y="262" on="1"/>
        <pt x="152" y="279" on="0"/>
        <pt x="149" y="316" on="0"/>
        <pt x="149" y="335" on="1"/>
        <pt x="149" y="356" on="0"/>
        <pt x="152" y="396" on="0"/>
        <pt x="156" y="415" on="1"/>
        <pt x="55" y="415" on="1"/>
        <pt x="58" y="434" on="1"/>
        <pt x="159" y="434" on="1"/>
        <pt x="172" y="496" on="0"/>
        <pt x="230" y="599" on="0"/>
        <pt x="314" y="672" on="0"/>
        <pt x="421" y="713" on="0"/>
        <pt x="483" y="713" on="1"/>
        <pt x="528" y="713" on="0"/>
        <pt x="620" y="691" on="0"/>
        <pt x="661" y="668" on="1"/>
        <pt x="661" y="645" on="1"/>
        <pt x="660" y="645" on="1"/>
        <pt x="618" y="669" on="0"/>
        <pt x="526" y="693" on="0"/>
        <pt x="483" y="693" on="1"/>
        <pt x="426" y="693" on="0"/>
        <pt x="326" y="655" on="0"/>
        <pt x="248" y="587" on="0"/>
        <pt x="194" y="491" on="0"/>
        <pt x="181" y="434" on="1"/>
        <pt x="531" y="434" on="1"/>
        <pt x="531" y="415" on="1"/>
        <pt x="178" y="415" on="1"/>
        <pt x="174" y="396" on="0"/>
        <pt x="171" y="357" on="0"/>
        <pt x="171" y="337" on="1"/>
        <pt x="171" y="318" on="0"/>
        <pt x="174" y="280" on="0"/>
        <pt x="177" y="262" on="1"/>
        <pt x="531" y="262" on="1"/>
        <pt x="531" y="243" on="1"/>
        <pt x="181" y="243" on="1"/>
        <pt x="206" y="136" on="0"/>
        <pt x="361" y="7" on="0"/>
        <pt x="473" y="7" on="1"/>
        <pt x="519" y="7" on="0"/>
        <pt x="615" y="30" on="0"/>
        <pt x="660" y="51" on="1"/>
        <pt x="661" y="51" on="1"/>
        <pt x="661" y="28" on="1"/>
        <pt x="614" y="8" on="0"/>
        <pt x="521" y="-13" on="0"/>
        <pt x="472" y="-13" on="1"/>
        <pt x="350" y="-13" on="0"/>
        <pt x="183" y="127" on="0"/>
        <pt x="158" y="243" on="1"/>
      </contour>
    </TTGlyph>
    <TTGlyph name="F" xMin="141" yMin="0" xMax="685" yMax="700">
      <contour>
        <pt x="141" y="0" on="1"/>
        <pt x="141" y="700" on="1"/>
        <pt x="682" y="700" on="1"/>
        <pt x="685" y="680" on="1"/>
        <pt x="163" y="680" on="1"/>
        <pt x="163" y="372" on="1"/>
        <pt x="604" y="372" on="1"/>
        <pt x="604" y="352" on="1"/>
        <pt x="163" y="352" on="1"/>
        <pt x="163" y="0" on="1"/>
      </contour>
    </TTGlyph>
    <TTGlyph name="F.sc" xMin="142" yMin="0" xMax="590" yMax="560">
      <component glyphName="f.sc" x="0" y="0" flags="0x204"/>
    </TTGlyph>
    <TTGlyph name="G" xMin="84" yMin="-20" xMax="806" yMax="712">
      <contour>
        <pt x="451" y="-20" on="1"/>
        <pt x="370" y="-20" on="0"/>
        <pt x="235" y="29" on="0"/>
        <pt x="138" y="121" on="0"/>
        <pt x="84" y="255" on="0"/>
        <pt x="84" y="338" on="1"/>
        <pt x="84" y="420" on="0"/>
        <pt x="139" y="558" on="0"/>
        <pt x="239" y="657" on="0"/>
        <pt x="379" y="712" on="0"/>
        <pt x="464" y="712" on="1"/>
        <pt x="539" y="712" on="0"/>
        <pt x="689" y="665" on="0"/>
        <pt x="741" y="619" on="1"/>
        <pt x="741" y="592" on="1"/>
        <pt x="740" y="592" on="1"/>
        <pt x="686" y="641" on="0"/>
        <pt x="541" y="692" on="0"/>
        <pt x="464" y="692" on="1"/>
        <pt x="383" y="692" on="0"/>
        <pt x="250" y="639" on="0"/>
        <pt x="157" y="545" on="0"/>
        <pt x="106" y="416" on="0"/>
        <pt x="106" y="340" on="1"/>
        <pt x="106" y="263" on="0"/>
        <pt x="155" y="137" on="0"/>
        <pt x="245" y="49" on="0"/>
        <pt x="373" y="0" on="0"/>
        <pt x="452" y="0" on="1"/>
        <pt x="606" y="0" on="0"/>
        <pt x="781" y="175" on="0"/>
        <pt x="785" y="324" on="1"/>
        <pt x="423" y="324" on="1"/>
        <pt x="423" y="344" on="1"/>
        <pt x="806" y="344" on="1"/>
        <pt x="806" y="324" on="1"/>
        <pt x="805" y="248" on="0"/>
        <pt x="756" y="121" on="0"/>
        <pt x="667" y="30" on="0"/>
        <pt x="535" y="-20" on="0"/>
      </contour>
    </TTGlyph>
    <TTGlyph name="G.sc" xMin="87" yMin="-16" xMax="682" yMax="570">
      <component glyphName="g.sc" x="0" y="0" flags="0x204"/>
    </TTGlyph>
    <TTGlyph name="Gbreve" xMin="84" yMin="-20" xMax="806" yMax="1005">
      <component glyphName="G" x="0" y="0" flags="0x204"/>
      <component glyphName="breve" x="194" y="192" flags="0x4"/>
    </TTGlyph>
    <TTGlyph name="Gbreve.sc" xMin="87" yMin="-16" xMax="682" yMax="863">
      <component glyphName="gbreve.sc" x="0" y="0" flags="0x204"/>
    </TTGlyph>
    <TTGlyph name="Gdotaccent" xMin="84" yMin="-20" xMax="806" yMax="894">
      <component glyphName="G" x="0" y="0" flags="0x204"/>
      <component glyphName="dotaccent" x="194" y="192" flags="0x4"/>
    </TTGlyph>
    <TTGlyph name="Gdotaccent.sc" xMin="87" yMin="-16" xMax="682" yMax="752">
      <component glyphName="gdotaccent.sc" x="0" y="0" flags="0x204"/>
    </TTGlyph>
    <TTGlyph name="H" xMin="141" yMin="0" xMax="733" yMax="700">
      <contour>
        <pt x="141" y="0" on="1"/>
        <pt x="141" y="700" on="1"/>
        <pt x="163" y="700" on="1"/>
        <pt x="163" y="372" on="1"/>
        <pt x="711" y="372" on="1"/>
        <pt x="711" y="700" on="1"/>
        <pt x="733" y="700" on="1"/>
        <pt x="733" y="0" on="1"/>
        <pt x="711" y="0" on="1"/>
        <pt x="711" y="352" on="1"/>
        <pt x="163" y="352" on="1"/>
        <pt x="163" y="0" on="1"/>
      </contour>
    </TTGlyph>
    <TTGlyph name="H.sc" xMin="142" yMin="0" xMax="644" yMax="560">
      <component glyphName="h.sc" x="0" y="0" flags="0x204"/>
    </TTGlyph>
    <TTGlyph name="Hbar" xMin="32" yMin="0" xMax="902" yMax="700">
      <contour>
        <pt x="171" y="0" on="1"/>
        <pt x="171" y="530" on="1"/>
        <pt x="32" y="530" on="1"/>
        <pt x="35" y="549" on="1"/>
        <pt x="171" y="549" on="1"/>
        <pt x="171" y="700" on="1"/>
        <pt x="193" y="700" on="1"/>
        <pt x="193" y="549" on="1"/>
        <pt x="741" y="549" on="1"/>
        <pt x="741" y="700" on="1"/>
        <pt x="763" y="700" on="1"/>
        <pt x="763" y="549" on="1"/>
        <pt x="899" y="549" on="1"/>
        <pt x="902" y="530" on="1"/>
        <pt x="763" y="530" on="1"/>
        <pt x="763" y="0" on="1"/>
        <pt x="741" y="0" on="1"/>
        <pt x="741" y="322" on="1"/>
        <pt x="193" y="322" on="1"/>
        <pt x="193" y="0" on="1"/>
      </contour>
      <contour>
        <pt x="193" y="342" on="1"/>
        <pt x="741" y="342" on="1"/>
        <pt x="741" y="530" on="1"/>
        <pt x="193" y="530" on="1"/>
      </contour>
    </TTGlyph>
    <TTGlyph name="Hbar.sc" xMin="48" yMin="0" xMax="778" yMax="560">
      <component glyphName="hbar.sc" x="0" y="0" flags="0x204"/>
    </TTGlyph>
    <TTGlyph name="I" xMin="146" yMin="0" xMax="168" yMax="700">
      <contour>
        <pt x="146" y="0" on="1"/>
        <pt x="146" y="700" on="1"/>
        <pt x="168" y="700" on="1"/>
        <pt x="168" y="0" on="1"/>
      </contour>
    </TTGlyph>
    <TTGlyph name="I.sc" xMin="147" yMin="0" xMax="169" yMax="560">
      <component glyphName="i.sc" x="0" y="0" flags="0x204"/>
    </TTGlyph>
    <TTGlyph name="Iacute" xMin="145" yMin="0" xMax="322" yMax="993">
      <component glyphName="I" x="0" y="0" flags="0x204"/>
      <component glyphName="acute" x="-27" y="180" flags="0x4"/>
    </TTGlyph>
    <TTGlyph name="Iacute.sc" xMin="146" yMin="0" xMax="323" yMax="853">
      <component glyphName="iacute.sc" x="0" y="0" flags="0x204"/>
    </TTGlyph>
    <TTGlyph name="Ibreve" xMin="2" yMin="0" xMax="312" yMax="993">
      <component glyphName="I" x="0" y="0" flags="0x204"/>
      <component glyphName="breve" x="-93" y="180" flags="0x4"/>
    </TTGlyph>
    <TTGlyph name="Ibreve.sc" xMin="3" yMin="0" xMax="313" yMax="853">
      <component glyphName="ibreve.sc" x="0" y="0" flags="0x204"/>
    </TTGlyph>
    <TTGlyph name="Icircumflex" xMin="-14" yMin="0" xMax="328" yMax="993">
      <component glyphName="I" x="0" y="0" flags="0x204"/>
      <component glyphName="circumflex" x="-93" y="180" flags="0x4"/>
    </TTGlyph>
    <TTGlyph name="Icircumflex.sc" xMin="-13" yMin="0" xMax="329" yMax="853">
      <component glyphName="icircumflex.sc" x="0" y="0" flags="0x204"/>
    </TTGlyph>
    <TTGlyph name="Idieresis" xMin="5" yMin="0" xMax="309" yMax="882">
      <component glyphName="I" x="0" y="0" flags="0x204"/>
      <component glyphName="dieresis" x="-93" y="180" flags="0x4"/>
    </TTGlyph>
    <TTGlyph name="Idieresis.sc" xMin="6" yMin="0" xMax="310" yMax="742">
      <component glyphName="idieresis.sc" x="0" y="0" flags="0x204"/>
    </TTGlyph>
    <TTGlyph name="Idotaccent" xMin="131" yMin="0" xMax="182" yMax="882">
      <component glyphName="I" x="0" y="0" flags="0x204"/>
      <component glyphName="dotaccent" x="-94" y="180" flags="0x4"/>
    </TTGlyph>
    <TTGlyph name="Idotaccent.sc" xMin="132" yMin="0" xMax="183" yMax="742">
      <component glyphName="idotaccent.sc" x="0" y="0" flags="0x204"/>
    </TTGlyph>
    <TTGlyph name="Igrave" xMin="-8" yMin="0" xMax="169" yMax="993">
      <component glyphName="I" x="0" y="0" flags="0x204"/>
      <component glyphName="grave" x="-159" y="180" flags="0x4"/>
    </TTGlyph>
    <TTGlyph name="Igrave.sc" xMin="-7" yMin="0" xMax="170" yMax="853">
      <component glyphName="igrave.sc" x="0" y="0" flags="0x204"/>
    </TTGlyph>
    <TTGlyph name="Imacron" xMin="-15" yMin="0" xMax="329" yMax="867">
      <component glyphName="I" x="0" y="0" flags="0x204"/>
      <component glyphName="macron" x="-93" y="180" flags="0x4"/>
    </TTGlyph>
    <TTGlyph name="Imacron.sc" xMin="-14" yMin="0" xMax="330" yMax="727">
      <component glyphName="imacron.sc" x="0" y="0" flags="0x204"/>
    </TTGlyph>
    <TTGlyph name="Iogonek" xMin="7" yMin="-289" xMax="222" yMax="700">
      <contour>
        <pt x="222" y="-261" on="1"/>
        <pt x="202" y="-275" on="0"/>
        <pt x="151" y="-289" on="0"/>
        <pt x="123" y="-289" on="1"/>
        <pt x="77" y="-289" on="0"/>
        <pt x="7" y="-247" on="0"/>
        <pt x="7" y="-197" on="1"/>
        <pt x="7" y="-167" on="0"/>
        <pt x="44" y="-99" on="0"/>
        <pt x="95" y="-47" on="1"/>
        <pt x="146" y="5" on="1"/>
        <pt x="146" y="700" on="1"/>
        <pt x="168" y="700" on="1"/>
        <pt x="168" y="0" on="1"/>
        <pt x="109" y="-61" on="1"/>
        <pt x="59" y="-113" on="0"/>
        <pt x="28" y="-170" on="0"/>
        <pt x="28" y="-197" on="1"/>
        <pt x="28" y="-237" on="0"/>
        <pt x="87" y="-270" on="0"/>
        <pt x="123" y="-270" on="1"/>
        <pt x="151" y="-270" on="0"/>
        <pt x="202" y="-254" on="0"/>
        <pt x="222" y="-237" on="1"/>
      </contour>
    </TTGlyph>
    <TTGlyph name="Iogonek.sc" xMin="8" yMin="-289" xMax="223" yMax="560">
      <component glyphName="iogonek.sc" x="0" y="0" flags="0x204"/>
    </TTGlyph>
    <TTGlyph name="J" xMin="78" yMin="-14" xMax="606" yMax="700">
      <contour>
        <pt x="352" y="-14" on="1"/>
        <pt x="288" y="-14" on="0"/>
        <pt x="147" y="30" on="0"/>
        <pt x="78" y="79" on="1"/>
        <pt x="78" y="105" on="1"/>
        <pt x="79" y="105" on="1"/>
        <pt x="147" y="54" on="0"/>
        <pt x="287" y="6" on="0"/>
        <pt x="353" y="6" on="1"/>
        <pt x="463" y="6" on="0"/>
        <pt x="584" y="120" on="0"/>
        <pt x="584" y="235" on="1"/>
        <pt x="584" y="680" on="1"/>
        <pt x="240" y="680" on="1"/>
        <pt x="243" y="700" on="1"/>
        <pt x="606" y="700" on="1"/>
        <pt x="606" y="230" on="1"/>
        <pt x="606" y="111" on="0"/>
        <pt x="472" y="-14" on="0"/>
      </contour>
    </TTGlyph>
    <TTGlyph name="J.sc" xMin="88" yMin="-11" xMax="533" yMax="560">
      <component glyphName="j.sc" x="0" y="0" flags="0x204"/>
    </TTGlyph>
    <TTGlyph name="K" xMin="141" yMin="0" xMax="752" yMax="700">
      <contour>
        <pt x="141" y="0" on="1"/>
        <pt x="141" y="700" on="1"/>
        <pt x="163" y="700" on="1"/>
        <pt x="163" y="368" on="1"/>
        <pt x="388" y="368" on="1"/>
        <pt x="698" y="700" on="1"/>
        <pt x="725" y="700" on="1"/>
        <pt x="407" y="360" on="1"/>
        <pt x="752" y="0" on="1"/>
        <pt x="722" y="0" on="1"/>
        <pt x="388" y="348" on="1"/>
        <pt x="163" y="348" on="1"/>
        <pt x="163" y="0" on="1"/>
      </contour>
    </TTGlyph>
    <TTGlyph name="K.sc" xMin="142" yMin="0" xMax="654" yMax="560">
      <component glyphName="k.sc" x="0" y="0" flags="0x204"/>
    </TTGlyph>
    <TTGlyph name="L" xMin="141" yMin="0" xMax="647" yMax="700">
      <contour>
        <pt x="141" y="0" on="1"/>
        <pt x="141" y="700" on="1"/>
        <pt x="163" y="700" on="1"/>
        <pt x="163" y="20" on="1"/>
        <pt x="647" y="20" on="1"/>
        <pt x="644" y="0" on="1"/>
      </contour>
    </TTGlyph>
    <TTGlyph name="L.sc" xMin="142" yMin="0" xMax="572" yMax="560">
      <component glyphName="l.sc" x="0" y="0" flags="0x204"/>
    </TTGlyph>
    <TTGlyph name="Lacute" xMin="140" yMin="0" xMax="647" yMax="993">
      <component glyphName="L" x="0" y="0" flags="0x204"/>
      <component glyphName="acute" x="-32" y="180" flags="0x4"/>
    </TTGlyph>
    <TTGlyph name="Lacute.sc" xMin="141" yMin="0" xMax="572" yMax="853">
      <component glyphName="lacute.sc" x="0" y="0" flags="0x204"/>
    </TTGlyph>
    <TTGlyph name="Lcaron" xMin="141" yMin="0" xMax="647" yMax="700">
      <component glyphName="L" x="0" y="0" flags="0x204"/>
      <component glyphName="caron.alt" x="122" y="-97" flags="0x4"/>
    </TTGlyph>
    <TTGlyph name="Lcaron.sc" xMin="142" yMin="0" xMax="572" yMax="560">
      <component glyphName="lcaron.sc" x="0" y="0" flags="0x204"/>
    </TTGlyph>
    <TTGlyph name="Ldot" xMin="141" yMin="0" xMax="647" yMax="700">
      <contour>
        <pt x="141" y="0" on="1"/>
        <pt x="141" y="700" on="1"/>
        <pt x="163" y="700" on="1"/>
        <pt x="163" y="20" on="1"/>
        <pt x="647" y="20" on="1"/>
        <pt x="644" y="0" on="1"/>
      </contour>
      <contour>
        <pt x="505" y="387" on="1"/>
        <pt x="494" y="387" on="0"/>
        <pt x="480" y="401" on="0"/>
        <pt x="480" y="411" on="1"/>
        <pt x="480" y="420" on="0"/>
        <pt x="494" y="434" on="0"/>
        <pt x="505" y="434" on="1"/>
        <pt x="517" y="434" on="0"/>
        <pt x="531" y="420" on="0"/>
        <pt x="531" y="411" on="1"/>
        <pt x="531" y="401" on="0"/>
        <pt x="517" y="387" on="0"/>
      </contour>
    </TTGlyph>
    <TTGlyph name="Ldot.sc" xMin="142" yMin="0" xMax="572" yMax="560">
      <component glyphName="ldot.sc" x="0" y="0" flags="0x204"/>
    </TTGlyph>
    <TTGlyph name="Lslash" xMin="30" yMin="0" xMax="667" yMax="700">
      <contour>
        <pt x="161" y="0" on="1"/>
        <pt x="161" y="283" on="1"/>
        <pt x="30" y="205" on="1"/>
        <pt x="30" y="228" on="1"/>
        <pt x="161" y="306" on="1"/>
        <pt x="161" y="700" on="1"/>
        <pt x="183" y="700" on="1"/>
        <pt x="183" y="319" on="1"/>
        <pt x="494" y="504" on="1"/>
        <pt x="494" y="481" on="1"/>
        <pt x="183" y="296" on="1"/>
        <pt x="183" y="20" on="1"/>
        <pt x="667" y="20" on="1"/>
        <pt x="664" y="0" on="1"/>
      </contour>
    </TTGlyph>
    <TTGlyph name="Lslash.sc" xMin="50" yMin="0" xMax="592" yMax="560">
      <component glyphName="lslash.sc" x="0" y="0" flags="0x204"/>
    </TTGlyph>
    <TTGlyph name="M" xMin="141" yMin="0" xMax="891" yMax="700">
      <contour>
        <pt x="141" y="0" on="1"/>
        <pt x="141" y="700" on="1"/>
        <pt x="196" y="700" on="1"/>
        <pt x="516" y="125" on="1"/>
        <pt x="836" y="700" on="1"/>
        <pt x="891" y="700" on="1"/>
        <pt x="891" y="0" on="1"/>
        <pt x="869" y="0" on="1"/>
        <pt x="869" y="680" on="1"/>
        <pt x="851" y="680" on="1"/>
        <pt x="518" y="82" on="1"/>
        <pt x="513" y="82" on="1"/>
        <pt x="180" y="680" on="1"/>
        <pt x="162" y="680" on="1"/>
        <pt x="162" y="0" on="1"/>
      </contour>
    </TTGlyph>
    <TTGlyph name="M.sc" xMin="142" yMin="0" xMax="772" yMax="560">
      <component glyphName="m.sc" x="0" y="0" flags="0x204"/>
    </TTGlyph>
    <TTGlyph name="N" xMin="141" yMin="0" xMax="733" yMax="700">
      <contour>
        <pt x="141" y="0" on="1"/>
        <pt x="141" y="700" on="1"/>
        <pt x="193" y="700" on="1"/>
        <pt x="695" y="20" on="1"/>
        <pt x="711" y="20" on="1"/>
        <pt x="711" y="700" on="1"/>
        <pt x="733" y="700" on="1"/>
        <pt x="733" y="0" on="1"/>
        <pt x="681" y="0" on="1"/>
        <pt x="179" y="680" on="1"/>
        <pt x="163" y="680" on="1"/>
        <pt x="163" y="0" on="1"/>
      </contour>
    </TTGlyph>
    <TTGlyph name="N.sc" xMin="142" yMin="0" xMax="656" yMax="560">
      <component glyphName="n.sc" x="0" y="0" flags="0x204"/>
    </TTGlyph>
    <TTGlyph name="Nacute" xMin="141" yMin="0" xMax="733" yMax="968">
      <component glyphName="N" x="0" y="0" flags="0x204"/>
      <component glyphName="acute" x="256" y="155" flags="0x4"/>
    </TTGlyph>
    <TTGlyph name="Nacute.sc" xMin="142" yMin="0" xMax="656" yMax="830">
      <component glyphName="nacute.sc" x="0" y="0" flags="0x204"/>
    </TTGlyph>
    <TTGlyph name="Ncaron" xMin="141" yMin="0" xMax="733" yMax="968">
      <component glyphName="N" x="0" y="0" flags="0x204"/>
      <component glyphName="caron" x="203" y="155" flags="0x4"/>
    </TTGlyph>
    <TTGlyph name="Ncaron.sc" xMin="142" yMin="0" xMax="656" yMax="830">
      <component glyphName="ncaron.sc" x="0" y="0" flags="0x204"/>
    </TTGlyph>
    <TTGlyph name="Ntilde" xMin="141" yMin="0" xMax="733" yMax="927">
      <component glyphName="N" x="0" y="0" flags="0x204"/>
      <component glyphName="tilde" x="203" y="180" flags="0x4"/>
    </TTGlyph>
    <TTGlyph name="Ntilde.sc" xMin="142" yMin="0" xMax="656" yMax="787">
      <component glyphName="ntilde.sc" x="0" y="0" flags="0x204"/>
    </TTGlyph>
    <TTGlyph name="O" xMin="84" yMin="-20" xMax="838" yMax="720">
      <contour>
        <pt x="461" y="-20" on="1"/>
        <pt x="375" y="-20" on="0"/>
        <pt x="235" y="32" on="0"/>
        <pt x="137" y="128" on="0"/>
        <pt x="84" y="265" on="0"/>
        <pt x="84" y="350" on="1"/>
        <pt x="84" y="432" on="0"/>
        <pt x="137" y="569" on="0"/>
        <pt x="235" y="666" on="0"/>
        <pt x="375" y="720" on="0"/>
        <pt x="461" y="720" on="1"/>
        <pt x="547" y="720" on="0"/>
        <pt x="687" y="668" on="0"/>
        <pt x="785" y="572" on="0"/>
        <pt x="838" y="435" on="0"/>
        <pt x="838" y="350" on="1"/>
        <pt x="838" y="268" on="0"/>
        <pt x="785" y="131" on="0"/>
        <pt x="687" y="34" on="0"/>
        <pt x="547" y="-20" on="0"/>
      </contour>
      <contour>
        <pt x="461" y="0" on="1"/>
        <pt x="541" y="0" on="0"/>
        <pt x="673" y="50" on="0"/>
        <pt x="765" y="141" on="0"/>
        <pt x="816" y="271" on="0"/>
        <pt x="816" y="350" on="1"/>
        <pt x="816" y="429" on="0"/>
        <pt x="766" y="559" on="0"/>
        <pt x="674" y="650" on="0"/>
        <pt x="542" y="700" on="0"/>
        <pt x="461" y="700" on="1"/>
        <pt x="381" y="700" on="0"/>
        <pt x="249" y="650" on="0"/>
        <pt x="157" y="559" on="0"/>
        <pt x="106" y="429" on="0"/>
        <pt x="106" y="350" on="1"/>
        <pt x="106" y="271" on="0"/>
        <pt x="156" y="141" on="0"/>
        <pt x="248" y="50" on="0"/>
        <pt x="380" y="0" on="0"/>
      </contour>
    </TTGlyph>
    <TTGlyph name="O.sc" xMin="88" yMin="-18" xMax="706" yMax="578">
      <component glyphName="o.sc" x="0" y="0" flags="0x204"/>
    </TTGlyph>
    <TTGlyph name="OE" xMin="86" yMin="0" xMax="1273" yMax="700">
      <contour>
        <pt x="86" y="349" on="1"/>
        <pt x="86" y="430" on="0"/>
        <pt x="131" y="560" on="0"/>
        <pt x="220" y="651" on="0"/>
        <pt x="352" y="700" on="0"/>
        <pt x="439" y="700" on="1"/>
        <pt x="1252" y="700" on="1"/>
        <pt x="1255" y="680" on="1"/>
        <pt x="732" y="680" on="1"/>
        <pt x="732" y="372" on="1"/>
        <pt x="1173" y="372" on="1"/>
        <pt x="1173" y="352" on="1"/>
        <pt x="732" y="352" on="1"/>
        <pt x="732" y="20" on="1"/>
        <pt x="1273" y="20" on="1"/>
        <pt x="1270" y="0" on="1"/>
        <pt x="439" y="0" on="1"/>
        <pt x="266" y="0" on="0"/>
        <pt x="86" y="187" on="0"/>
      </contour>
      <contour>
        <pt x="710" y="680" on="1"/>
        <pt x="440" y="680" on="1"/>
        <pt x="279" y="680" on="0"/>
        <pt x="109" y="504" on="0"/>
        <pt x="109" y="350" on="1"/>
        <pt x="109" y="196" on="0"/>
        <pt x="279" y="20" on="0"/>
        <pt x="439" y="20" on="1"/>
        <pt x="710" y="20" on="1"/>
      </contour>
    </TTGlyph>
    <TTGlyph name="OE.sc" xMin="90" yMin="0" xMax="1080" yMax="560">
      <component glyphName="oe.sc" x="0" y="0" flags="0x204"/>
    </TTGlyph>
    <TTGlyph name="Oacute" xMin="84" yMin="-20" xMax="838" yMax="1013">
      <component glyphName="O" x="0" y="0" flags="0x204"/>
      <component glyphName="acute" x="264" y="200" flags="0x4"/>
    </TTGlyph>
    <TTGlyph name="Oacute.sc" xMin="88" yMin="-18" xMax="706" yMax="871">
      <component glyphName="oacute.sc" x="0" y="0" flags="0x204"/>
    </TTGlyph>
    <TTGlyph name="Obreve" xMin="84" yMin="-20" xMax="838" yMax="1013">
      <component glyphName="O" x="0" y="0" flags="0x204"/>
      <component glyphName="breve" x="211" y="200" flags="0x4"/>
    </TTGlyph>
    <TTGlyph name="Obreve.sc" xMin="88" yMin="-18" xMax="706" yMax="871">
      <component glyphName="obreve.sc" x="0" y="0" flags="0x204"/>
    </TTGlyph>
    <TTGlyph name="Ocircumflex" xMin="84" yMin="-20" xMax="838" yMax="1013">
      <component glyphName="O" x="0" y="0" flags="0x204"/>
      <component glyphName="circumflex" x="211" y="200" flags="0x4"/>
    </TTGlyph>
    <TTGlyph name="Ocircumflex.sc" xMin="88" yMin="-18" xMax="706" yMax="871">
      <component glyphName="ocircumflex.sc" x="0" y="0" flags="0x204"/>
    </TTGlyph>
    <TTGlyph name="Odieresis" xMin="84" yMin="-20" xMax="838" yMax="902">
      <component glyphName="O" x="0" y="0" flags="0x204"/>
      <component glyphName="dieresis" x="211" y="200" flags="0x4"/>
    </TTGlyph>
    <TTGlyph name="Odieresis.sc" xMin="88" yMin="-18" xMax="706" yMax="760">
      <component glyphName="odieresis.sc" x="0" y="0" flags="0x204"/>
    </TTGlyph>
    <TTGlyph name="Ograve" xMin="84" yMin="-20" xMax="838" yMax="1013">
      <component glyphName="O" x="0" y="0" flags="0x204"/>
      <component glyphName="grave" x="159" y="200" flags="0x4"/>
    </TTGlyph>
    <TTGlyph name="Ograve.sc" xMin="88" yMin="-18" xMax="706" yMax="871">
      <component glyphName="ograve.sc" x="0" y="0" flags="0x204"/>
    </TTGlyph>
    <TTGlyph name="Ohungarumlaut" xMin="84" yMin="-20" xMax="838" yMax="1013">
      <component glyphName="O" x="0" y="0" flags="0x204"/>
      <component glyphName="hungarumlaut" x="284" y="200" flags="0x4"/>
    </TTGlyph>
    <TTGlyph name="Ohungarumlaut.sc" xMin="88" yMin="-18" xMax="706" yMax="871">
      <component glyphName="ohungarumlaut.sc" x="0" y="0" flags="0x204"/>
    </TTGlyph>
    <TTGlyph name="Omacron" xMin="84" yMin="-20" xMax="838" yMax="887">
      <component glyphName="O" x="0" y="0" flags="0x204"/>
      <component glyphName="macron" x="211" y="200" flags="0x4"/>
    </TTGlyph>
    <TTGlyph name="Omacron.sc" xMin="88" yMin="-18" xMax="706" yMax="745">
      <component glyphName="omacron.sc" x="0" y="0" flags="0x204"/>
    </TTGlyph>
    <TTGlyph name="Oslash" xMin="84" yMin="-61" xMax="838" yMax="761">
      <contour>
        <pt x="93" y="-61" on="1"/>
        <pt x="202" y="65" on="1"/>
        <pt x="145" y="114" on="0"/>
        <pt x="84" y="259" on="0"/>
        <pt x="84" y="350" on="1"/>
        <pt x="84" y="432" on="0"/>
        <pt x="137" y="569" on="0"/>
        <pt x="235" y="666" on="0"/>
        <pt x="375" y="720" on="0"/>
        <pt x="461" y="720" on="1"/>
        <pt x="534" y="720" on="0"/>
        <pt x="657" y="682" on="0"/>
        <pt x="704" y="648" on="1"/>
        <pt x="802" y="761" on="1"/>
        <pt x="829" y="761" on="1"/>
        <pt x="720" y="635" on="1"/>
        <pt x="777" y="586" on="0"/>
        <pt x="838" y="441" on="0"/>
        <pt x="838" y="350" on="1"/>
        <pt x="838" y="268" on="0"/>
        <pt x="785" y="131" on="0"/>
        <pt x="687" y="34" on="0"/>
        <pt x="547" y="-20" on="0"/>
        <pt x="461" y="-20" on="1"/>
        <pt x="388" y="-20" on="0"/>
        <pt x="265" y="18" on="0"/>
        <pt x="218" y="52" on="1"/>
        <pt x="120" y="-61" on="1"/>
      </contour>
      <contour>
        <pt x="106" y="350" on="1"/>
        <pt x="106" y="265" on="0"/>
        <pt x="164" y="128" on="0"/>
        <pt x="216" y="82" on="1"/>
        <pt x="689" y="631" on="1"/>
        <pt x="645" y="664" on="0"/>
        <pt x="530" y="700" on="0"/>
        <pt x="461" y="700" on="1"/>
        <pt x="381" y="700" on="0"/>
        <pt x="249" y="650" on="0"/>
        <pt x="157" y="559" on="0"/>
        <pt x="106" y="429" on="0"/>
      </contour>
      <contour>
        <pt x="461" y="0" on="1"/>
        <pt x="541" y="0" on="0"/>
        <pt x="673" y="50" on="0"/>
        <pt x="765" y="141" on="0"/>
        <pt x="816" y="271" on="0"/>
        <pt x="816" y="350" on="1"/>
        <pt x="816" y="435" on="0"/>
        <pt x="758" y="572" on="0"/>
        <pt x="706" y="618" on="1"/>
        <pt x="233" y="69" on="1"/>
        <pt x="277" y="36" on="0"/>
        <pt x="392" y="0" on="0"/>
      </contour>
    </TTGlyph>
    <TTGlyph name="Oslash.sc" xMin="83" yMin="-49" xMax="711" yMax="609">
      <component glyphName="oslash.sc" x="0" y="0" flags="0x204"/>
    </TTGlyph>
    <TTGlyph name="Oslashacute" xMin="84" yMin="-61" xMax="838" yMax="1009">
      <component glyphName="Oslash" x="0" y="0" flags="0x204"/>
      <component glyphName="acute" x="264" y="196" flags="0x4"/>
    </TTGlyph>
    <TTGlyph name="Oslashacute.sc" xMin="83" yMin="-49" xMax="711" yMax="864">
      <component glyphName="oslashacute.sc" x="0" y="0" flags="0x204"/>
    </TTGlyph>
    <TTGlyph name="Otilde" xMin="84" yMin="-20" xMax="838" yMax="947">
      <component glyphName="O" x="0" y="0" flags="0x204"/>
      <component glyphName="tilde" x="211" y="200" flags="0x4"/>
    </TTGlyph>
    <TTGlyph name="Otilde.sc" xMin="88" yMin="-18" xMax="706" yMax="805">
      <component glyphName="otilde.sc" x="0" y="0" flags="0x204"/>
    </TTGlyph>
    <TTGlyph name="P" xMin="141" yMin="0" xMax="715" yMax="700">
      <contour>
        <pt x="141" y="0" on="1"/>
        <pt x="141" y="700" on="1"/>
        <pt x="440" y="700" on="1"/>
        <pt x="577" y="700" on="0"/>
        <pt x="715" y="586" on="0"/>
        <pt x="715" y="479" on="1"/>
        <pt x="715" y="370" on="0"/>
        <pt x="577" y="249" on="0"/>
        <pt x="441" y="249" on="1"/>
        <pt x="163" y="249" on="1"/>
        <pt x="163" y="0" on="1"/>
      </contour>
      <contour>
        <pt x="163" y="269" on="1"/>
        <pt x="441" y="269" on="1"/>
        <pt x="567" y="269" on="0"/>
        <pt x="693" y="377" on="0"/>
        <pt x="693" y="476" on="1"/>
        <pt x="693" y="574" on="0"/>
        <pt x="567" y="680" on="0"/>
        <pt x="441" y="680" on="1"/>
        <pt x="163" y="680" on="1"/>
      </contour>
    </TTGlyph>
    <TTGlyph name="P.sc" xMin="142" yMin="0" xMax="631" yMax="560">
      <component glyphName="p.sc" x="0" y="0" flags="0x204"/>
    </TTGlyph>
    <TTGlyph name="Q" xMin="84" yMin="-23" xMax="873" yMax="720">
      <contour>
        <pt x="461" y="720" on="1"/>
        <pt x="547" y="720" on="0"/>
        <pt x="687" y="668" on="0"/>
        <pt x="785" y="572" on="0"/>
        <pt x="838" y="435" on="0"/>
        <pt x="838" y="350" on="1"/>
        <pt x="838" y="273" on="0"/>
        <pt x="791" y="143" on="0"/>
        <pt x="747" y="95" on="1"/>
        <pt x="873" y="3" on="1"/>
        <pt x="873" y="-23" on="1"/>
        <pt x="872" y="-23" on="1"/>
        <pt x="732" y="80" on="1"/>
        <pt x="684" y="32" on="0"/>
        <pt x="545" y="-20" on="0"/>
        <pt x="461" y="-20" on="1"/>
        <pt x="375" y="-20" on="0"/>
        <pt x="235" y="32" on="0"/>
        <pt x="137" y="128" on="0"/>
        <pt x="84" y="265" on="0"/>
        <pt x="84" y="350" on="1"/>
        <pt x="84" y="432" on="0"/>
        <pt x="137" y="569" on="0"/>
        <pt x="235" y="666" on="0"/>
        <pt x="375" y="720" on="0"/>
      </contour>
      <contour>
        <pt x="461" y="700" on="1"/>
        <pt x="381" y="700" on="0"/>
        <pt x="249" y="650" on="0"/>
        <pt x="157" y="559" on="0"/>
        <pt x="106" y="429" on="0"/>
        <pt x="106" y="350" on="1"/>
        <pt x="106" y="271" on="0"/>
        <pt x="156" y="141" on="0"/>
        <pt x="248" y="50" on="0"/>
        <pt x="380" y="0" on="0"/>
        <pt x="461" y="0" on="1"/>
        <pt x="540" y="0" on="0"/>
        <pt x="670" y="48" on="0"/>
        <pt x="716" y="92" on="1"/>
        <pt x="478" y="268" on="1"/>
        <pt x="491" y="285" on="1"/>
        <pt x="731" y="107" on="1"/>
        <pt x="771" y="153" on="0"/>
        <pt x="816" y="276" on="0"/>
        <pt x="816" y="350" on="1"/>
        <pt x="816" y="429" on="0"/>
        <pt x="766" y="559" on="0"/>
        <pt x="674" y="650" on="0"/>
        <pt x="542" y="700" on="0"/>
      </contour>
    </TTGlyph>
    <TTGlyph name="Q.sc" xMin="88" yMin="-24" xMax="719" yMax="578">
      <component glyphName="q.sc" x="0" y="0" flags="0x204"/>
    </TTGlyph>
    <TTGlyph name="R" xMin="141" yMin="0" xMax="735" yMax="700">
      <contour>
        <pt x="141" y="0" on="1"/>
        <pt x="141" y="700" on="1"/>
        <pt x="477" y="700" on="1"/>
        <pt x="596" y="700" on="0"/>
        <pt x="719" y="585" on="0"/>
        <pt x="719" y="489" on="1"/>
        <pt x="719" y="404" on="0"/>
        <pt x="613" y="286" on="0"/>
        <pt x="512" y="279" on="1"/>
        <pt x="735" y="0" on="1"/>
        <pt x="708" y="0" on="1"/>
        <pt x="487" y="278" on="1"/>
        <pt x="163" y="278" on="1"/>
        <pt x="163" y="0" on="1"/>
      </contour>
      <contour>
        <pt x="163" y="298" on="1"/>
        <pt x="477" y="298" on="1"/>
        <pt x="536" y="298" on="0"/>
        <pt x="619" y="328" on="0"/>
        <pt x="672" y="380" on="0"/>
        <pt x="697" y="450" on="0"/>
        <pt x="697" y="489" on="1"/>
        <pt x="697" y="528" on="0"/>
        <pt x="672" y="598" on="0"/>
        <pt x="619" y="650" on="0"/>
        <pt x="536" y="680" on="0"/>
        <pt x="477" y="680" on="1"/>
        <pt x="163" y="680" on="1"/>
      </contour>
    </TTGlyph>
    <TTGlyph name="R.sc" xMin="142" yMin="0" xMax="631" yMax="560">
      <component glyphName="r.sc" x="0" y="0" flags="0x204"/>
    </TTGlyph>
    <TTGlyph name="R_p" xMin="178" yMin="-178" xMax="1412" yMax="700">
      <contour>
        <pt x="178" y="0" on="1"/>
        <pt x="178" y="700" on="1"/>
        <pt x="490" y="700" on="1"/>
        <pt x="609" y="700" on="0"/>
        <pt x="732" y="585" on="0"/>
        <pt x="732" y="489" on="1"/>
        <pt x="732" y="404" on="0"/>
        <pt x="626" y="286" on="0"/>
        <pt x="525" y="279" on="1"/>
        <pt x="748" y="0" on="1"/>
        <pt x="721" y="0" on="1"/>
        <pt x="500" y="278" on="1"/>
        <pt x="200" y="278" on="1"/>
        <pt x="200" y="0" on="1"/>
      </contour>
      <contour>
        <pt x="200" y="298" on="1"/>
        <pt x="490" y="298" on="1"/>
        <pt x="549" y="298" on="0"/>
        <pt x="632" y="328" on="0"/>
        <pt x="685" y="380" on="0"/>
        <pt x="710" y="450" on="0"/>
        <pt x="710" y="489" on="1"/>
        <pt x="710" y="528" on="0"/>
        <pt x="685" y="598" on="0"/>
        <pt x="632" y="650" on="0"/>
        <pt x="549" y="680" on="0"/>
        <pt x="490" y="680" on="1"/>
        <pt x="200" y="680" on="1"/>
      </contour>
      <contour>
        <pt x="911" y="-178" on="1"/>
        <pt x="911" y="520" on="1"/>
        <pt x="932" y="520" on="1"/>
        <pt x="932" y="423" on="1"/>
        <pt x="948" y="442" on="0"/>
        <pt x="995" y="481" on="0"/>
        <pt x="1054" y="513" on="0"/>
        <pt x="1124" y="533" on="0"/>
        <pt x="1163" y="533" on="1"/>
        <pt x="1214" y="533" on="0"/>
        <pt x="1306" y="497" on="0"/>
        <pt x="1373" y="428" on="0"/>
        <pt x="1412" y="326" on="0"/>
        <pt x="1412" y="260" on="1"/>
        <pt x="1412" y="205" on="0"/>
        <pt x="1372" y="105" on="0"/>
        <pt x="1302" y="31" on="0"/>
        <pt x="1202" y="-13" on="0"/>
        <pt x="1143" y="-13" on="1"/>
        <pt x="1071" y="-13" on="0"/>
        <pt x="968" y="40" on="0"/>
        <pt x="932" y="79" on="1"/>
        <pt x="932" y="-178" on="1"/>
      </contour>
      <contour>
        <pt x="1143" y="6" on="1"/>
        <pt x="1198" y="6" on="0"/>
        <pt x="1289" y="47" on="0"/>
        <pt x="1354" y="116" on="0"/>
        <pt x="1390" y="209" on="0"/>
        <pt x="1390" y="260" on="1"/>
        <pt x="1390" y="324" on="0"/>
        <pt x="1353" y="420" on="0"/>
        <pt x="1291" y="483" on="0"/>
        <pt x="1208" y="514" on="0"/>
        <pt x="1163" y="514" on="1"/>
        <pt x="1092" y="514" on="0"/>
        <pt x="969" y="443" on="0"/>
        <pt x="932" y="395" on="1"/>
        <pt x="932" y="107" on="1"/>
        <pt x="972" y="60" on="0"/>
        <pt x="1074" y="6" on="0"/>
      </contour>
    </TTGlyph>
    <TTGlyph name="Racute" xMin="141" yMin="0" xMax="735" yMax="993">
      <component glyphName="R" x="0" y="0" flags="0x204"/>
      <component glyphName="acute" x="211" y="180" flags="0x4"/>
    </TTGlyph>
    <TTGlyph name="Racute.sc" xMin="142" yMin="0" xMax="631" yMax="853">
      <component glyphName="racute.sc" x="0" y="0" flags="0x204"/>
    </TTGlyph>
    <TTGlyph name="Rcaron" xMin="141" yMin="0" xMax="735" yMax="993">
      <component glyphName="R" x="0" y="0" flags="0x204"/>
      <component glyphName="caron" x="158" y="180" flags="0x4"/>
    </TTGlyph>
    <TTGlyph name="Rcaron.sc" xMin="142" yMin="0" xMax="631" yMax="853">
      <component glyphName="rcaron.sc" x="0" y="0" flags="0x204"/>
    </TTGlyph>
    <TTGlyph name="S" xMin="89" yMin="-16" xMax="684" yMax="716">
      <contour>
        <pt x="405" y="-16" on="1"/>
        <pt x="312" y="-16" on="0"/>
        <pt x="155" y="31" on="0"/>
        <pt x="89" y="70" on="1"/>
        <pt x="89" y="97" on="1"/>
        <pt x="90" y="97" on="1"/>
        <pt x="160" y="52" on="0"/>
        <pt x="319" y="4" on="0"/>
        <pt x="406" y="4" on="1"/>
        <pt x="525" y="4" on="0"/>
        <pt x="662" y="99" on="0"/>
        <pt x="662" y="179" on="1"/>
        <pt x="662" y="249" on="0"/>
        <pt x="550" y="319" on="0"/>
        <pt x="404" y="346" on="1"/>
        <pt x="246" y="376" on="0"/>
        <pt x="121" y="455" on="0"/>
        <pt x="121" y="530" on="1"/>
        <pt x="121" y="570" on="0"/>
        <pt x="160" y="639" on="0"/>
        <pt x="231" y="688" on="0"/>
        <pt x="331" y="716" on="0"/>
        <pt x="391" y="716" on="1"/>
        <pt x="458" y="716" on="0"/>
        <pt x="601" y="682" on="0"/>
        <pt x="665" y="646" on="1"/>
        <pt x="665" y="619" on="1"/>
        <pt x="664" y="619" on="1"/>
        <pt x="600" y="660" on="0"/>
        <pt x="458" y="696" on="0"/>
        <pt x="390" y="696" on="1"/>
        <pt x="336" y="696" on="0"/>
        <pt x="245" y="672" on="0"/>
        <pt x="180" y="629" on="0"/>
        <pt x="143" y="568" on="0"/>
        <pt x="143" y="532" on="1"/>
        <pt x="143" y="464" on="0"/>
        <pt x="259" y="396" on="0"/>
        <pt x="405" y="368" on="1"/>
        <pt x="486" y="353" on="0"/>
        <pt x="594" y="320" on="0"/>
        <pt x="657" y="276" on="0"/>
        <pt x="684" y="219" on="0"/>
        <pt x="684" y="180" on="1"/>
        <pt x="684" y="91" on="0"/>
        <pt x="536" y="-16" on="0"/>
      </contour>
    </TTGlyph>
    <TTGlyph name="S.sc" xMin="88" yMin="-16" xMax="575" yMax="574">
      <component glyphName="s.sc" x="0" y="0" flags="0x204"/>
    </TTGlyph>
    <TTGlyph name="Sacute" xMin="89" yMin="-16" xMax="684" yMax="1009">
      <component glyphName="S" x="0" y="0" flags="0x204"/>
      <component glyphName="acute" x="221" y="196" flags="0x4"/>
    </TTGlyph>
    <TTGlyph name="Sacute.sc" xMin="88" yMin="-16" xMax="575" yMax="867">
      <component glyphName="sacute.sc" x="0" y="0" flags="0x204"/>
    </TTGlyph>
    <TTGlyph name="Scaron" xMin="89" yMin="-16" xMax="684" yMax="1009">
      <component glyphName="S" x="0" y="0" flags="0x204"/>
      <component glyphName="caron" x="168" y="196" flags="0x4"/>
    </TTGlyph>
    <TTGlyph name="Scaron.sc" xMin="88" yMin="-16" xMax="575" yMax="867">
      <component glyphName="scaron.sc" x="0" y="0" flags="0x204"/>
    </TTGlyph>
    <TTGlyph name="Scedilla" xMin="89" yMin="-198" xMax="684" yMax="716">
      <contour>
        <pt x="684" y="180" on="1"/>
        <pt x="684" y="93" on="0"/>
        <pt x="543" y="-13" on="0"/>
        <pt x="418" y="-16" on="1"/>
        <pt x="278" y="-198" on="1"/>
        <pt x="245" y="-198" on="1"/>
        <pt x="397" y="-16" on="1"/>
        <pt x="307" y="-15" on="0"/>
        <pt x="154" y="32" on="0"/>
        <pt x="89" y="70" on="1"/>
        <pt x="89" y="97" on="1"/>
        <pt x="90" y="97" on="1"/>
        <pt x="160" y="52" on="0"/>
        <pt x="319" y="4" on="0"/>
        <pt x="406" y="4" on="1"/>
        <pt x="525" y="4" on="0"/>
        <pt x="662" y="99" on="0"/>
        <pt x="662" y="179" on="1"/>
        <pt x="662" y="249" on="0"/>
        <pt x="550" y="319" on="0"/>
        <pt x="404" y="346" on="1"/>
        <pt x="246" y="376" on="0"/>
        <pt x="121" y="455" on="0"/>
        <pt x="121" y="530" on="1"/>
        <pt x="121" y="570" on="0"/>
        <pt x="160" y="639" on="0"/>
        <pt x="231" y="688" on="0"/>
        <pt x="331" y="716" on="0"/>
        <pt x="391" y="716" on="1"/>
        <pt x="458" y="716" on="0"/>
        <pt x="601" y="682" on="0"/>
        <pt x="665" y="646" on="1"/>
        <pt x="665" y="619" on="1"/>
        <pt x="664" y="619" on="1"/>
        <pt x="600" y="660" on="0"/>
        <pt x="458" y="696" on="0"/>
        <pt x="390" y="696" on="1"/>
        <pt x="336" y="696" on="0"/>
        <pt x="245" y="672" on="0"/>
        <pt x="180" y="629" on="0"/>
        <pt x="143" y="568" on="0"/>
        <pt x="143" y="532" on="1"/>
        <pt x="143" y="464" on="0"/>
        <pt x="259" y="396" on="0"/>
        <pt x="405" y="368" on="1"/>
        <pt x="486" y="353" on="0"/>
        <pt x="594" y="320" on="0"/>
        <pt x="657" y="276" on="0"/>
        <pt x="684" y="219" on="0"/>
      </contour>
    </TTGlyph>
    <TTGlyph name="Scedilla.sc" xMin="88" yMin="-199" xMax="575" yMax="574">
      <component glyphName="scedilla.sc" x="0" y="0" flags="0x204"/>
    </TTGlyph>
    <TTGlyph name="T" xMin="51" yMin="0" xMax="719" yMax="700">
      <contour>
        <pt x="374" y="0" on="1"/>
        <pt x="374" y="680" on="1"/>
        <pt x="51" y="680" on="1"/>
        <pt x="54" y="700" on="1"/>
        <pt x="716" y="700" on="1"/>
        <pt x="719" y="680" on="1"/>
        <pt x="396" y="680" on="1"/>
        <pt x="396" y="0" on="1"/>
      </contour>
    </TTGlyph>
    <TTGlyph name="T.sc" xMin="56" yMin="0" xMax="632" yMax="560">
      <component glyphName="t.sc" x="0" y="0" flags="0x204"/>
    </TTGlyph>
    <TTGlyph name="Tcaron" xMin="51" yMin="0" xMax="719" yMax="993">
      <component glyphName="T" x="0" y="0" flags="0x204"/>
      <component glyphName="caron" x="135" y="180" flags="0x4"/>
    </TTGlyph>
    <TTGlyph name="Tcaron.sc" xMin="56" yMin="0" xMax="632" yMax="853">
      <component glyphName="tcaron.sc" x="0" y="0" flags="0x204"/>
    </TTGlyph>
    <TTGlyph name="Thorn" xMin="141" yMin="0" xMax="720" yMax="700">
      <contour>
        <pt x="141" y="0" on="1"/>
        <pt x="141" y="700" on="1"/>
        <pt x="163" y="700" on="1"/>
        <pt x="163" y="573" on="1"/>
        <pt x="445" y="573" on="1"/>
        <pt x="582" y="573" on="0"/>
        <pt x="720" y="462" on="0"/>
        <pt x="720" y="357" on="1"/>
        <pt x="720" y="250" on="0"/>
        <pt x="582" y="132" on="0"/>
        <pt x="446" y="132" on="1"/>
        <pt x="163" y="132" on="1"/>
        <pt x="163" y="0" on="1"/>
      </contour>
      <contour>
        <pt x="163" y="152" on="1"/>
        <pt x="446" y="152" on="1"/>
        <pt x="572" y="152" on="0"/>
        <pt x="698" y="257" on="0"/>
        <pt x="698" y="354" on="1"/>
        <pt x="698" y="450" on="0"/>
        <pt x="572" y="553" on="0"/>
        <pt x="446" y="553" on="1"/>
        <pt x="163" y="553" on="1"/>
      </contour>
    </TTGlyph>
    <TTGlyph name="Thorn.sc" xMin="142" yMin="0" xMax="636" yMax="560">
      <component glyphName="thorn.sc" x="0" y="0" flags="0x204"/>
    </TTGlyph>
    <TTGlyph name="U" xMin="126" yMin="-18" xMax="736" yMax="700">
      <contour>
        <pt x="432" y="-18" on="1"/>
        <pt x="292" y="-18" on="0"/>
        <pt x="126" y="114" on="0"/>
        <pt x="126" y="263" on="1"/>
        <pt x="126" y="700" on="1"/>
        <pt x="148" y="700" on="1"/>
        <pt x="148" y="266" on="1"/>
        <pt x="148" y="194" on="0"/>
        <pt x="189" y="93" on="0"/>
        <pt x="263" y="31" on="0"/>
        <pt x="368" y="2" on="0"/>
        <pt x="432" y="2" on="1"/>
        <pt x="560" y="2" on="0"/>
        <pt x="715" y="123" on="0"/>
        <pt x="715" y="266" on="1"/>
        <pt x="715" y="700" on="1"/>
        <pt x="736" y="700" on="1"/>
        <pt x="736" y="263" on="1"/>
        <pt x="736" y="114" on="0"/>
        <pt x="572" y="-18" on="0"/>
      </contour>
    </TTGlyph>
    <TTGlyph name="U.sc" xMin="131" yMin="-15" xMax="637" yMax="560">
      <component glyphName="u.sc" x="0" y="0" flags="0x204"/>
    </TTGlyph>
    <TTGlyph name="Uacute" xMin="126" yMin="-18" xMax="736" yMax="969">
      <component glyphName="U" x="0" y="0" flags="0x204"/>
      <component glyphName="acute" x="234" y="156" flags="0x4"/>
    </TTGlyph>
    <TTGlyph name="Uacute.sc" xMin="131" yMin="-15" xMax="637" yMax="830">
      <component glyphName="uacute.sc" x="0" y="0" flags="0x204"/>
    </TTGlyph>
    <TTGlyph name="Ubreve" xMin="126" yMin="-18" xMax="736" yMax="969">
      <component glyphName="U" x="0" y="0" flags="0x204"/>
      <component glyphName="breve" x="181" y="156" flags="0x4"/>
    </TTGlyph>
    <TTGlyph name="Ubreve.sc" xMin="131" yMin="-15" xMax="637" yMax="830">
      <component glyphName="ubreve.sc" x="0" y="0" flags="0x204"/>
    </TTGlyph>
    <TTGlyph name="Ucircumflex" xMin="126" yMin="-18" xMax="736" yMax="993">
      <component glyphName="U" x="0" y="0" flags="0x204"/>
      <component glyphName="circumflex" x="181" y="180" flags="0x4"/>
    </TTGlyph>
    <TTGlyph name="Ucircumflex.sc" xMin="131" yMin="-15" xMax="637" yMax="853">
      <component glyphName="ucircumflex.sc" x="0" y="0" flags="0x204"/>
    </TTGlyph>
    <TTGlyph name="Udieresis" xMin="126" yMin="-18" xMax="736" yMax="882">
      <component glyphName="U" x="0" y="0" flags="0x204"/>
      <component glyphName="dieresis" x="181" y="180" flags="0x4"/>
    </TTGlyph>
    <TTGlyph name="Udieresis.sc" xMin="131" yMin="-15" xMax="637" yMax="742">
      <component glyphName="udieresis.sc" x="0" y="0" flags="0x204"/>
    </TTGlyph>
    <TTGlyph name="Ugrave" xMin="126" yMin="-18" xMax="736" yMax="969">
      <component glyphName="U" x="0" y="0" flags="0x204"/>
      <component glyphName="grave" x="129" y="156" flags="0x4"/>
    </TTGlyph>
    <TTGlyph name="Ugrave.sc" xMin="131" yMin="-15" xMax="637" yMax="830">
      <component glyphName="ugrave.sc" x="0" y="0" flags="0x204"/>
    </TTGlyph>
    <TTGlyph name="Uhungarumlaut" xMin="126" yMin="-18" xMax="736" yMax="993">
      <component glyphName="U" x="0" y="0" flags="0x204"/>
      <component glyphName="hungarumlaut" x="236" y="180" flags="0x4"/>
    </TTGlyph>
    <TTGlyph name="Uhungarumlaut.sc" xMin="131" yMin="-15" xMax="642" yMax="853">
      <component glyphName="uhungarumlaut.sc" x="0" y="0" flags="0x204"/>
    </TTGlyph>
    <TTGlyph name="Umacron" xMin="126" yMin="-18" xMax="736" yMax="867">
      <component glyphName="U" x="0" y="0" flags="0x204"/>
      <component glyphName="macron" x="181" y="180" flags="0x4"/>
    </TTGlyph>
    <TTGlyph name="Umacron.sc" xMin="131" yMin="-15" xMax="637" yMax="727">
      <component glyphName="umacron.sc" x="0" y="0" flags="0x204"/>
    </TTGlyph>
    <TTGlyph name="Uogonek" xMin="126" yMin="-301" xMax="736" yMax="700">
      <contour>
        <pt x="432" y="-18" on="1"/>
        <pt x="292" y="-18" on="0"/>
        <pt x="126" y="114" on="0"/>
        <pt x="126" y="263" on="1"/>
        <pt x="126" y="700" on="1"/>
        <pt x="148" y="700" on="1"/>
        <pt x="148" y="266" on="1"/>
        <pt x="148" y="194" on="0"/>
        <pt x="189" y="93" on="0"/>
        <pt x="263" y="31" on="0"/>
        <pt x="368" y="2" on="0"/>
        <pt x="432" y="2" on="1"/>
        <pt x="560" y="2" on="0"/>
        <pt x="715" y="123" on="0"/>
        <pt x="715" y="266" on="1"/>
        <pt x="715" y="700" on="1"/>
        <pt x="736" y="700" on="1"/>
        <pt x="736" y="263" on="1"/>
        <pt x="736" y="132" on="0"/>
        <pt x="607" y="-2" on="0"/>
        <pt x="494" y="-15" on="1"/>
        <pt x="438" y="-73" on="1"/>
        <pt x="388" y="-125" on="0"/>
        <pt x="357" y="-182" on="0"/>
        <pt x="357" y="-209" on="1"/>
        <pt x="357" y="-249" on="0"/>
        <pt x="416" y="-282" on="0"/>
        <pt x="452" y="-282" on="1"/>
        <pt x="480" y="-282" on="0"/>
        <pt x="531" y="-266" on="0"/>
        <pt x="551" y="-249" on="1"/>
        <pt x="551" y="-273" on="1"/>
        <pt x="531" y="-287" on="0"/>
        <pt x="480" y="-301" on="0"/>
        <pt x="452" y="-301" on="1"/>
        <pt x="406" y="-301" on="0"/>
        <pt x="336" y="-259" on="0"/>
        <pt x="336" y="-209" on="1"/>
        <pt x="336" y="-179" on="0"/>
        <pt x="373" y="-111" on="0"/>
        <pt x="424" y="-59" on="1"/>
        <pt x="465" y="-17" on="1"/>
        <pt x="457" y="-18" on="0"/>
        <pt x="440" y="-18" on="0"/>
      </contour>
    </TTGlyph>
    <TTGlyph name="Uogonek.sc" xMin="131" yMin="-294" xMax="637" yMax="560">
      <component glyphName="uogonek.sc" x="0" y="0" flags="0x204"/>
    </TTGlyph>
    <TTGlyph name="Uring" xMin="126" yMin="-18" xMax="736" yMax="1034">
      <component glyphName="U" x="0" y="0" flags="0x204"/>
      <component glyphName="ring" x="125" y="156" flags="0x4"/>
    </TTGlyph>
    <TTGlyph name="Uring.sc" xMin="131" yMin="-15" xMax="637" yMax="895">
      <component glyphName="uring.sc" x="0" y="0" flags="0x204"/>
    </TTGlyph>
    <TTGlyph name="V" xMin="76" yMin="0" xMax="738" yMax="700">
      <contour>
        <pt x="363" y="0" on="1"/>
        <pt x="76" y="700" on="1"/>
        <pt x="99" y="700" on="1"/>
        <pt x="379" y="20" on="1"/>
        <pt x="435" y="20" on="1"/>
        <pt x="715" y="700" on="1"/>
        <pt x="738" y="700" on="1"/>
        <pt x="451" y="0" on="1"/>
      </contour>
    </TTGlyph>
    <TTGlyph name="V.sc" xMin="72" yMin="0" xMax="644" yMax="560">
      <component glyphName="v.sc" x="0" y="0" flags="0x204"/>
    </TTGlyph>
    <TTGlyph name="W" xMin="88" yMin="0" xMax="1202" yMax="700">
      <contour>
        <pt x="309" y="0" on="1"/>
        <pt x="88" y="700" on="1"/>
        <pt x="111" y="700" on="1"/>
        <pt x="326" y="20" on="1"/>
        <pt x="379" y="20" on="1"/>
        <pt x="621" y="700" on="1"/>
        <pt x="669" y="700" on="1"/>
        <pt x="911" y="20" on="1"/>
        <pt x="964" y="20" on="1"/>
        <pt x="1179" y="700" on="1"/>
        <pt x="1202" y="700" on="1"/>
        <pt x="981" y="0" on="1"/>
        <pt x="895" y="0" on="1"/>
        <pt x="654" y="679" on="1"/>
        <pt x="636" y="679" on="1"/>
        <pt x="395" y="0" on="1"/>
      </contour>
    </TTGlyph>
    <TTGlyph name="W.sc" xMin="82" yMin="0" xMax="1014" yMax="560">
      <component glyphName="w.sc" x="0" y="0" flags="0x204"/>
    </TTGlyph>
    <TTGlyph name="Wacute" xMin="88" yMin="0" xMax="1202" yMax="993">
      <component glyphName="W" x="0" y="0" flags="0x204"/>
      <component glyphName="acute" x="461" y="180" flags="0x4"/>
    </TTGlyph>
    <TTGlyph name="Wacute.sc" xMin="82" yMin="0" xMax="1014" yMax="853">
      <component glyphName="wacute.sc" x="0" y="0" flags="0x204"/>
    </TTGlyph>
    <TTGlyph name="Wcircumflex" xMin="88" yMin="0" xMax="1202" yMax="993">
      <component glyphName="W" x="0" y="0" flags="0x204"/>
      <component glyphName="circumflex" x="395" y="180" flags="0x4"/>
    </TTGlyph>
    <TTGlyph name="Wcircumflex.sc" xMin="82" yMin="0" xMax="1014" yMax="853">
      <component glyphName="wcircumflex.sc" x="0" y="0" flags="0x204"/>
    </TTGlyph>
    <TTGlyph name="Wdieresis" xMin="88" yMin="0" xMax="1202" yMax="882">
      <component glyphName="W" x="0" y="0" flags="0x204"/>
      <component glyphName="dieresis" x="395" y="180" flags="0x4"/>
    </TTGlyph>
    <TTGlyph name="Wdieresis.sc" xMin="82" yMin="0" xMax="1014" yMax="742">
      <component glyphName="wdieresis.sc" x="0" y="0" flags="0x204"/>
    </TTGlyph>
    <TTGlyph name="Wgrave" xMin="88" yMin="0" xMax="1202" yMax="993">
      <component glyphName="W" x="0" y="0" flags="0x204"/>
      <component glyphName="grave" x="329" y="180" flags="0x4"/>
    </TTGlyph>
    <TTGlyph name="Wgrave.sc" xMin="82" yMin="0" xMax="1014" yMax="853">
      <component glyphName="wgrave.sc" x="0" y="0" flags="0x204"/>
    </TTGlyph>
    <TTGlyph name="X" xMin="72" yMin="0" xMax="732" yMax="700">
      <contour>
        <pt x="100" y="0" on="1"/>
        <pt x="72" y="0" on="1"/>
        <pt x="387" y="362" on="1"/>
        <pt x="92" y="700" on="1"/>
        <pt x="120" y="700" on="1"/>
        <pt x="403" y="377" on="1"/>
        <pt x="684" y="700" on="1"/>
        <pt x="712" y="700" on="1"/>
        <pt x="417" y="360" on="1"/>
        <pt x="732" y="0" on="1"/>
        <pt x="704" y="0" on="1"/>
        <pt x="401" y="346" on="1"/>
      </contour>
    </TTGlyph>
    <TTGlyph name="X.sc" xMin="84" yMin="0" xMax="629" yMax="560">
      <component glyphName="x.sc" x="0" y="0" flags="0x204"/>
    </TTGlyph>
    <TTGlyph name="Y" xMin="64" yMin="0" xMax="726" yMax="700">
      <contour>
        <pt x="384" y="0" on="1"/>
        <pt x="384" y="236" on="1"/>
        <pt x="64" y="700" on="1"/>
        <pt x="91" y="700" on="1"/>
        <pt x="395" y="258" on="1"/>
        <pt x="699" y="700" on="1"/>
        <pt x="726" y="700" on="1"/>
        <pt x="406" y="236" on="1"/>
        <pt x="406" y="0" on="1"/>
      </contour>
    </TTGlyph>
    <TTGlyph name="Y.sc" xMin="60" yMin="0" xMax="620" yMax="560">
      <component glyphName="y.sc" x="0" y="0" flags="0x204"/>
    </TTGlyph>
    <TTGlyph name="Yacute" xMin="64" yMin="0" xMax="726" yMax="969">
      <component glyphName="Y" x="0" y="0" flags="0x204"/>
      <component glyphName="acute" x="198" y="156" flags="0x4"/>
    </TTGlyph>
    <TTGlyph name="Yacute.sc" xMin="60" yMin="0" xMax="620" yMax="830">
      <component glyphName="yacute.sc" x="0" y="0" flags="0x204"/>
    </TTGlyph>
    <TTGlyph name="Ycircumflex" xMin="64" yMin="0" xMax="726" yMax="993">
      <component glyphName="Y" x="0" y="0" flags="0x204"/>
      <component glyphName="circumflex" x="145" y="180" flags="0x4"/>
    </TTGlyph>
    <TTGlyph name="Ycircumflex.sc" xMin="60" yMin="0" xMax="620" yMax="853">
      <component glyphName="ycircumflex.sc" x="0" y="0" flags="0x204"/>
    </TTGlyph>
    <TTGlyph name="Ydieresis" xMin="64" yMin="0" xMax="726" yMax="882">
      <component glyphName="Y" x="0" y="0" flags="0x204"/>
      <component glyphName="dieresis" x="145" y="180" flags="0x4"/>
    </TTGlyph>
    <TTGlyph name="Ydieresis.sc" xMin="60" yMin="0" xMax="620" yMax="742">
      <component glyphName="ydieresis.sc" x="0" y="0" flags="0x204"/>
    </TTGlyph>
    <TTGlyph name="Ygrave" xMin="64" yMin="0" xMax="726" yMax="969">
      <component glyphName="Y" x="0" y="0" flags="0x204"/>
      <component glyphName="grave" x="93" y="156" flags="0x4"/>
    </TTGlyph>
    <TTGlyph name="Ygrave.sc" xMin="60" yMin="0" xMax="620" yMax="830">
      <component glyphName="ygrave.sc" x="0" y="0" flags="0x204"/>
    </TTGlyph>
    <TTGlyph name="Z" xMin="94" yMin="0" xMax="708" yMax="700">
      <contour>
        <pt x="94" y="0" on="1"/>
        <pt x="94" y="17" on="1"/>
        <pt x="679" y="680" on="1"/>
        <pt x="108" y="680" on="1"/>
        <pt x="111" y="700" on="1"/>
        <pt x="708" y="700" on="1"/>
        <pt x="708" y="683" on="1"/>
        <pt x="123" y="20" on="1"/>
        <pt x="708" y="20" on="1"/>
        <pt x="708" y="0" on="1"/>
      </contour>
    </TTGlyph>
    <TTGlyph name="Z.sc" xMin="80" yMin="0" xMax="581" yMax="560">
      <component glyphName="z.sc" x="0" y="0" flags="0x204"/>
    </TTGlyph>
    <TTGlyph name="Zacute" xMin="94" yMin="0" xMax="708" yMax="993">
      <component glyphName="Z" x="0" y="0" flags="0x204"/>
      <component glyphName="acute" x="208" y="180" flags="0x4"/>
    </TTGlyph>
    <TTGlyph name="Zacute.sc" xMin="80" yMin="0" xMax="581" yMax="853">
      <component glyphName="zacute.sc" x="0" y="0" flags="0x204"/>
    </TTGlyph>
    <TTGlyph name="Zcaron" xMin="94" yMin="0" xMax="708" yMax="993">
      <component glyphName="Z" x="0" y="0" flags="0x204"/>
      <component glyphName="caron" x="155" y="180" flags="0x4"/>
    </TTGlyph>
    <TTGlyph name="Zcaron.sc" xMin="80" yMin="0" xMax="581" yMax="853">
      <component glyphName="zcaron.sc" x="0" y="0" flags="0x204"/>
    </TTGlyph>
    <TTGlyph name="Zdotaccent" xMin="94" yMin="0" xMax="708" yMax="882">
      <component glyphName="Z" x="0" y="0" flags="0x204"/>
      <component glyphName="dotaccent" x="155" y="180" flags="0x4"/>
    </TTGlyph>
    <TTGlyph name="Zdotaccent.sc" xMin="80" yMin="0" xMax="581" yMax="742">
      <component glyphName="zdotaccent.sc" x="0" y="0" flags="0x204"/>
    </TTGlyph>
    <TTGlyph name="a" xMin="90" yMin="-12" xMax="532" yMax="533">
      <contour>
        <pt x="252" y="-12" on="1"/>
        <pt x="180" y="-12" on="0"/>
        <pt x="90" y="55" on="0"/>
        <pt x="90" y="117" on="1"/>
        <pt x="90" y="138" on="0"/>
        <pt x="107" y="187" on="0"/>
        <pt x="129" y="209" on="1"/>
        <pt x="173" y="253" on="0"/>
        <pt x="351" y="294" on="0"/>
        <pt x="511" y="302" on="1"/>
        <pt x="511" y="338" on="1"/>
        <pt x="511" y="429" on="0"/>
        <pt x="418" y="514" on="0"/>
        <pt x="334" y="514" on="1"/>
        <pt x="274" y="514" on="0"/>
        <pt x="156" y="466" on="0"/>
        <pt x="111" y="428" on="1"/>
        <pt x="110" y="428" on="1"/>
        <pt x="110" y="452" on="1"/>
        <pt x="154" y="489" on="0"/>
        <pt x="275" y="533" on="0"/>
        <pt x="337" y="533" on="1"/>
        <pt x="425" y="533" on="0"/>
        <pt x="532" y="442" on="0"/>
        <pt x="532" y="344" on="1"/>
        <pt x="532" y="0" on="1"/>
        <pt x="511" y="0" on="1"/>
        <pt x="511" y="118" on="1"/>
        <pt x="456" y="58" on="0"/>
        <pt x="328" y="-12" on="0"/>
      </contour>
      <contour>
        <pt x="253" y="7" on="1"/>
        <pt x="327" y="7" on="0"/>
        <pt x="454" y="81" on="0"/>
        <pt x="511" y="145" on="1"/>
        <pt x="511" y="283" on="1"/>
        <pt x="360" y="276" on="0"/>
        <pt x="186" y="237" on="0"/>
        <pt x="145" y="196" on="1"/>
        <pt x="126" y="177" on="0"/>
        <pt x="112" y="134" on="0"/>
        <pt x="112" y="116" on="1"/>
        <pt x="112" y="63" on="0"/>
        <pt x="193" y="7" on="0"/>
      </contour>
    </TTGlyph>
    <TTGlyph name="a.sc" xMin="72" yMin="0" xMax="662" yMax="560">
      <contour>
        <pt x="72" y="0" on="1"/>
        <pt x="316" y="560" on="1"/>
        <pt x="418" y="560" on="1"/>
        <pt x="662" y="0" on="1"/>
        <pt x="637" y="0" on="1"/>
        <pt x="565" y="166" on="1"/>
        <pt x="169" y="166" on="1"/>
        <pt x="97" y="0" on="1"/>
      </contour>
      <contour>
        <pt x="332" y="540" on="1"/>
        <pt x="178" y="186" on="1"/>
        <pt x="556" y="186" on="1"/>
        <pt x="402" y="540" on="1"/>
      </contour>
    </TTGlyph>
    <TTGlyph name="aacute" xMin="90" yMin="-12" xMax="532" yMax="826">
      <component glyphName="a" x="0" y="0" flags="0x204"/>
      <component glyphName="acute" x="132" y="13" flags="0x4"/>
    </TTGlyph>
    <TTGlyph name="aacute.sc" xMin="72" yMin="0" xMax="662" yMax="853">
      <component glyphName="a.sc" x="0" y="0" flags="0x204"/>
      <component glyphName="acute" x="172" y="40" flags="0x4"/>
    </TTGlyph>
    <TTGlyph name="abreve" xMin="90" yMin="-12" xMax="532" yMax="826">
      <component glyphName="a" x="0" y="0" flags="0x204"/>
      <component glyphName="breve" x="79" y="13" flags="0x4"/>
    </TTGlyph>
    <TTGlyph name="abreve.sc" xMin="72" yMin="0" xMax="662" yMax="853">
      <component glyphName="a.sc" x="0" y="0" flags="0x204"/>
      <component glyphName="breve" x="119" y="40" flags="0x4"/>
    </TTGlyph>
    <TTGlyph name="acircumflex" xMin="90" yMin="-12" xMax="532" yMax="826">
      <component glyphName="a" x="0" y="0" flags="0x204"/>
      <component glyphName="circumflex" x="79" y="13" flags="0x4"/>
    </TTGlyph>
    <TTGlyph name="acircumflex.sc" xMin="72" yMin="0" xMax="662" yMax="853">
      <component glyphName="a.sc" x="0" y="0" flags="0x204"/>
      <component glyphName="circumflex" x="119" y="40" flags="0x4"/>
    </TTGlyph>
    <TTGlyph name="acute" xMin="172" yMin="649" xMax="349" yMax="813">
      <contour>
        <pt x="172" y="649" on="1"/>
        <pt x="314" y="813" on="1"/>
        <pt x="349" y="813" on="1"/>
        <pt x="195" y="649" on="1"/>
      </contour>
    </TTGlyph>
    <TTGlyph name="adieresis" xMin="90" yMin="-12" xMax="532" yMax="715">
      <component glyphName="a" x="0" y="0" flags="0x204"/>
      <component glyphName="dieresis" x="79" y="13" flags="0x4"/>
    </TTGlyph>
    <TTGlyph name="adieresis.sc" xMin="72" yMin="0" xMax="662" yMax="742">
      <component glyphName="a.sc" x="0" y="0" flags="0x204"/>
      <component glyphName="dieresis" x="119" y="40" flags="0x4"/>
    </TTGlyph>
    <TTGlyph name="ae" xMin="90" yMin="-12" xMax="1006" yMax="533">
      <contour>
        <pt x="782" y="-11" on="1"/>
        <pt x="693" y="-11" on="0"/>
        <pt x="567" y="61" on="0"/>
        <pt x="536" y="125" on="1"/>
        <pt x="474" y="56" on="0"/>
        <pt x="331" y="-12" on="0"/>
        <pt x="252" y="-12" on="1"/>
        <pt x="180" y="-12" on="0"/>
        <pt x="90" y="52" on="0"/>
        <pt x="90" y="117" on="1"/>
        <pt x="90" y="142" on="0"/>
        <pt x="112" y="191" on="0"/>
        <pt x="131" y="208" on="1"/>
        <pt x="153" y="230" on="0"/>
        <pt x="214" y="261" on="0"/>
        <pt x="302" y="282" on="0"/>
        <pt x="426" y="295" on="0"/>
        <pt x="511" y="299" on="1"/>
        <pt x="511" y="347" on="1"/>
        <pt x="511" y="438" on="0"/>
        <pt x="411" y="514" on="0"/>
        <pt x="334" y="514" on="1"/>
        <pt x="273" y="514" on="0"/>
        <pt x="156" y="466" on="0"/>
        <pt x="111" y="428" on="1"/>
        <pt x="110" y="428" on="1"/>
        <pt x="110" y="451" on="1"/>
        <pt x="154" y="488" on="0"/>
        <pt x="274" y="533" on="0"/>
        <pt x="337" y="533" on="1"/>
        <pt x="419" y="533" on="0"/>
        <pt x="529" y="449" on="0"/>
        <pt x="530" y="360" on="1"/>
        <pt x="558" y="438" on="0"/>
        <pt x="688" y="533" on="0"/>
        <pt x="769" y="533" on="1"/>
        <pt x="832" y="533" on="0"/>
        <pt x="923" y="489" on="0"/>
        <pt x="980" y="418" on="0"/>
        <pt x="1006" y="327" on="0"/>
        <pt x="1006" y="281" on="1"/>
        <pt x="1006" y="279" on="1"/>
        <pt x="532" y="279" on="1"/>
        <pt x="531" y="273" on="0"/>
        <pt x="531" y="260" on="0"/>
        <pt x="531" y="254" on="1"/>
        <pt x="531" y="252" on="1"/>
        <pt x="531" y="137" on="0"/>
        <pt x="670" y="8" on="0"/>
        <pt x="782" y="8" on="1"/>
        <pt x="836" y="8" on="0"/>
        <pt x="936" y="41" on="0"/>
        <pt x="985" y="75" on="1"/>
        <pt x="986" y="75" on="1"/>
        <pt x="986" y="50" on="1"/>
        <pt x="945" y="21" on="0"/>
        <pt x="836" y="-11" on="0"/>
      </contour>
      <contour>
        <pt x="768" y="514" on="1"/>
        <pt x="724" y="514" on="0"/>
        <pt x="644" y="481" on="0"/>
        <pt x="583" y="424" on="0"/>
        <pt x="541" y="344" on="0"/>
        <pt x="534" y="298" on="1"/>
        <pt x="984" y="298" on="1"/>
        <pt x="981" y="338" on="0"/>
        <pt x="956" y="415" on="0"/>
        <pt x="904" y="476" on="0"/>
        <pt x="824" y="514" on="0"/>
      </contour>
      <contour>
        <pt x="112" y="116" on="1"/>
        <pt x="112" y="59" on="0"/>
        <pt x="193" y="7" on="0"/>
        <pt x="253" y="7" on="1"/>
        <pt x="330" y="7" on="0"/>
        <pt x="466" y="76" on="0"/>
        <pt x="528" y="145" on="1"/>
        <pt x="520" y="168" on="0"/>
        <pt x="511" y="221" on="0"/>
        <pt x="511" y="250" on="1"/>
        <pt x="511" y="280" on="1"/>
        <pt x="429" y="276" on="0"/>
        <pt x="310" y="263" on="0"/>
        <pt x="226" y="244" on="0"/>
        <pt x="168" y="216" on="0"/>
        <pt x="147" y="196" on="1"/>
        <pt x="131" y="180" on="0"/>
        <pt x="112" y="141" on="0"/>
      </contour>
    </TTGlyph>
    <TTGlyph name="ae.sc" xMin="48" yMin="0" xMax="1024" yMax="560">
      <contour>
        <pt x="550" y="0" on="1"/>
        <pt x="550" y="166" on="1"/>
        <pt x="196" y="166" on="1"/>
        <pt x="74" y="0" on="1"/>
        <pt x="48" y="0" on="1"/>
        <pt x="458" y="560" on="1"/>
        <pt x="1006" y="560" on="1"/>
        <pt x="1008" y="540" on="1"/>
        <pt x="572" y="540" on="1"/>
        <pt x="572" y="300" on="1"/>
        <pt x="933" y="300" on="1"/>
        <pt x="933" y="280" on="1"/>
        <pt x="572" y="280" on="1"/>
        <pt x="572" y="20" on="1"/>
        <pt x="1024" y="20" on="1"/>
        <pt x="1021" y="0" on="1"/>
      </contour>
      <contour>
        <pt x="470" y="540" on="1"/>
        <pt x="210" y="186" on="1"/>
        <pt x="550" y="186" on="1"/>
        <pt x="550" y="540" on="1"/>
      </contour>
    </TTGlyph>
    <TTGlyph name="aeacute" xMin="90" yMin="-12" xMax="1006" yMax="811">
      <component glyphName="ae" x="0" y="0" flags="0x204"/>
      <component glyphName="acute" x="366" y="-2" flags="0x4"/>
    </TTGlyph>
    <TTGlyph name="aeacute.sc" xMin="48" yMin="0" xMax="1024" yMax="853">
      <component glyphName="ae.sc" x="0" y="0" flags="0x204"/>
      <component glyphName="acute" x="417" y="40" flags="0x4"/>
    </TTGlyph>
    <TTGlyph name="agrave" xMin="90" yMin="-12" xMax="532" yMax="826">
      <component glyphName="a" x="0" y="0" flags="0x204"/>
      <component glyphName="grave" x="27" y="13" flags="0x4"/>
    </TTGlyph>
    <TTGlyph name="agrave.sc" xMin="72" yMin="0" xMax="662" yMax="853">
      <component glyphName="a.sc" x="0" y="0" flags="0x204"/>
      <component glyphName="grave" x="67" y="40" flags="0x4"/>
    </TTGlyph>
    <TTGlyph name="amacron" xMin="90" yMin="-12" xMax="532" yMax="700">
      <component glyphName="a" x="0" y="0" flags="0x204"/>
      <component glyphName="macron" x="79" y="13" flags="0x4"/>
    </TTGlyph>
    <TTGlyph name="amacron.sc" xMin="72" yMin="0" xMax="662" yMax="727">
      <component glyphName="a.sc" x="0" y="0" flags="0x204"/>
      <component glyphName="macron" x="119" y="40" flags="0x4"/>
    </TTGlyph>
    <TTGlyph name="ampersand" xMin="88" yMin="-16" xMax="829" yMax="700">
      <contour>
        <pt x="268" y="-16" on="1"/>
        <pt x="231" y="-16" on="0"/>
        <pt x="165" y="4" on="0"/>
        <pt x="116" y="43" on="0"/>
        <pt x="88" y="102" on="0"/>
        <pt x="88" y="140" on="1"/>
        <pt x="88" y="213" on="0"/>
        <pt x="196" y="332" on="0"/>
        <pt x="312" y="404" on="1"/>
        <pt x="376" y="444" on="1"/>
        <pt x="166" y="681" on="1"/>
        <pt x="166" y="700" on="1"/>
        <pt x="687" y="700" on="1"/>
        <pt x="690" y="680" on="1"/>
        <pt x="194" y="680" on="1"/>
        <pt x="623" y="194" on="1"/>
        <pt x="828" y="386" on="1"/>
        <pt x="829" y="386" on="1"/>
        <pt x="829" y="358" on="1"/>
        <pt x="637" y="179" on="1"/>
        <pt x="795" y="0" on="1"/>
        <pt x="768" y="0" on="1"/>
        <pt x="622" y="166" on="1"/>
        <pt x="527" y="86" on="0"/>
        <pt x="360" y="-16" on="0"/>
      </contour>
      <contour>
        <pt x="109" y="141" on="1"/>
        <pt x="109" y="72" on="0"/>
        <pt x="205" y="4" on="0"/>
        <pt x="271" y="4" on="1"/>
        <pt x="356" y="4" on="0"/>
        <pt x="517" y="105" on="0"/>
        <pt x="608" y="181" on="1"/>
        <pt x="390" y="428" on="1"/>
        <pt x="326" y="389" on="1"/>
        <pt x="216" y="321" on="0"/>
        <pt x="109" y="210" on="0"/>
      </contour>
    </TTGlyph>
    <TTGlyph name="ampersand.sc" xMin="82" yMin="-13" xMax="690" yMax="560">
      <contour>
        <pt x="221" y="-13" on="1"/>
        <pt x="163" y="-13" on="0"/>
        <pt x="82" y="48" on="0"/>
        <pt x="82" y="108" on="1"/>
        <pt x="82" y="162" on="0"/>
        <pt x="171" y="264" on="0"/>
        <pt x="275" y="331" on="1"/>
        <pt x="320" y="360" on="1"/>
        <pt x="150" y="542" on="1"/>
        <pt x="150" y="560" on="1"/>
        <pt x="579" y="560" on="1"/>
        <pt x="582" y="540" on="1"/>
        <pt x="180" y="540" on="1"/>
        <pt x="528" y="168" on="1"/>
        <pt x="690" y="306" on="1"/>
        <pt x="690" y="279" on="1"/>
        <pt x="542" y="154" on="1"/>
        <pt x="686" y="0" on="1"/>
        <pt x="658" y="0" on="1"/>
        <pt x="526" y="141" on="1"/>
        <pt x="472" y="94" on="0"/>
        <pt x="386" y="34" on="0"/>
        <pt x="315" y="0" on="0"/>
        <pt x="253" y="-13" on="0"/>
      </contour>
      <contour>
        <pt x="104" y="109" on="1"/>
        <pt x="104" y="58" on="0"/>
        <pt x="171" y="7" on="0"/>
        <pt x="222" y="7" on="1"/>
        <pt x="283" y="7" on="0"/>
        <pt x="411" y="68" on="0"/>
        <pt x="512" y="155" on="1"/>
        <pt x="334" y="345" on="1"/>
        <pt x="287" y="315" on="1"/>
        <pt x="191" y="253" on="0"/>
        <pt x="104" y="160" on="0"/>
      </contour>
    </TTGlyph>
    <TTGlyph name="aogonek" xMin="90" yMin="-289" xMax="586" yMax="533">
      <contour>
        <pt x="252" y="-12" on="1"/>
        <pt x="180" y="-12" on="0"/>
        <pt x="90" y="55" on="0"/>
        <pt x="90" y="117" on="1"/>
        <pt x="90" y="138" on="0"/>
        <pt x="107" y="187" on="0"/>
        <pt x="129" y="209" on="1"/>
        <pt x="173" y="253" on="0"/>
        <pt x="351" y="294" on="0"/>
        <pt x="511" y="302" on="1"/>
        <pt x="511" y="338" on="1"/>
        <pt x="511" y="429" on="0"/>
        <pt x="418" y="514" on="0"/>
        <pt x="334" y="514" on="1"/>
        <pt x="274" y="514" on="0"/>
        <pt x="156" y="466" on="0"/>
        <pt x="111" y="428" on="1"/>
        <pt x="110" y="428" on="1"/>
        <pt x="110" y="452" on="1"/>
        <pt x="154" y="489" on="0"/>
        <pt x="275" y="533" on="0"/>
        <pt x="337" y="533" on="1"/>
        <pt x="425" y="533" on="0"/>
        <pt x="532" y="442" on="0"/>
        <pt x="532" y="344" on="1"/>
        <pt x="532" y="0" on="1"/>
        <pt x="473" y="-61" on="1"/>
        <pt x="423" y="-113" on="0"/>
        <pt x="392" y="-170" on="0"/>
        <pt x="392" y="-197" on="1"/>
        <pt x="392" y="-237" on="0"/>
        <pt x="451" y="-270" on="0"/>
        <pt x="487" y="-270" on="1"/>
        <pt x="515" y="-270" on="0"/>
        <pt x="566" y="-254" on="0"/>
        <pt x="586" y="-237" on="1"/>
        <pt x="586" y="-261" on="1"/>
        <pt x="566" y="-275" on="0"/>
        <pt x="515" y="-289" on="0"/>
        <pt x="487" y="-289" on="1"/>
        <pt x="441" y="-289" on="0"/>
        <pt x="371" y="-247" on="0"/>
        <pt x="371" y="-197" on="1"/>
        <pt x="371" y="-167" on="0"/>
        <pt x="408" y="-99" on="0"/>
        <pt x="459" y="-47" on="1"/>
        <pt x="511" y="6" on="1"/>
        <pt x="511" y="118" on="1"/>
        <pt x="456" y="58" on="0"/>
        <pt x="328" y="-12" on="0"/>
      </contour>
      <contour>
        <pt x="253" y="7" on="1"/>
        <pt x="327" y="7" on="0"/>
        <pt x="454" y="81" on="0"/>
        <pt x="511" y="145" on="1"/>
        <pt x="511" y="283" on="1"/>
        <pt x="360" y="276" on="0"/>
        <pt x="186" y="237" on="0"/>
        <pt x="145" y="196" on="1"/>
        <pt x="126" y="177" on="0"/>
        <pt x="112" y="134" on="0"/>
        <pt x="112" y="116" on="1"/>
        <pt x="112" y="63" on="0"/>
        <pt x="193" y="7" on="0"/>
      </contour>
    </TTGlyph>
    <TTGlyph name="aogonek.sc" xMin="72" yMin="-289" xMax="716" yMax="560">
      <contour>
        <pt x="72" y="0" on="1"/>
        <pt x="316" y="560" on="1"/>
        <pt x="418" y="560" on="1"/>
        <pt x="662" y="0" on="1"/>
        <pt x="603" y="-61" on="1"/>
        <pt x="553" y="-113" on="0"/>
        <pt x="522" y="-170" on="0"/>
        <pt x="522" y="-197" on="1"/>
        <pt x="522" y="-237" on="0"/>
        <pt x="581" y="-270" on="0"/>
        <pt x="617" y="-270" on="1"/>
        <pt x="645" y="-270" on="0"/>
        <pt x="696" y="-254" on="0"/>
        <pt x="716" y="-237" on="1"/>
        <pt x="716" y="-261" on="1"/>
        <pt x="696" y="-275" on="0"/>
        <pt x="645" y="-289" on="0"/>
        <pt x="617" y="-289" on="1"/>
        <pt x="571" y="-289" on="0"/>
        <pt x="501" y="-247" on="0"/>
        <pt x="501" y="-197" on="1"/>
        <pt x="501" y="-167" on="0"/>
        <pt x="538" y="-99" on="0"/>
        <pt x="589" y="-47" on="1"/>
        <pt x="636" y="1" on="1"/>
        <pt x="565" y="166" on="1"/>
        <pt x="169" y="166" on="1"/>
        <pt x="97" y="0" on="1"/>
      </contour>
      <contour>
        <pt x="332" y="540" on="1"/>
        <pt x="178" y="186" on="1"/>
        <pt x="556" y="186" on="1"/>
        <pt x="402" y="540" on="1"/>
      </contour>
    </TTGlyph>
    <TTGlyph name="aring" xMin="90" yMin="-12" xMax="532" yMax="891">
      <component glyphName="a" x="0" y="0" flags="0x204"/>
      <component glyphName="ring" x="23" y="13" flags="0x4"/>
    </TTGlyph>
    <TTGlyph name="aring.sc" xMin="72" yMin="0" xMax="662" yMax="918">
      <component glyphName="a.sc" x="0" y="0" flags="0x204"/>
      <component glyphName="ring" x="63" y="40" flags="0x4"/>
    </TTGlyph>
    <TTGlyph name="aringacute" xMin="90" yMin="-12" xMax="532" yMax="1153">
      <component glyphName="a" x="0" y="0" flags="0x204"/>
      <component glyphName="ring" x="23" y="13" flags="0x4"/>
      <component glyphName="acute" x="132" y="340" flags="0x4"/>
    </TTGlyph>
    <TTGlyph name="aringacute.sc" xMin="72" yMin="0" xMax="662" yMax="1180">
      <component glyphName="a.sc" x="0" y="0" flags="0x204"/>
      <component glyphName="ring" x="63" y="40" flags="0x4"/>
      <component glyphName="acute" x="172" y="367" flags="0x4"/>
    </TTGlyph>
    <TTGlyph name="asciicircum" xMin="104" yMin="396" xMax="562" yMax="700">
      <contour>
        <pt x="104" y="396" on="1"/>
        <pt x="293" y="700" on="1"/>
        <pt x="373" y="700" on="1"/>
        <pt x="562" y="396" on="1"/>
        <pt x="536" y="396" on="1"/>
        <pt x="360" y="680" on="1"/>
        <pt x="306" y="680" on="1"/>
        <pt x="130" y="396" on="1"/>
      </contour>
    </TTGlyph>
    <TTGlyph name="asciicircum.tab" xMin="133" yMin="396" xMax="591" yMax="700">
      <component glyphName="asciicircum" x="29" y="0" flags="0x4"/>
    </TTGlyph>
    <TTGlyph name="asciitilde" xMin="89" yMin="285" xMax="649" yMax="416">
      <contour>
        <pt x="89" y="319" on="1"/>
        <pt x="115" y="365" on="0"/>
        <pt x="191" y="416" on="0"/>
        <pt x="234" y="416" on="1"/>
        <pt x="267" y="416" on="0"/>
        <pt x="323" y="393" on="0"/>
        <pt x="373" y="361" on="1"/>
        <pt x="422" y="329" on="0"/>
        <pt x="474" y="306" on="0"/>
        <pt x="505" y="306" on="1"/>
        <pt x="548" y="306" on="0"/>
        <pt x="621" y="367" on="0"/>
        <pt x="648" y="416" on="1"/>
        <pt x="649" y="416" on="1"/>
        <pt x="649" y="382" on="1"/>
        <pt x="623" y="336" on="0"/>
        <pt x="547" y="285" on="0"/>
        <pt x="504" y="285" on="1"/>
        <pt x="471" y="285" on="0"/>
        <pt x="415" y="307" on="0"/>
        <pt x="365" y="340" on="1"/>
        <pt x="316" y="372" on="0"/>
        <pt x="264" y="395" on="0"/>
        <pt x="233" y="395" on="1"/>
        <pt x="190" y="395" on="0"/>
        <pt x="117" y="334" on="0"/>
        <pt x="90" y="285" on="1"/>
        <pt x="89" y="285" on="1"/>
      </contour>
    </TTGlyph>
    <TTGlyph name="asciitilde.tab" xMin="82" yMin="285" xMax="642" yMax="416">
      <component glyphName="asciitilde" x="-7" y="0" flags="0x4"/>
    </TTGlyph>
    <TTGlyph name="asterisk" xMin="76" yMin="378" xMax="412" yMax="720">
      <contour>
        <pt x="341" y="406" on="1"/>
        <pt x="242" y="527" on="1"/>
        <pt x="207" y="378" on="1"/>
        <pt x="190" y="381" on="1"/>
        <pt x="223" y="530" on="1"/>
        <pt x="83" y="464" on="1"/>
        <pt x="76" y="481" on="1"/>
        <pt x="217" y="549" on="1"/>
        <pt x="78" y="615" on="1"/>
        <pt x="85" y="632" on="1"/>
        <pt x="223" y="568" on="1"/>
        <pt x="189" y="716" on="1"/>
        <pt x="207" y="720" on="1"/>
        <pt x="243" y="570" on="1"/>
        <pt x="341" y="690" on="1"/>
        <pt x="354" y="679" on="1"/>
        <pt x="259" y="559" on="1"/>
        <pt x="412" y="558" on="1"/>
        <pt x="412" y="540" on="1"/>
        <pt x="257" y="539" on="1"/>
        <pt x="355" y="419" on="1"/>
      </contour>
    </TTGlyph>
    <TTGlyph name="at" xMin="114" yMin="-111" xMax="1006" yMax="751">
      <contour>
        <pt x="830" y="129" on="1"/>
        <pt x="787" y="129" on="0"/>
        <pt x="718" y="169" on="0"/>
        <pt x="710" y="222" on="1"/>
        <pt x="665" y="177" on="0"/>
        <pt x="569" y="129" on="0"/>
        <pt x="518" y="129" on="1"/>
        <pt x="464" y="129" on="0"/>
        <pt x="398" y="179" on="0"/>
        <pt x="398" y="224" on="1"/>
        <pt x="398" y="241" on="0"/>
        <pt x="410" y="278" on="0"/>
        <pt x="426" y="294" on="1"/>
        <pt x="460" y="328" on="0"/>
        <pt x="588" y="355" on="0"/>
        <pt x="707" y="362" on="1"/>
        <pt x="707" y="388" on="1"/>
        <pt x="707" y="455" on="0"/>
        <pt x="639" y="512" on="0"/>
        <pt x="585" y="512" on="1"/>
        <pt x="537" y="512" on="0"/>
        <pt x="452" y="477" on="0"/>
        <pt x="419" y="449" on="1"/>
        <pt x="418" y="449" on="1"/>
        <pt x="418" y="472" on="1"/>
        <pt x="451" y="500" on="0"/>
        <pt x="539" y="531" on="0"/>
        <pt x="585" y="531" on="1"/>
        <pt x="649" y="531" on="0"/>
        <pt x="728" y="463" on="0"/>
        <pt x="728" y="391" on="1"/>
        <pt x="728" y="256" on="1"/>
        <pt x="728" y="193" on="0"/>
        <pt x="789" y="148" on="0"/>
        <pt x="830" y="148" on="1"/>
        <pt x="899" y="148" on="0"/>
        <pt x="984" y="260" on="0"/>
        <pt x="984" y="381" on="1"/>
        <pt x="984" y="453" on="0"/>
        <pt x="932" y="581" on="0"/>
        <pt x="834" y="676" on="0"/>
        <pt x="689" y="731" on="0"/>
        <pt x="596" y="731" on="1"/>
        <pt x="495" y="731" on="0"/>
        <pt x="325" y="672" on="0"/>
        <pt x="205" y="562" on="0"/>
        <pt x="137" y="401" on="0"/>
        <pt x="137" y="301" on="1"/>
        <pt x="137" y="202" on="0"/>
        <pt x="200" y="55" on="0"/>
        <pt x="312" y="-43" on="0"/>
        <pt x="467" y="-91" on="0"/>
        <pt x="558" y="-91" on="1"/>
        <pt x="633" y="-91" on="0"/>
        <pt x="792" y="-59" on="0"/>
        <pt x="872" y="-16" on="1"/>
        <pt x="872" y="-38" on="1"/>
        <pt x="800" y="-78" on="0"/>
        <pt x="636" y="-111" on="0"/>
        <pt x="558" y="-111" on="1"/>
        <pt x="460" y="-111" on="0"/>
        <pt x="295" y="-58" on="0"/>
        <pt x="179" y="45" on="0"/>
        <pt x="114" y="200" on="0"/>
        <pt x="115" y="301" on="1"/>
        <pt x="116" y="407" on="0"/>
        <pt x="187" y="575" on="0"/>
        <pt x="313" y="690" on="0"/>
        <pt x="490" y="751" on="0"/>
        <pt x="596" y="751" on="1"/>
        <pt x="692" y="751" on="0"/>
        <pt x="844" y="694" on="0"/>
        <pt x="950" y="596" on="0"/>
        <pt x="1006" y="460" on="0"/>
        <pt x="1006" y="382" on="1"/>
        <pt x="1006" y="251" on="0"/>
        <pt x="906" y="129" on="0"/>
      </contour>
      <contour>
        <pt x="518" y="148" on="1"/>
        <pt x="567" y="148" on="0"/>
        <pt x="659" y="195" on="0"/>
        <pt x="707" y="244" on="1"/>
        <pt x="707" y="343" on="1"/>
        <pt x="592" y="337" on="0"/>
        <pt x="470" y="311" on="0"/>
        <pt x="443" y="283" on="1"/>
        <pt x="428" y="269" on="0"/>
        <pt x="419" y="238" on="0"/>
        <pt x="419" y="225" on="1"/>
        <pt x="419" y="188" on="0"/>
        <pt x="473" y="148" on="0"/>
      </contour>
    </TTGlyph>
    <TTGlyph name="at.cap" xMin="114" yMin="-81" xMax="1006" yMax="781">
      <component glyphName="at" x="0" y="30" flags="0x4"/>
    </TTGlyph>
    <TTGlyph name="atilde" xMin="90" yMin="-12" xMax="532" yMax="760">
      <component glyphName="a" x="0" y="0" flags="0x204"/>
      <component glyphName="tilde" x="79" y="13" flags="0x4"/>
    </TTGlyph>
    <TTGlyph name="atilde.sc" xMin="72" yMin="0" xMax="662" yMax="787">
      <component glyphName="a.sc" x="0" y="0" flags="0x204"/>
      <component glyphName="tilde" x="119" y="40" flags="0x4"/>
    </TTGlyph>
    <TTGlyph name="b" xMin="120" yMin="-13" xMax="621" yMax="738">
      <contour>
        <pt x="141" y="738" on="1"/>
        <pt x="141" y="424" on="1"/>
        <pt x="175" y="464" on="0"/>
        <pt x="292" y="533" on="0"/>
        <pt x="370" y="533" on="1"/>
        <pt x="426" y="533" on="0"/>
        <pt x="518" y="495" on="0"/>
        <pt x="584" y="427" on="0"/>
        <pt x="621" y="330" on="0"/>
        <pt x="621" y="273" on="1"/>
        <pt x="621" y="209" on="0"/>
        <pt x="579" y="103" on="0"/>
        <pt x="505" y="28" on="0"/>
        <pt x="402" y="-13" on="0"/>
        <pt x="342" y="-13" on="1"/>
        <pt x="281" y="-13" on="0"/>
        <pt x="189" y="20" on="0"/>
        <pt x="142" y="45" on="1"/>
        <pt x="120" y="45" on="1"/>
        <pt x="120" y="738" on="1"/>
      </contour>
      <contour>
        <pt x="370" y="514" on="1"/>
        <pt x="297" y="514" on="0"/>
        <pt x="178" y="443" on="0"/>
        <pt x="141" y="394" on="1"/>
        <pt x="141" y="71" on="1"/>
        <pt x="186" y="43" on="0"/>
        <pt x="283" y="6" on="0"/>
        <pt x="345" y="6" on="1"/>
        <pt x="399" y="6" on="0"/>
        <pt x="493" y="45" on="0"/>
        <pt x="560" y="114" on="0"/>
        <pt x="599" y="213" on="0"/>
        <pt x="599" y="272" on="1"/>
        <pt x="599" y="380" on="0"/>
        <pt x="471" y="514" on="0"/>
      </contour>
    </TTGlyph>
    <TTGlyph name="b.sc" xMin="142" yMin="0" xMax="643" yMax="560">
      <contour>
        <pt x="142" y="0" on="1"/>
        <pt x="142" y="560" on="1"/>
        <pt x="428" y="560" on="1"/>
        <pt x="536" y="560" on="0"/>
        <pt x="631" y="487" on="0"/>
        <pt x="631" y="421" on="1"/>
        <pt x="631" y="370" on="0"/>
        <pt x="567" y="301" on="0"/>
        <pt x="490" y="288" on="1"/>
        <pt x="566" y="276" on="0"/>
        <pt x="643" y="207" on="0"/>
        <pt x="643" y="150" on="1"/>
        <pt x="643" y="77" on="0"/>
        <pt x="537" y="0" on="0"/>
        <pt x="412" y="0" on="1"/>
      </contour>
      <contour>
        <pt x="164" y="298" on="1"/>
        <pt x="410" y="298" on="1"/>
        <pt x="511" y="298" on="0"/>
        <pt x="609" y="362" on="0"/>
        <pt x="609" y="422" on="1"/>
        <pt x="609" y="482" on="0"/>
        <pt x="523" y="540" on="0"/>
        <pt x="430" y="540" on="1"/>
        <pt x="164" y="540" on="1"/>
      </contour>
      <contour>
        <pt x="164" y="20" on="1"/>
        <pt x="413" y="20" on="1"/>
        <pt x="527" y="20" on="0"/>
        <pt x="621" y="87" on="0"/>
        <pt x="621" y="152" on="1"/>
        <pt x="621" y="215" on="0"/>
        <pt x="509" y="279" on="0"/>
        <pt x="411" y="279" on="1"/>
        <pt x="164" y="279" on="1"/>
      </contour>
    </TTGlyph>
    <TTGlyph name="backslash" xMin="80" yMin="-178" xMax="411" yMax="738">
      <contour>
        <pt x="411" y="-178" on="1"/>
        <pt x="388" y="-178" on="1"/>
        <pt x="80" y="738" on="1"/>
        <pt x="103" y="738" on="1"/>
      </contour>
    </TTGlyph>
    <TTGlyph name="backslash.cap" xMin="86" yMin="-108" xMax="417" yMax="808">
      <component glyphName="backslash" x="6" y="70" flags="0x4"/>
    </TTGlyph>
    <TTGlyph name="bar" xMin="250" yMin="-178" xMax="272" yMax="738">
      <contour>
        <pt x="250" y="-178" on="1"/>
        <pt x="250" y="738" on="1"/>
        <pt x="272" y="738" on="1"/>
        <pt x="272" y="-178" on="1"/>
      </contour>
    </TTGlyph>
    <TTGlyph name="bar.cap" xMin="250" yMin="-108" xMax="272" yMax="808">
      <component glyphName="bar" x="0" y="70" flags="0x4"/>
    </TTGlyph>
    <TTGlyph name="bar.tab" xMin="260" yMin="-108" xMax="282" yMax="808">
      <component glyphName="bar" x="10" y="70" flags="0x4"/>
    </TTGlyph>
    <TTGlyph name="braceleft" xMin="62" yMin="-186" xMax="439" yMax="746">
      <contour>
        <pt x="62" y="278" on="1"/>
        <pt x="62" y="282" on="1"/>
        <pt x="209" y="402" on="1"/>
        <pt x="202" y="449" on="0"/>
        <pt x="193" y="511" on="0"/>
        <pt x="189" y="551" on="0"/>
        <pt x="187" y="575" on="0"/>
        <pt x="187" y="584" on="1"/>
        <pt x="187" y="661" on="0"/>
        <pt x="269" y="746" on="0"/>
        <pt x="351" y="746" on="1"/>
        <pt x="372" y="746" on="0"/>
        <pt x="417" y="741" on="0"/>
        <pt x="439" y="735" on="1"/>
        <pt x="439" y="715" on="1"/>
        <pt x="438" y="715" on="1"/>
        <pt x="414" y="721" on="0"/>
        <pt x="370" y="726" on="0"/>
        <pt x="351" y="726" on="1"/>
        <pt x="282" y="726" on="0"/>
        <pt x="209" y="658" on="0"/>
        <pt x="209" y="586" on="1"/>
        <pt x="209" y="575" on="0"/>
        <pt x="211" y="551" on="0"/>
        <pt x="216" y="510" on="0"/>
        <pt x="225" y="444" on="0"/>
        <pt x="232" y="393" on="1"/>
        <pt x="93" y="280" on="1"/>
        <pt x="232" y="167" on="1"/>
        <pt x="225" y="116" on="0"/>
        <pt x="216" y="50" on="0"/>
        <pt x="211" y="9" on="0"/>
        <pt x="209" y="-15" on="0"/>
        <pt x="209" y="-26" on="1"/>
        <pt x="209" y="-98" on="0"/>
        <pt x="282" y="-166" on="0"/>
        <pt x="351" y="-166" on="1"/>
        <pt x="370" y="-166" on="0"/>
        <pt x="414" y="-161" on="0"/>
        <pt x="438" y="-155" on="1"/>
        <pt x="439" y="-155" on="1"/>
        <pt x="439" y="-175" on="1"/>
        <pt x="417" y="-181" on="0"/>
        <pt x="372" y="-186" on="0"/>
        <pt x="351" y="-186" on="1"/>
        <pt x="269" y="-186" on="0"/>
        <pt x="187" y="-101" on="0"/>
        <pt x="187" y="-24" on="1"/>
        <pt x="187" y="-15" on="0"/>
        <pt x="189" y="9" on="0"/>
        <pt x="193" y="49" on="0"/>
        <pt x="202" y="111" on="0"/>
        <pt x="209" y="158" on="1"/>
      </contour>
    </TTGlyph>
    <TTGlyph name="braceleft.cap" xMin="62" yMin="-116" xMax="439" yMax="816">
      <component glyphName="braceleft" x="0" y="70" flags="0x4"/>
    </TTGlyph>
    <TTGlyph name="braceright" xMin="96" yMin="-186" xMax="473" yMax="746">
      <contour>
        <pt x="473" y="282" on="1"/>
        <pt x="473" y="278" on="1"/>
        <pt x="326" y="158" on="1"/>
        <pt x="333" y="111" on="0"/>
        <pt x="342" y="49" on="0"/>
        <pt x="346" y="9" on="0"/>
        <pt x="348" y="-15" on="0"/>
        <pt x="348" y="-24" on="1"/>
        <pt x="348" y="-101" on="0"/>
        <pt x="266" y="-186" on="0"/>
        <pt x="184" y="-186" on="1"/>
        <pt x="163" y="-186" on="0"/>
        <pt x="118" y="-181" on="0"/>
        <pt x="96" y="-175" on="1"/>
        <pt x="96" y="-155" on="1"/>
        <pt x="97" y="-155" on="1"/>
        <pt x="121" y="-161" on="0"/>
        <pt x="165" y="-166" on="0"/>
        <pt x="184" y="-166" on="1"/>
        <pt x="253" y="-166" on="0"/>
        <pt x="326" y="-98" on="0"/>
        <pt x="326" y="-26" on="1"/>
        <pt x="326" y="-15" on="0"/>
        <pt x="324" y="9" on="0"/>
        <pt x="319" y="50" on="0"/>
        <pt x="310" y="116" on="0"/>
        <pt x="303" y="167" on="1"/>
        <pt x="442" y="280" on="1"/>
        <pt x="303" y="393" on="1"/>
        <pt x="310" y="444" on="0"/>
        <pt x="319" y="510" on="0"/>
        <pt x="324" y="551" on="0"/>
        <pt x="326" y="575" on="0"/>
        <pt x="326" y="586" on="1"/>
        <pt x="326" y="658" on="0"/>
        <pt x="253" y="726" on="0"/>
        <pt x="184" y="726" on="1"/>
        <pt x="165" y="726" on="0"/>
        <pt x="121" y="721" on="0"/>
        <pt x="97" y="715" on="1"/>
        <pt x="96" y="715" on="1"/>
        <pt x="96" y="735" on="1"/>
        <pt x="118" y="741" on="0"/>
        <pt x="163" y="746" on="0"/>
        <pt x="184" y="746" on="1"/>
        <pt x="266" y="746" on="0"/>
        <pt x="348" y="661" on="0"/>
        <pt x="348" y="584" on="1"/>
        <pt x="348" y="575" on="0"/>
        <pt x="346" y="551" on="0"/>
        <pt x="342" y="511" on="0"/>
        <pt x="333" y="449" on="0"/>
        <pt x="326" y="402" on="1"/>
      </contour>
    </TTGlyph>
    <TTGlyph name="braceright.cap" xMin="96" yMin="-116" xMax="473" yMax="816">
      <component glyphName="braceright" x="0" y="70" flags="0x4"/>
    </TTGlyph>
    <TTGlyph name="bracketleft" xMin="136" yMin="-178" xMax="377" yMax="738">
      <contour>
        <pt x="136" y="-178" on="1"/>
        <pt x="136" y="738" on="1"/>
        <pt x="377" y="738" on="1"/>
        <pt x="377" y="718" on="1"/>
        <pt x="158" y="718" on="1"/>
        <pt x="158" y="-158" on="1"/>
        <pt x="377" y="-158" on="1"/>
        <pt x="377" y="-178" on="1"/>
      </contour>
    </TTGlyph>
    <TTGlyph name="bracketleft.cap" xMin="136" yMin="-108" xMax="377" yMax="808">
      <component glyphName="bracketleft" x="0" y="70" flags="0x4"/>
    </TTGlyph>
    <TTGlyph name="bracketright" xMin="96" yMin="-178" xMax="337" yMax="738">
      <contour>
        <pt x="337" y="738" on="1"/>
        <pt x="337" y="-178" on="1"/>
        <pt x="96" y="-178" on="1"/>
        <pt x="96" y="-158" on="1"/>
        <pt x="315" y="-158" on="1"/>
        <pt x="315" y="718" on="1"/>
        <pt x="96" y="718" on="1"/>
        <pt x="96" y="738" on="1"/>
      </contour>
    </TTGlyph>
    <TTGlyph name="bracketright.cap" xMin="96" yMin="-108" xMax="337" yMax="808">
      <component glyphName="bracketright" x="0" y="70" flags="0x4"/>
    </TTGlyph>
    <TTGlyph name="breve" xMin="95" yMin="641" xMax="405" yMax="813">
      <contour>
        <pt x="250" y="641" on="1"/>
        <pt x="185" y="641" on="0"/>
        <pt x="95" y="707" on="0"/>
        <pt x="95" y="775" on="1"/>
        <pt x="95" y="785" on="0"/>
        <pt x="97" y="803" on="0"/>
        <pt x="99" y="813" on="1"/>
        <pt x="120" y="813" on="1"/>
        <pt x="118" y="801" on="0"/>
        <pt x="116" y="784" on="0"/>
        <pt x="116" y="776" on="1"/>
        <pt x="116" y="715" on="0"/>
        <pt x="197" y="660" on="0"/>
        <pt x="250" y="660" on="1"/>
        <pt x="303" y="660" on="0"/>
        <pt x="384" y="715" on="0"/>
        <pt x="384" y="776" on="1"/>
        <pt x="384" y="784" on="0"/>
        <pt x="382" y="801" on="0"/>
        <pt x="380" y="813" on="1"/>
        <pt x="401" y="813" on="1"/>
        <pt x="403" y="803" on="0"/>
        <pt x="405" y="785" on="0"/>
        <pt x="405" y="775" on="1"/>
        <pt x="405" y="707" on="0"/>
        <pt x="315" y="641" on="0"/>
      </contour>
    </TTGlyph>
    <TTGlyph name="bullet" xMin="121" yMin="260" xMax="235" yMax="364">
      <contour>
        <pt x="177" y="260" on="1"/>
        <pt x="152" y="260" on="0"/>
        <pt x="121" y="291" on="0"/>
        <pt x="121" y="312" on="1"/>
        <pt x="121" y="333" on="0"/>
        <pt x="152" y="364" on="0"/>
        <pt x="177" y="364" on="1"/>
        <pt x="204" y="364" on="0"/>
        <pt x="235" y="333" on="0"/>
        <pt x="235" y="312" on="1"/>
        <pt x="235" y="291" on="0"/>
        <pt x="204" y="260" on="0"/>
      </contour>
    </TTGlyph>
    <TTGlyph name="bullet.cap" xMin="121" yMin="298" xMax="235" yMax="402">
      <component glyphName="bullet" x="0" y="38" flags="0x4"/>
    </TTGlyph>
    <TTGlyph name="c" xMin="74" yMin="-11" xMax="546" yMax="531">
      <contour>
        <pt x="349" y="-11" on="1"/>
        <pt x="223" y="-11" on="0"/>
        <pt x="74" y="135" on="0"/>
        <pt x="74" y="260" on="1"/>
        <pt x="74" y="320" on="0"/>
        <pt x="114" y="420" on="0"/>
        <pt x="187" y="491" on="0"/>
        <pt x="291" y="531" on="0"/>
        <pt x="353" y="531" on="1"/>
        <pt x="402" y="531" on="0"/>
        <pt x="501" y="501" on="0"/>
        <pt x="546" y="468" on="1"/>
        <pt x="546" y="444" on="1"/>
        <pt x="545" y="444" on="1"/>
        <pt x="494" y="483" on="0"/>
        <pt x="399" y="512" on="0"/>
        <pt x="353" y="512" on="1"/>
        <pt x="296" y="512" on="0"/>
        <pt x="200" y="474" on="0"/>
        <pt x="133" y="408" on="0"/>
        <pt x="96" y="315" on="0"/>
        <pt x="96" y="260" on="1"/>
        <pt x="96" y="144" on="0"/>
        <pt x="233" y="8" on="0"/>
        <pt x="349" y="8" on="1"/>
        <pt x="394" y="8" on="0"/>
        <pt x="494" y="37" on="0"/>
        <pt x="545" y="76" on="1"/>
        <pt x="546" y="76" on="1"/>
        <pt x="546" y="52" on="1"/>
        <pt x="501" y="19" on="0"/>
        <pt x="397" y="-11" on="0"/>
      </contour>
    </TTGlyph>
    <TTGlyph name="c.sc" xMin="88" yMin="-10" xMax="632" yMax="570">
      <contour>
        <pt x="392" y="-10" on="1"/>
        <pt x="320" y="-10" on="0"/>
        <pt x="206" y="33" on="0"/>
        <pt x="129" y="109" on="0"/>
        <pt x="88" y="217" on="0"/>
        <pt x="88" y="280" on="1"/>
        <pt x="88" y="343" on="0"/>
        <pt x="132" y="450" on="0"/>
        <pt x="212" y="526" on="0"/>
        <pt x="327" y="570" on="0"/>
        <pt x="396" y="570" on="1"/>
        <pt x="471" y="570" on="0"/>
        <pt x="592" y="523" on="0"/>
        <pt x="632" y="489" on="1"/>
        <pt x="632" y="462" on="1"/>
        <pt x="631" y="462" on="1"/>
        <pt x="583" y="502" on="0"/>
        <pt x="465" y="549" on="0"/>
        <pt x="396" y="549" on="1"/>
        <pt x="330" y="549" on="0"/>
        <pt x="224" y="508" on="0"/>
        <pt x="150" y="436" on="0"/>
        <pt x="110" y="337" on="0"/>
        <pt x="110" y="280" on="1"/>
        <pt x="110" y="222" on="0"/>
        <pt x="147" y="123" on="0"/>
        <pt x="217" y="51" on="0"/>
        <pt x="323" y="11" on="0"/>
        <pt x="392" y="11" on="1"/>
        <pt x="461" y="11" on="0"/>
        <pt x="583" y="58" on="0"/>
        <pt x="631" y="98" on="1"/>
        <pt x="632" y="98" on="1"/>
        <pt x="632" y="71" on="1"/>
        <pt x="592" y="37" on="0"/>
        <pt x="467" y="-10" on="0"/>
      </contour>
    </TTGlyph>
    <TTGlyph name="cacute" xMin="74" yMin="-11" xMax="546" yMax="824">
      <component glyphName="c" x="0" y="0" flags="0x204"/>
      <component glyphName="acute" x="154" y="11" flags="0x4"/>
    </TTGlyph>
    <TTGlyph name="cacute.sc" xMin="88" yMin="-10" xMax="632" yMax="863">
      <component glyphName="c.sc" x="0" y="0" flags="0x204"/>
      <component glyphName="acute" x="200" y="50" flags="0x4"/>
    </TTGlyph>
    <TTGlyph name="caron" xMin="79" yMin="649" xMax="421" yMax="813">
      <contour>
        <pt x="421" y="813" on="1"/>
        <pt x="280" y="649" on="1"/>
        <pt x="220" y="649" on="1"/>
        <pt x="79" y="813" on="1"/>
        <pt x="105" y="813" on="1"/>
        <pt x="229" y="669" on="1"/>
        <pt x="271" y="669" on="1"/>
        <pt x="395" y="813" on="1"/>
      </contour>
    </TTGlyph>
    <TTGlyph name="caron.alt" xMin="189" yMin="630" xMax="213" yMax="797">
      <contour>
        <pt x="189" y="630" on="1"/>
        <pt x="189" y="797" on="1"/>
        <pt x="213" y="797" on="1"/>
        <pt x="205" y="630" on="1"/>
      </contour>
    </TTGlyph>
    <TTGlyph name="ccaron" xMin="74" yMin="-11" xMax="546" yMax="824">
      <component glyphName="c" x="0" y="0" flags="0x204"/>
      <component glyphName="caron" x="101" y="11" flags="0x4"/>
    </TTGlyph>
    <TTGlyph name="ccaron.sc" xMin="88" yMin="-10" xMax="632" yMax="863">
      <component glyphName="c.sc" x="0" y="0" flags="0x204"/>
      <component glyphName="caron" x="147" y="50" flags="0x4"/>
    </TTGlyph>
    <TTGlyph name="ccedilla" xMin="74" yMin="-196" xMax="546" yMax="531">
      <contour>
        <pt x="546" y="52" on="1"/>
        <pt x="506" y="22" on="0"/>
        <pt x="411" y="-8" on="0"/>
        <pt x="367" y="-10" on="1"/>
        <pt x="224" y="-196" on="1"/>
        <pt x="191" y="-196" on="1"/>
        <pt x="346" y="-11" on="1"/>
        <pt x="221" y="-10" on="0"/>
        <pt x="74" y="135" on="0"/>
        <pt x="74" y="260" on="1"/>
        <pt x="74" y="320" on="0"/>
        <pt x="114" y="420" on="0"/>
        <pt x="187" y="491" on="0"/>
        <pt x="291" y="531" on="0"/>
        <pt x="353" y="531" on="1"/>
        <pt x="402" y="531" on="0"/>
        <pt x="501" y="501" on="0"/>
        <pt x="546" y="468" on="1"/>
        <pt x="546" y="444" on="1"/>
        <pt x="545" y="444" on="1"/>
        <pt x="494" y="483" on="0"/>
        <pt x="399" y="512" on="0"/>
        <pt x="353" y="512" on="1"/>
        <pt x="296" y="512" on="0"/>
        <pt x="200" y="474" on="0"/>
        <pt x="133" y="408" on="0"/>
        <pt x="96" y="315" on="0"/>
        <pt x="96" y="260" on="1"/>
        <pt x="96" y="144" on="0"/>
        <pt x="233" y="8" on="0"/>
        <pt x="349" y="8" on="1"/>
        <pt x="394" y="8" on="0"/>
        <pt x="494" y="37" on="0"/>
        <pt x="545" y="76" on="1"/>
        <pt x="546" y="76" on="1"/>
      </contour>
    </TTGlyph>
    <TTGlyph name="ccedilla.sc" xMin="88" yMin="-196" xMax="632" yMax="570">
      <contour>
        <pt x="392" y="-10" on="1"/>
        <pt x="320" y="-10" on="0"/>
        <pt x="206" y="33" on="0"/>
        <pt x="129" y="109" on="0"/>
        <pt x="88" y="217" on="0"/>
        <pt x="88" y="280" on="1"/>
        <pt x="88" y="343" on="0"/>
        <pt x="132" y="450" on="0"/>
        <pt x="212" y="526" on="0"/>
        <pt x="327" y="570" on="0"/>
        <pt x="396" y="570" on="1"/>
        <pt x="471" y="570" on="0"/>
        <pt x="592" y="523" on="0"/>
        <pt x="632" y="489" on="1"/>
        <pt x="632" y="462" on="1"/>
        <pt x="631" y="462" on="1"/>
        <pt x="583" y="502" on="0"/>
        <pt x="465" y="549" on="0"/>
        <pt x="396" y="549" on="1"/>
        <pt x="330" y="549" on="0"/>
        <pt x="224" y="508" on="0"/>
        <pt x="150" y="436" on="0"/>
        <pt x="110" y="337" on="0"/>
        <pt x="110" y="280" on="1"/>
        <pt x="110" y="222" on="0"/>
        <pt x="147" y="123" on="0"/>
        <pt x="217" y="51" on="0"/>
        <pt x="323" y="11" on="0"/>
        <pt x="392" y="11" on="1"/>
        <pt x="461" y="11" on="0"/>
        <pt x="583" y="58" on="0"/>
        <pt x="631" y="98" on="1"/>
        <pt x="632" y="98" on="1"/>
        <pt x="632" y="71" on="1"/>
        <pt x="596" y="41" on="0"/>
        <pt x="489" y="-4" on="0"/>
        <pt x="424" y="-9" on="1"/>
        <pt x="280" y="-196" on="1"/>
        <pt x="247" y="-196" on="1"/>
        <pt x="402" y="-10" on="1"/>
        <pt x="400" y="-10" on="0"/>
        <pt x="394" y="-10" on="0"/>
      </contour>
    </TTGlyph>
    <TTGlyph name="cdotaccent" xMin="74" yMin="-11" xMax="546" yMax="713">
      <component glyphName="c" x="0" y="0" flags="0x204"/>
      <component glyphName="dotaccent" x="101" y="11" flags="0x4"/>
    </TTGlyph>
    <TTGlyph name="cdotaccent.sc" xMin="88" yMin="-10" xMax="632" yMax="752">
      <component glyphName="c.sc" x="0" y="0" flags="0x204"/>
      <component glyphName="dotaccent" x="147" y="50" flags="0x4"/>
    </TTGlyph>
    <TTGlyph name="cedilla" xMin="113" yMin="-198" xMax="291" yMax="-10">
      <contour>
        <pt x="291" y="-10" on="1"/>
        <pt x="146" y="-198" on="1"/>
        <pt x="113" y="-198" on="1"/>
        <pt x="270" y="-10" on="1"/>
      </contour>
    </TTGlyph>
    <TTGlyph name="cent" xMin="86" yMin="-29" xMax="519" yMax="706">
      <contour>
        <pt x="330" y="-29" on="1"/>
        <pt x="330" y="117" on="1"/>
        <pt x="220" y="119" on="0"/>
        <pt x="86" y="244" on="0"/>
        <pt x="86" y="348" on="1"/>
        <pt x="86" y="398" on="0"/>
        <pt x="122" y="483" on="0"/>
        <pt x="187" y="545" on="0"/>
        <pt x="277" y="582" on="0"/>
        <pt x="330" y="583" on="1"/>
        <pt x="330" y="706" on="1"/>
        <pt x="351" y="706" on="1"/>
        <pt x="351" y="583" on="1"/>
        <pt x="395" y="582" on="0"/>
        <pt x="480" y="559" on="0"/>
        <pt x="519" y="535" on="1"/>
        <pt x="519" y="512" on="1"/>
        <pt x="518" y="512" on="1"/>
        <pt x="472" y="542" on="0"/>
        <pt x="379" y="564" on="0"/>
        <pt x="339" y="564" on="1"/>
        <pt x="290" y="564" on="0"/>
        <pt x="205" y="533" on="0"/>
        <pt x="143" y="477" on="0"/>
        <pt x="108" y="398" on="0"/>
        <pt x="108" y="350" on="1"/>
        <pt x="108" y="251" on="0"/>
        <pt x="234" y="136" on="0"/>
        <pt x="337" y="136" on="1"/>
        <pt x="378" y="136" on="0"/>
        <pt x="469" y="157" on="0"/>
        <pt x="516" y="188" on="1"/>
        <pt x="517" y="188" on="1"/>
        <pt x="517" y="165" on="1"/>
        <pt x="478" y="142" on="0"/>
        <pt x="394" y="118" on="0"/>
        <pt x="351" y="117" on="1"/>
        <pt x="351" y="-26" on="1"/>
      </contour>
    </TTGlyph>
    <TTGlyph name="cent.tab" xMin="138" yMin="-29" xMax="579" yMax="706">
      <contour>
        <pt x="386" y="-29" on="1"/>
        <pt x="386" y="113" on="1"/>
        <pt x="273" y="115" on="0"/>
        <pt x="138" y="241" on="0"/>
        <pt x="138" y="348" on="1"/>
        <pt x="138" y="450" on="0"/>
        <pt x="276" y="584" on="0"/>
        <pt x="386" y="587" on="1"/>
        <pt x="386" y="706" on="1"/>
        <pt x="407" y="706" on="1"/>
        <pt x="407" y="587" on="1"/>
        <pt x="453" y="586" on="0"/>
        <pt x="539" y="563" on="0"/>
        <pt x="579" y="539" on="1"/>
        <pt x="579" y="516" on="1"/>
        <pt x="578" y="516" on="1"/>
        <pt x="532" y="546" on="0"/>
        <pt x="438" y="568" on="0"/>
        <pt x="395" y="568" on="1"/>
        <pt x="345" y="568" on="0"/>
        <pt x="258" y="537" on="0"/>
        <pt x="196" y="480" on="0"/>
        <pt x="160" y="399" on="0"/>
        <pt x="160" y="350" on="1"/>
        <pt x="160" y="249" on="0"/>
        <pt x="287" y="132" on="0"/>
        <pt x="393" y="132" on="1"/>
        <pt x="437" y="132" on="0"/>
        <pt x="529" y="153" on="0"/>
        <pt x="576" y="184" on="1"/>
        <pt x="577" y="184" on="1"/>
        <pt x="577" y="161" on="1"/>
        <pt x="538" y="137" on="0"/>
        <pt x="453" y="114" on="0"/>
        <pt x="407" y="113" on="1"/>
        <pt x="407" y="-26" on="1"/>
      </contour>
    </TTGlyph>
    <TTGlyph name="circle.checked" xMin="126" yMin="-46" xMax="952" yMax="746">
      <contour>
        <pt x="539" y="-46" on="1"/>
        <pt x="445" y="-46" on="0"/>
        <pt x="291" y="11" on="0"/>
        <pt x="184" y="113" on="0"/>
        <pt x="126" y="260" on="0"/>
        <pt x="126" y="350" on="1"/>
        <pt x="126" y="439" on="0"/>
        <pt x="184" y="586" on="0"/>
        <pt x="291" y="689" on="0"/>
        <pt x="445" y="746" on="0"/>
        <pt x="539" y="746" on="1"/>
        <pt x="634" y="746" on="0"/>
        <pt x="787" y="689" on="0"/>
        <pt x="894" y="587" on="0"/>
        <pt x="952" y="440" on="0"/>
        <pt x="952" y="350" on="1"/>
        <pt x="952" y="261" on="0"/>
        <pt x="894" y="114" on="0"/>
        <pt x="787" y="11" on="0"/>
        <pt x="633" y="-46" on="0"/>
      </contour>
      <contour>
        <pt x="539" y="-26" on="1"/>
        <pt x="629" y="-26" on="0"/>
        <pt x="774" y="28" on="0"/>
        <pt x="875" y="126" on="0"/>
        <pt x="930" y="265" on="0"/>
        <pt x="930" y="350" on="1"/>
        <pt x="930" y="435" on="0"/>
        <pt x="875" y="575" on="0"/>
        <pt x="774" y="672" on="0"/>
        <pt x="629" y="726" on="0"/>
        <pt x="539" y="726" on="1"/>
        <pt x="449" y="726" on="0"/>
        <pt x="304" y="672" on="0"/>
        <pt x="203" y="574" on="0"/>
        <pt x="148" y="435" on="0"/>
        <pt x="148" y="350" on="1"/>
        <pt x="148" y="265" on="0"/>
        <pt x="203" y="125" on="0"/>
        <pt x="304" y="28" on="0"/>
        <pt x="449" y="-26" on="0"/>
      </contour>
      <contour>
        <pt x="539" y="186" on="1"/>
        <pt x="463" y="186" on="0"/>
        <pt x="375" y="275" on="0"/>
        <pt x="375" y="350" on="1"/>
        <pt x="375" y="425" on="0"/>
        <pt x="463" y="514" on="0"/>
        <pt x="539" y="514" on="1"/>
        <pt x="617" y="514" on="0"/>
        <pt x="703" y="425" on="0"/>
        <pt x="703" y="350" on="1"/>
        <pt x="703" y="275" on="0"/>
        <pt x="617" y="186" on="0"/>
      </contour>
    </TTGlyph>
    <TTGlyph name="circle.half" xMin="126" yMin="-46" xMax="952" yMax="746">
      <contour>
        <pt x="539" y="-46" on="1"/>
        <pt x="445" y="-46" on="0"/>
        <pt x="291" y="11" on="0"/>
        <pt x="184" y="113" on="0"/>
        <pt x="126" y="260" on="0"/>
        <pt x="126" y="350" on="1"/>
        <pt x="126" y="439" on="0"/>
        <pt x="184" y="586" on="0"/>
        <pt x="291" y="689" on="0"/>
        <pt x="445" y="746" on="0"/>
        <pt x="539" y="746" on="1"/>
        <pt x="634" y="746" on="0"/>
        <pt x="787" y="689" on="0"/>
        <pt x="894" y="587" on="0"/>
        <pt x="952" y="440" on="0"/>
        <pt x="952" y="350" on="1"/>
        <pt x="952" y="261" on="0"/>
        <pt x="894" y="114" on="0"/>
        <pt x="787" y="11" on="0"/>
        <pt x="633" y="-46" on="0"/>
      </contour>
      <contour>
        <pt x="539" y="-26" on="1"/>
        <pt x="629" y="-26" on="0"/>
        <pt x="774" y="28" on="0"/>
        <pt x="875" y="126" on="0"/>
        <pt x="930" y="265" on="0"/>
        <pt x="930" y="350" on="1"/>
        <pt x="930" y="435" on="0"/>
        <pt x="875" y="575" on="0"/>
        <pt x="774" y="672" on="0"/>
        <pt x="629" y="726" on="0"/>
        <pt x="539" y="726" on="1"/>
      </contour>
    </TTGlyph>
    <TTGlyph name="circle.open" xMin="126" yMin="-46" xMax="952" yMax="746">
      <contour>
        <pt x="539" y="-46" on="1"/>
        <pt x="445" y="-46" on="0"/>
        <pt x="291" y="11" on="0"/>
        <pt x="184" y="113" on="0"/>
        <pt x="126" y="260" on="0"/>
        <pt x="126" y="350" on="1"/>
        <pt x="126" y="439" on="0"/>
        <pt x="184" y="586" on="0"/>
        <pt x="291" y="689" on="0"/>
        <pt x="445" y="746" on="0"/>
        <pt x="539" y="746" on="1"/>
        <pt x="634" y="746" on="0"/>
        <pt x="787" y="689" on="0"/>
        <pt x="894" y="587" on="0"/>
        <pt x="952" y="440" on="0"/>
        <pt x="952" y="350" on="1"/>
        <pt x="952" y="261" on="0"/>
        <pt x="894" y="114" on="0"/>
        <pt x="787" y="11" on="0"/>
        <pt x="633" y="-46" on="0"/>
      </contour>
      <contour>
        <pt x="539" y="-26" on="1"/>
        <pt x="629" y="-26" on="0"/>
        <pt x="774" y="28" on="0"/>
        <pt x="875" y="126" on="0"/>
        <pt x="930" y="265" on="0"/>
        <pt x="930" y="350" on="1"/>
        <pt x="930" y="435" on="0"/>
        <pt x="875" y="575" on="0"/>
        <pt x="774" y="672" on="0"/>
        <pt x="629" y="726" on="0"/>
        <pt x="539" y="726" on="1"/>
        <pt x="449" y="726" on="0"/>
        <pt x="304" y="672" on="0"/>
        <pt x="203" y="574" on="0"/>
        <pt x="148" y="435" on="0"/>
        <pt x="148" y="350" on="1"/>
        <pt x="148" y="265" on="0"/>
        <pt x="203" y="125" on="0"/>
        <pt x="304" y="28" on="0"/>
        <pt x="449" y="-26" on="0"/>
      </contour>
    </TTGlyph>
    <TTGlyph name="circle.solid" xMin="126" yMin="-46" xMax="952" yMax="746">
      <contour>
        <pt x="539" y="-46" on="1"/>
        <pt x="445" y="-46" on="0"/>
        <pt x="291" y="11" on="0"/>
        <pt x="184" y="113" on="0"/>
        <pt x="126" y="260" on="0"/>
        <pt x="126" y="350" on="1"/>
        <pt x="126" y="439" on="0"/>
        <pt x="184" y="586" on="0"/>
        <pt x="291" y="689" on="0"/>
        <pt x="445" y="746" on="0"/>
        <pt x="539" y="746" on="1"/>
        <pt x="634" y="746" on="0"/>
        <pt x="787" y="689" on="0"/>
        <pt x="894" y="587" on="0"/>
        <pt x="952" y="440" on="0"/>
        <pt x="952" y="350" on="1"/>
        <pt x="952" y="261" on="0"/>
        <pt x="894" y="114" on="0"/>
        <pt x="787" y="11" on="0"/>
        <pt x="633" y="-46" on="0"/>
      </contour>
    </TTGlyph>
    <TTGlyph name="circumflex" xMin="79" yMin="649" xMax="421" yMax="813">
      <contour>
        <pt x="79" y="649" on="1"/>
        <pt x="220" y="813" on="1"/>
        <pt x="280" y="813" on="1"/>
        <pt x="421" y="649" on="1"/>
        <pt x="395" y="649" on="1"/>
        <pt x="271" y="793" on="1"/>
        <pt x="229" y="793" on="1"/>
        <pt x="105" y="649" on="1"/>
      </contour>
    </TTGlyph>
    <TTGlyph name="colon" xMin="121" yMin="-13" xMax="178" yMax="399">
      <contour>
        <pt x="149" y="347" on="1"/>
        <pt x="136" y="347" on="0"/>
        <pt x="121" y="363" on="0"/>
        <pt x="121" y="373" on="1"/>
        <pt x="121" y="383" on="0"/>
        <pt x="136" y="399" on="0"/>
        <pt x="149" y="399" on="1"/>
        <pt x="162" y="399" on="0"/>
        <pt x="178" y="383" on="0"/>
        <pt x="178" y="373" on="1"/>
        <pt x="178" y="363" on="0"/>
        <pt x="162" y="347" on="0"/>
      </contour>
      <contour>
        <pt x="149" y="-13" on="1"/>
        <pt x="136" y="-13" on="0"/>
        <pt x="121" y="3" on="0"/>
        <pt x="121" y="13" on="1"/>
        <pt x="121" y="23" on="0"/>
        <pt x="136" y="39" on="0"/>
        <pt x="149" y="39" on="1"/>
        <pt x="162" y="39" on="0"/>
        <pt x="178" y="23" on="0"/>
        <pt x="178" y="13" on="1"/>
        <pt x="178" y="3" on="0"/>
        <pt x="162" y="-13" on="0"/>
      </contour>
    </TTGlyph>
    <TTGlyph name="colon.fig" xMin="121" yMin="144" xMax="178" yMax="556">
      <component glyphName="colon" x="0" y="157" flags="0x4"/>
    </TTGlyph>
    <TTGlyph name="colon.tab" xMin="153" yMin="-13" xMax="210" yMax="399">
      <component glyphName="colon" x="32" y="0" flags="0x4"/>
    </TTGlyph>
    <TTGlyph name="colonmonetary" xMin="120" yMin="-108" xMax="707" yMax="805">
      <contour>
        <pt x="248" y="-108" on="1"/>
        <pt x="290" y="44" on="1"/>
        <pt x="210" y="84" on="0"/>
        <pt x="120" y="236" on="0"/>
        <pt x="120" y="335" on="1"/>
        <pt x="120" y="411" on="0"/>
        <pt x="171" y="542" on="0"/>
        <pt x="262" y="637" on="0"/>
        <pt x="390" y="692" on="0"/>
        <pt x="466" y="693" on="1"/>
        <pt x="497" y="805" on="1"/>
        <pt x="519" y="805" on="1"/>
        <pt x="488" y="693" on="1"/>
        <pt x="526" y="692" on="0"/>
        <pt x="608" y="674" on="0"/>
        <pt x="645" y="658" on="1"/>
        <pt x="685" y="805" on="1"/>
        <pt x="707" y="805" on="1"/>
        <pt x="494" y="28" on="1"/>
        <pt x="536" y="31" on="0"/>
        <pt x="617" y="53" on="0"/>
        <pt x="655" y="71" on="1"/>
        <pt x="656" y="71" on="1"/>
        <pt x="656" y="48" on="1"/>
        <pt x="615" y="30" on="0"/>
        <pt x="532" y="10" on="0"/>
        <pt x="489" y="8" on="1"/>
        <pt x="457" y="-108" on="1"/>
        <pt x="436" y="-108" on="1"/>
        <pt x="467" y="7" on="1"/>
        <pt x="463" y="7" on="1"/>
        <pt x="420" y="7" on="0"/>
        <pt x="342" y="22" on="0"/>
        <pt x="308" y="36" on="1"/>
        <pt x="268" y="-108" on="1"/>
      </contour>
      <contour>
        <pt x="464" y="27" on="1"/>
        <pt x="466" y="27" on="0"/>
        <pt x="471" y="27" on="0"/>
        <pt x="473" y="27" on="1"/>
        <pt x="639" y="638" on="1"/>
        <pt x="604" y="654" on="0"/>
        <pt x="521" y="672" on="0"/>
        <pt x="483" y="673" on="1"/>
        <pt x="313" y="57" on="1"/>
        <pt x="346" y="42" on="0"/>
        <pt x="421" y="27" on="0"/>
      </contour>
      <contour>
        <pt x="142" y="337" on="1"/>
        <pt x="142" y="244" on="0"/>
        <pt x="223" y="103" on="0"/>
        <pt x="295" y="65" on="1"/>
        <pt x="461" y="673" on="1"/>
        <pt x="391" y="671" on="0"/>
        <pt x="273" y="618" on="0"/>
        <pt x="189" y="529" on="0"/>
        <pt x="142" y="407" on="0"/>
      </contour>
    </TTGlyph>
    <TTGlyph name="comma" xMin="64" yMin="-179" xMax="168" yMax="76">
      <contour>
        <pt x="64" y="-179" on="1"/>
        <pt x="136" y="76" on="1"/>
        <pt x="168" y="76" on="1"/>
        <pt x="85" y="-179" on="1"/>
      </contour>
    </TTGlyph>
    <TTGlyph name="comma.tab" xMin="114" yMin="-179" xMax="218" yMax="76">
      <component glyphName="comma" x="50" y="0" flags="0x4"/>
    </TTGlyph>
    <TTGlyph name="copyright" xMin="68" yMin="-45" xMax="902" yMax="745">
      <contour>
        <pt x="485" y="-45" on="1"/>
        <pt x="390" y="-45" on="0"/>
        <pt x="235" y="11" on="0"/>
        <pt x="127" y="113" on="0"/>
        <pt x="68" y="260" on="0"/>
        <pt x="68" y="350" on="1"/>
        <pt x="68" y="440" on="0"/>
        <pt x="127" y="587" on="0"/>
        <pt x="235" y="689" on="0"/>
        <pt x="390" y="745" on="0"/>
        <pt x="485" y="745" on="1"/>
        <pt x="580" y="745" on="0"/>
        <pt x="735" y="689" on="0"/>
        <pt x="843" y="587" on="0"/>
        <pt x="902" y="440" on="0"/>
        <pt x="902" y="350" on="1"/>
        <pt x="902" y="260" on="0"/>
        <pt x="843" y="113" on="0"/>
        <pt x="735" y="11" on="0"/>
        <pt x="580" y="-45" on="0"/>
      </contour>
      <contour>
        <pt x="485" y="-25" on="1"/>
        <pt x="576" y="-25" on="0"/>
        <pt x="723" y="29" on="0"/>
        <pt x="825" y="127" on="0"/>
        <pt x="880" y="266" on="0"/>
        <pt x="880" y="350" on="1"/>
        <pt x="880" y="434" on="0"/>
        <pt x="825" y="573" on="0"/>
        <pt x="723" y="671" on="0"/>
        <pt x="576" y="725" on="0"/>
        <pt x="485" y="725" on="1"/>
        <pt x="394" y="725" on="0"/>
        <pt x="247" y="671" on="0"/>
        <pt x="145" y="573" on="0"/>
        <pt x="90" y="434" on="0"/>
        <pt x="90" y="350" on="1"/>
        <pt x="90" y="266" on="0"/>
        <pt x="145" y="127" on="0"/>
        <pt x="247" y="29" on="0"/>
        <pt x="394" y="-25" on="0"/>
      </contour>
      <contour>
        <pt x="496" y="165" on="1"/>
        <pt x="406" y="165" on="0"/>
        <pt x="299" y="270" on="0"/>
        <pt x="299" y="352" on="1"/>
        <pt x="299" y="434" on="0"/>
        <pt x="410" y="543" on="0"/>
        <pt x="497" y="543" on="1"/>
        <pt x="538" y="543" on="0"/>
        <pt x="614" y="518" on="0"/>
        <pt x="642" y="494" on="1"/>
        <pt x="642" y="469" on="1"/>
        <pt x="641" y="469" on="1"/>
        <pt x="612" y="494" on="0"/>
        <pt x="538" y="523" on="0"/>
        <pt x="496" y="523" on="1"/>
        <pt x="418" y="523" on="0"/>
        <pt x="321" y="426" on="0"/>
        <pt x="321" y="352" on="1"/>
        <pt x="321" y="277" on="0"/>
        <pt x="416" y="185" on="0"/>
        <pt x="497" y="185" on="1"/>
        <pt x="544" y="185" on="0"/>
        <pt x="614" y="216" on="0"/>
        <pt x="643" y="241" on="1"/>
        <pt x="644" y="241" on="1"/>
        <pt x="644" y="216" on="1"/>
        <pt x="615" y="191" on="0"/>
        <pt x="543" y="165" on="0"/>
      </contour>
    </TTGlyph>
    <TTGlyph name="d" xMin="74" yMin="-13" xMax="575" yMax="738">
      <contour>
        <pt x="575" y="738" on="1"/>
        <pt x="575" y="0" on="1"/>
        <pt x="554" y="0" on="1"/>
        <pt x="554" y="97" on="1"/>
        <pt x="538" y="78" on="0"/>
        <pt x="491" y="39" on="0"/>
        <pt x="432" y="7" on="0"/>
        <pt x="362" y="-13" on="0"/>
        <pt x="323" y="-13" on="1"/>
        <pt x="272" y="-13" on="0"/>
        <pt x="180" y="23" on="0"/>
        <pt x="113" y="92" on="0"/>
        <pt x="74" y="194" on="0"/>
        <pt x="74" y="260" on="1"/>
        <pt x="74" y="315" on="0"/>
        <pt x="114" y="415" on="0"/>
        <pt x="184" y="489" on="0"/>
        <pt x="284" y="533" on="0"/>
        <pt x="343" y="533" on="1"/>
        <pt x="415" y="533" on="0"/>
        <pt x="518" y="480" on="0"/>
        <pt x="554" y="441" on="1"/>
        <pt x="554" y="738" on="1"/>
      </contour>
      <contour>
        <pt x="343" y="514" on="1"/>
        <pt x="288" y="514" on="0"/>
        <pt x="197" y="473" on="0"/>
        <pt x="132" y="404" on="0"/>
        <pt x="96" y="311" on="0"/>
        <pt x="96" y="260" on="1"/>
        <pt x="96" y="196" on="0"/>
        <pt x="133" y="100" on="0"/>
        <pt x="195" y="37" on="0"/>
        <pt x="278" y="6" on="0"/>
        <pt x="323" y="6" on="1"/>
        <pt x="394" y="6" on="0"/>
        <pt x="517" y="77" on="0"/>
        <pt x="554" y="125" on="1"/>
        <pt x="554" y="413" on="1"/>
        <pt x="514" y="460" on="0"/>
        <pt x="412" y="514" on="0"/>
      </contour>
    </TTGlyph>
    <TTGlyph name="d.sc" xMin="142" yMin="0" xMax="680" yMax="560">
      <contour>
        <pt x="142" y="0" on="1"/>
        <pt x="142" y="560" on="1"/>
        <pt x="373" y="560" on="1"/>
        <pt x="527" y="560" on="0"/>
        <pt x="680" y="407" on="0"/>
        <pt x="680" y="280" on="1"/>
        <pt x="680" y="154" on="0"/>
        <pt x="527" y="0" on="0"/>
        <pt x="373" y="0" on="1"/>
      </contour>
      <contour>
        <pt x="164" y="20" on="1"/>
        <pt x="370" y="20" on="1"/>
        <pt x="519" y="20" on="0"/>
        <pt x="658" y="163" on="0"/>
        <pt x="658" y="279" on="1"/>
        <pt x="658" y="395" on="0"/>
        <pt x="519" y="540" on="0"/>
        <pt x="371" y="540" on="1"/>
        <pt x="164" y="540" on="1"/>
      </contour>
    </TTGlyph>
    <TTGlyph name="dagger" xMin="107" yMin="248" xMax="464" yMax="730">
      <contour>
        <pt x="276" y="248" on="1"/>
        <pt x="276" y="558" on="1"/>
        <pt x="107" y="558" on="1"/>
        <pt x="110" y="578" on="1"/>
        <pt x="276" y="578" on="1"/>
        <pt x="276" y="730" on="1"/>
        <pt x="298" y="730" on="1"/>
        <pt x="298" y="578" on="1"/>
        <pt x="464" y="578" on="1"/>
        <pt x="464" y="558" on="1"/>
        <pt x="298" y="558" on="1"/>
        <pt x="298" y="248" on="1"/>
      </contour>
    </TTGlyph>
    <TTGlyph name="daggerdbl" xMin="107" yMin="196" xMax="467" yMax="730">
      <contour>
        <pt x="276" y="196" on="1"/>
        <pt x="276" y="348" on="1"/>
        <pt x="110" y="348" on="1"/>
        <pt x="110" y="368" on="1"/>
        <pt x="276" y="368" on="1"/>
        <pt x="276" y="558" on="1"/>
        <pt x="107" y="558" on="1"/>
        <pt x="110" y="578" on="1"/>
        <pt x="276" y="578" on="1"/>
        <pt x="276" y="730" on="1"/>
        <pt x="298" y="730" on="1"/>
        <pt x="298" y="578" on="1"/>
        <pt x="464" y="578" on="1"/>
        <pt x="464" y="558" on="1"/>
        <pt x="298" y="558" on="1"/>
        <pt x="298" y="368" on="1"/>
        <pt x="467" y="368" on="1"/>
        <pt x="464" y="348" on="1"/>
        <pt x="298" y="348" on="1"/>
        <pt x="298" y="196" on="1"/>
      </contour>
    </TTGlyph>
    <TTGlyph name="dcaron" xMin="74" yMin="-13" xMax="721" yMax="738">
      <component glyphName="d" x="0" y="0" flags="0x204"/>
      <component glyphName="caron.alt" x="508" y="-59" flags="0x4"/>
    </TTGlyph>
    <TTGlyph name="dcaron.sc" xMin="142" yMin="0" xMax="680" yMax="853">
      <component glyphName="d.sc" x="0" y="0" flags="0x204"/>
      <component glyphName="caron" x="130" y="40" flags="0x4"/>
    </TTGlyph>
    <TTGlyph name="dcroat" xMin="74" yMin="-13" xMax="684" yMax="738">
      <contour>
        <pt x="684" y="612" on="1"/>
        <pt x="575" y="612" on="1"/>
        <pt x="575" y="0" on="1"/>
        <pt x="554" y="0" on="1"/>
        <pt x="554" y="98" on="1"/>
        <pt x="519" y="57" on="0"/>
        <pt x="403" y="-13" on="0"/>
        <pt x="326" y="-13" on="1"/>
        <pt x="267" y="-13" on="0"/>
        <pt x="173" y="24" on="0"/>
        <pt x="108" y="90" on="0"/>
        <pt x="74" y="183" on="0"/>
        <pt x="74" y="238" on="1"/>
        <pt x="74" y="297" on="0"/>
        <pt x="115" y="396" on="0"/>
        <pt x="188" y="465" on="0"/>
        <pt x="290" y="503" on="0"/>
        <pt x="350" y="503" on="1"/>
        <pt x="413" y="503" on="0"/>
        <pt x="518" y="457" on="0"/>
        <pt x="554" y="419" on="1"/>
        <pt x="554" y="612" on="1"/>
        <pt x="344" y="612" on="1"/>
        <pt x="344" y="630" on="1"/>
        <pt x="554" y="630" on="1"/>
        <pt x="554" y="738" on="1"/>
        <pt x="575" y="738" on="1"/>
        <pt x="575" y="630" on="1"/>
        <pt x="681" y="630" on="1"/>
      </contour>
      <contour>
        <pt x="348" y="484" on="1"/>
        <pt x="292" y="484" on="0"/>
        <pt x="199" y="448" on="0"/>
        <pt x="133" y="383" on="0"/>
        <pt x="96" y="292" on="0"/>
        <pt x="96" y="237" on="1"/>
        <pt x="96" y="134" on="0"/>
        <pt x="220" y="6" on="0"/>
        <pt x="327" y="6" on="1"/>
        <pt x="401" y="6" on="0"/>
        <pt x="514" y="76" on="0"/>
        <pt x="554" y="124" on="1"/>
        <pt x="554" y="394" on="1"/>
        <pt x="511" y="441" on="0"/>
        <pt x="405" y="484" on="0"/>
      </contour>
    </TTGlyph>
    <TTGlyph name="dcroat.sc" xMin="48" yMin="0" xMax="700" yMax="560">
      <component glyphName="eth.sc" x="0" y="0" flags="0x204"/>
    </TTGlyph>
    <TTGlyph name="degree" xMin="64" yMin="349" xMax="446" yMax="716">
      <contour>
        <pt x="255" y="349" on="1"/>
        <pt x="173" y="349" on="0"/>
        <pt x="64" y="446" on="0"/>
        <pt x="64" y="530" on="1"/>
        <pt x="64" y="612" on="0"/>
        <pt x="173" y="716" on="0"/>
        <pt x="255" y="716" on="1"/>
        <pt x="337" y="716" on="0"/>
        <pt x="446" y="619" on="0"/>
        <pt x="446" y="535" on="1"/>
        <pt x="446" y="453" on="0"/>
        <pt x="337" y="349" on="0"/>
      </contour>
      <contour>
        <pt x="256" y="368" on="1"/>
        <pt x="290" y="368" on="0"/>
        <pt x="352" y="391" on="0"/>
        <pt x="398" y="434" on="0"/>
        <pt x="425" y="496" on="0"/>
        <pt x="425" y="534" on="1"/>
        <pt x="425" y="611" on="0"/>
        <pt x="326" y="697" on="0"/>
        <pt x="254" y="697" on="1"/>
        <pt x="220" y="697" on="0"/>
        <pt x="158" y="674" on="0"/>
        <pt x="112" y="631" on="0"/>
        <pt x="85" y="569" on="0"/>
        <pt x="85" y="531" on="1"/>
        <pt x="85" y="454" on="0"/>
        <pt x="184" y="368" on="0"/>
      </contour>
    </TTGlyph>
    <TTGlyph name="degree.tab" xMin="126" yMin="349" xMax="508" yMax="716">
      <component glyphName="degree" x="62" y="0" flags="0x4"/>
    </TTGlyph>
    <TTGlyph name="dieresis" xMin="98" yMin="655" xMax="402" yMax="702">
      <contour>
        <pt x="123" y="655" on="1"/>
        <pt x="112" y="655" on="0"/>
        <pt x="98" y="669" on="0"/>
        <pt x="98" y="679" on="1"/>
        <pt x="98" y="688" on="0"/>
        <pt x="112" y="702" on="0"/>
        <pt x="123" y="702" on="1"/>
        <pt x="135" y="702" on="0"/>
        <pt x="149" y="688" on="0"/>
        <pt x="149" y="679" on="1"/>
        <pt x="149" y="669" on="0"/>
        <pt x="135" y="655" on="0"/>
      </contour>
      <contour>
        <pt x="376" y="655" on="1"/>
        <pt x="365" y="655" on="0"/>
        <pt x="351" y="669" on="0"/>
        <pt x="351" y="679" on="1"/>
        <pt x="351" y="688" on="0"/>
        <pt x="365" y="702" on="0"/>
        <pt x="376" y="702" on="1"/>
        <pt x="388" y="702" on="0"/>
        <pt x="402" y="688" on="0"/>
        <pt x="402" y="679" on="1"/>
        <pt x="402" y="669" on="0"/>
        <pt x="388" y="655" on="0"/>
      </contour>
    </TTGlyph>
    <TTGlyph name="divide" xMin="114" yMin="97" xMax="658" yMax="603">
      <contour>
        <pt x="386" y="603" on="1"/>
        <pt x="399" y="603" on="0"/>
        <pt x="414" y="587" on="0"/>
        <pt x="414" y="577" on="1"/>
        <pt x="414" y="567" on="0"/>
        <pt x="399" y="551" on="0"/>
        <pt x="386" y="551" on="1"/>
        <pt x="373" y="551" on="0"/>
        <pt x="357" y="567" on="0"/>
        <pt x="357" y="577" on="1"/>
        <pt x="357" y="587" on="0"/>
        <pt x="373" y="603" on="0"/>
      </contour>
      <contour>
        <pt x="114" y="340" on="1"/>
        <pt x="114" y="360" on="1"/>
        <pt x="658" y="360" on="1"/>
        <pt x="658" y="340" on="1"/>
      </contour>
      <contour>
        <pt x="386" y="97" on="1"/>
        <pt x="373" y="97" on="0"/>
        <pt x="358" y="113" on="0"/>
        <pt x="358" y="123" on="1"/>
        <pt x="358" y="133" on="0"/>
        <pt x="373" y="149" on="0"/>
        <pt x="386" y="149" on="1"/>
        <pt x="399" y="149" on="0"/>
        <pt x="415" y="133" on="0"/>
        <pt x="415" y="123" on="1"/>
        <pt x="415" y="113" on="0"/>
        <pt x="399" y="97" on="0"/>
      </contour>
    </TTGlyph>
    <TTGlyph name="divide.tab" xMin="90" yMin="97" xMax="634" yMax="603">
      <component glyphName="divide" x="-24" y="0" flags="0x4"/>
    </TTGlyph>
    <TTGlyph name="dollar" xMin="95" yMin="-110" xMax="640" yMax="805">
      <contour>
        <pt x="371" y="-110" on="1"/>
        <pt x="371" y="19" on="1"/>
        <pt x="293" y="21" on="0"/>
        <pt x="149" y="68" on="0"/>
        <pt x="95" y="105" on="1"/>
        <pt x="95" y="131" on="1"/>
        <pt x="96" y="131" on="1"/>
        <pt x="157" y="86" on="0"/>
        <pt x="311" y="39" on="0"/>
        <pt x="387" y="39" on="1"/>
        <pt x="501" y="39" on="0"/>
        <pt x="618" y="126" on="0"/>
        <pt x="618" y="193" on="1"/>
        <pt x="618" y="222" on="0"/>
        <pt x="596" y="269" on="0"/>
        <pt x="543" y="306" on="0"/>
        <pt x="453" y="335" on="0"/>
        <pt x="385" y="347" on="1"/>
        <pt x="310" y="360" on="0"/>
        <pt x="208" y="391" on="0"/>
        <pt x="148" y="430" on="0"/>
        <pt x="122" y="481" on="0"/>
        <pt x="122" y="515" on="1"/>
        <pt x="122" y="553" on="0"/>
        <pt x="159" y="615" on="0"/>
        <pt x="224" y="658" on="0"/>
        <pt x="314" y="681" on="0"/>
        <pt x="367" y="681" on="1"/>
        <pt x="368" y="681" on="0"/>
        <pt x="370" y="681" on="0"/>
        <pt x="371" y="681" on="1"/>
        <pt x="371" y="805" on="1"/>
        <pt x="392" y="805" on="1"/>
        <pt x="392" y="680" on="1"/>
        <pt x="452" y="678" on="0"/>
        <pt x="574" y="644" on="0"/>
        <pt x="626" y="611" on="1"/>
        <pt x="626" y="585" on="1"/>
        <pt x="625" y="585" on="1"/>
        <pt x="565" y="626" on="0"/>
        <pt x="430" y="661" on="0"/>
        <pt x="367" y="661" on="1"/>
        <pt x="319" y="661" on="0"/>
        <pt x="237" y="641" on="0"/>
        <pt x="178" y="604" on="0"/>
        <pt x="144" y="550" on="0"/>
        <pt x="144" y="516" on="1"/>
        <pt x="144" y="456" on="0"/>
        <pt x="251" y="392" on="0"/>
        <pt x="386" y="368" on="1"/>
        <pt x="461" y="355" on="0"/>
        <pt x="560" y="321" on="0"/>
        <pt x="617" y="279" on="0"/>
        <pt x="640" y="226" on="0"/>
        <pt x="640" y="194" on="1"/>
        <pt x="640" y="116" on="0"/>
        <pt x="510" y="19" on="0"/>
        <pt x="392" y="19" on="1"/>
        <pt x="392" y="-107" on="1"/>
      </contour>
    </TTGlyph>
    <TTGlyph name="dollar.tab" xMin="104" yMin="-110" xMax="629" yMax="805">
      <contour>
        <pt x="370" y="-110" on="1"/>
        <pt x="370" y="19" on="1"/>
        <pt x="299" y="21" on="0"/>
        <pt x="158" y="68" on="0"/>
        <pt x="104" y="105" on="1"/>
        <pt x="104" y="131" on="1"/>
        <pt x="105" y="131" on="1"/>
        <pt x="166" y="86" on="0"/>
        <pt x="317" y="39" on="0"/>
        <pt x="386" y="39" on="1"/>
        <pt x="493" y="39" on="0"/>
        <pt x="607" y="126" on="0"/>
        <pt x="607" y="193" on="1"/>
        <pt x="607" y="251" on="0"/>
        <pt x="512" y="322" on="0"/>
        <pt x="384" y="347" on="1"/>
        <pt x="240" y="375" on="0"/>
        <pt x="131" y="447" on="0"/>
        <pt x="131" y="515" on="1"/>
        <pt x="131" y="553" on="0"/>
        <pt x="168" y="615" on="0"/>
        <pt x="231" y="658" on="0"/>
        <pt x="317" y="681" on="0"/>
        <pt x="366" y="681" on="1"/>
        <pt x="367" y="681" on="0"/>
        <pt x="369" y="681" on="0"/>
        <pt x="370" y="681" on="1"/>
        <pt x="370" y="805" on="1"/>
        <pt x="391" y="805" on="1"/>
        <pt x="391" y="680" on="1"/>
        <pt x="445" y="677" on="0"/>
        <pt x="564" y="643" on="0"/>
        <pt x="615" y="611" on="1"/>
        <pt x="615" y="585" on="1"/>
        <pt x="614" y="585" on="1"/>
        <pt x="554" y="626" on="0"/>
        <pt x="422" y="661" on="0"/>
        <pt x="366" y="661" on="1"/>
        <pt x="322" y="661" on="0"/>
        <pt x="244" y="641" on="0"/>
        <pt x="187" y="604" on="0"/>
        <pt x="153" y="550" on="0"/>
        <pt x="153" y="516" on="1"/>
        <pt x="153" y="456" on="0"/>
        <pt x="257" y="393" on="0"/>
        <pt x="385" y="368" on="1"/>
        <pt x="457" y="354" on="0"/>
        <pt x="552" y="321" on="0"/>
        <pt x="607" y="279" on="0"/>
        <pt x="629" y="226" on="0"/>
        <pt x="629" y="194" on="1"/>
        <pt x="629" y="116" on="0"/>
        <pt x="501" y="19" on="0"/>
        <pt x="391" y="19" on="1"/>
        <pt x="391" y="-107" on="1"/>
      </contour>
    </TTGlyph>
    <TTGlyph name="dotaccent" xMin="225" yMin="655" xMax="276" yMax="702">
      <contour>
        <pt x="250" y="655" on="1"/>
        <pt x="239" y="655" on="0"/>
        <pt x="225" y="669" on="0"/>
        <pt x="225" y="679" on="1"/>
        <pt x="225" y="688" on="0"/>
        <pt x="239" y="702" on="0"/>
        <pt x="250" y="702" on="1"/>
        <pt x="262" y="702" on="0"/>
        <pt x="276" y="688" on="0"/>
        <pt x="276" y="679" on="1"/>
        <pt x="276" y="669" on="0"/>
        <pt x="262" y="655" on="0"/>
      </contour>
    </TTGlyph>
    <TTGlyph name="dotlessi" xMin="124" yMin="0" xMax="145" yMax="520">
      <contour>
        <pt x="124" y="0" on="1"/>
        <pt x="124" y="520" on="1"/>
        <pt x="145" y="520" on="1"/>
        <pt x="145" y="0" on="1"/>
      </contour>
    </TTGlyph>
    <TTGlyph name="dotlessi.sc" xMin="147" yMin="0" xMax="169" yMax="560">
      <component glyphName="i.sc" x="0" y="0" flags="0x204"/>
    </TTGlyph>
    <TTGlyph name="dotmath" xMin="104" yMin="324" xMax="161" yMax="376">
      <contour>
        <pt x="132" y="324" on="1"/>
        <pt x="119" y="324" on="0"/>
        <pt x="104" y="340" on="0"/>
        <pt x="104" y="350" on="1"/>
        <pt x="104" y="360" on="0"/>
        <pt x="119" y="376" on="0"/>
        <pt x="132" y="376" on="1"/>
        <pt x="145" y="376" on="0"/>
        <pt x="161" y="360" on="0"/>
        <pt x="161" y="350" on="1"/>
        <pt x="161" y="340" on="0"/>
        <pt x="145" y="324" on="0"/>
      </contour>
    </TTGlyph>
    <TTGlyph name="dotmath.tab" xMin="153" yMin="324" xMax="210" yMax="376">
      <component glyphName="dotmath" x="49" y="0" flags="0x4"/>
    </TTGlyph>
    <TTGlyph name="e" xMin="74" yMin="-11" xMax="569" yMax="533">
      <contour>
        <pt x="335" y="533" on="1"/>
        <pt x="398" y="533" on="0"/>
        <pt x="488" y="488" on="0"/>
        <pt x="544" y="416" on="0"/>
        <pt x="569" y="323" on="0"/>
        <pt x="569" y="276" on="1"/>
        <pt x="569" y="273" on="1"/>
        <pt x="96" y="273" on="1"/>
        <pt x="95" y="269" on="0"/>
        <pt x="95" y="258" on="0"/>
        <pt x="95" y="254" on="1"/>
        <pt x="95" y="253" on="1"/>
        <pt x="95" y="199" on="0"/>
        <pt x="129" y="109" on="0"/>
        <pt x="192" y="44" on="0"/>
        <pt x="286" y="8" on="0"/>
        <pt x="345" y="8" on="1"/>
        <pt x="399" y="8" on="0"/>
        <pt x="499" y="39" on="0"/>
        <pt x="548" y="75" on="1"/>
        <pt x="549" y="75" on="1"/>
        <pt x="549" y="50" on="1"/>
        <pt x="508" y="21" on="0"/>
        <pt x="399" y="-11" on="0"/>
        <pt x="345" y="-11" on="1"/>
        <pt x="282" y="-11" on="0"/>
        <pt x="180" y="27" on="0"/>
        <pt x="111" y="96" on="0"/>
        <pt x="74" y="192" on="0"/>
        <pt x="74" y="250" on="1"/>
        <pt x="74" y="311" on="0"/>
        <pt x="113" y="416" on="0"/>
        <pt x="182" y="491" on="0"/>
        <pt x="278" y="533" on="0"/>
      </contour>
      <contour>
        <pt x="334" y="514" on="1"/>
        <pt x="239" y="514" on="0"/>
        <pt x="109" y="389" on="0"/>
        <pt x="97" y="292" on="1"/>
        <pt x="548" y="292" on="1"/>
        <pt x="546" y="332" on="0"/>
        <pt x="521" y="412" on="0"/>
        <pt x="471" y="475" on="0"/>
        <pt x="391" y="514" on="0"/>
      </contour>
    </TTGlyph>
    <TTGlyph name="e.sc" xMin="142" yMin="0" xMax="616" yMax="560">
      <contour>
        <pt x="142" y="0" on="1"/>
        <pt x="142" y="560" on="1"/>
        <pt x="598" y="560" on="1"/>
        <pt x="600" y="540" on="1"/>
        <pt x="164" y="540" on="1"/>
        <pt x="164" y="300" on="1"/>
        <pt x="525" y="300" on="1"/>
        <pt x="525" y="280" on="1"/>
        <pt x="164" y="280" on="1"/>
        <pt x="164" y="20" on="1"/>
        <pt x="616" y="20" on="1"/>
        <pt x="613" y="0" on="1"/>
      </contour>
    </TTGlyph>
    <TTGlyph name="eacute" xMin="74" yMin="-11" xMax="569" yMax="826">
      <component glyphName="e" x="0" y="0" flags="0x204"/>
      <component glyphName="acute" x="138" y="13" flags="0x4"/>
    </TTGlyph>
    <TTGlyph name="eacute.sc" xMin="142" yMin="0" xMax="616" yMax="853">
      <component glyphName="e.sc" x="0" y="0" flags="0x204"/>
      <component glyphName="acute" x="179" y="40" flags="0x4"/>
    </TTGlyph>
    <TTGlyph name="ebreve" xMin="74" yMin="-11" xMax="569" yMax="826">
      <component glyphName="e" x="0" y="0" flags="0x204"/>
      <component glyphName="breve" x="85" y="13" flags="0x4"/>
    </TTGlyph>
    <TTGlyph name="ebreve.sc" xMin="142" yMin="0" xMax="616" yMax="853">
      <component glyphName="e.sc" x="0" y="0" flags="0x204"/>
      <component glyphName="breve" x="126" y="40" flags="0x4"/>
    </TTGlyph>
    <TTGlyph name="ecaron" xMin="74" yMin="-11" xMax="569" yMax="826">
      <component glyphName="e" x="0" y="0" flags="0x204"/>
      <component glyphName="caron" x="85" y="13" flags="0x4"/>
    </TTGlyph>
    <TTGlyph name="ecaron.sc" xMin="142" yMin="0" xMax="616" yMax="853">
      <component glyphName="e.sc" x="0" y="0" flags="0x204"/>
      <component glyphName="caron" x="126" y="40" flags="0x4"/>
    </TTGlyph>
    <TTGlyph name="ecircumflex" xMin="74" yMin="-11" xMax="569" yMax="826">
      <component glyphName="e" x="0" y="0" flags="0x204"/>
      <component glyphName="circumflex" x="85" y="13" flags="0x4"/>
    </TTGlyph>
    <TTGlyph name="ecircumflex.sc" xMin="142" yMin="0" xMax="616" yMax="853">
      <component glyphName="e.sc" x="0" y="0" flags="0x204"/>
      <component glyphName="circumflex" x="126" y="40" flags="0x4"/>
    </TTGlyph>
    <TTGlyph name="edieresis" xMin="74" yMin="-11" xMax="569" yMax="715">
      <component glyphName="e" x="0" y="0" flags="0x204"/>
      <component glyphName="dieresis" x="85" y="13" flags="0x4"/>
    </TTGlyph>
    <TTGlyph name="edieresis.sc" xMin="142" yMin="0" xMax="616" yMax="742">
      <component glyphName="e.sc" x="0" y="0" flags="0x204"/>
      <component glyphName="dieresis" x="126" y="40" flags="0x4"/>
    </TTGlyph>
    <TTGlyph name="edotaccent" xMin="74" yMin="-11" xMax="569" yMax="715">
      <component glyphName="e" x="0" y="0" flags="0x204"/>
      <component glyphName="dotaccent" x="85" y="13" flags="0x4"/>
    </TTGlyph>
    <TTGlyph name="edotaccent.sc" xMin="142" yMin="0" xMax="616" yMax="742">
      <component glyphName="e.sc" x="0" y="0" flags="0x204"/>
      <component glyphName="dotaccent" x="126" y="40" flags="0x4"/>
    </TTGlyph>
    <TTGlyph name="egrave" xMin="74" yMin="-11" xMax="569" yMax="826">
      <component glyphName="e" x="0" y="0" flags="0x204"/>
      <component glyphName="grave" x="33" y="13" flags="0x4"/>
    </TTGlyph>
    <TTGlyph name="egrave.sc" xMin="142" yMin="0" xMax="616" yMax="853">
      <component glyphName="e.sc" x="0" y="0" flags="0x204"/>
      <component glyphName="grave" x="74" y="40" flags="0x4"/>
    </TTGlyph>
    <TTGlyph name="eight" xMin="85" yMin="-20" xMax="647" yMax="718">
      <contour>
        <pt x="366" y="-20" on="1"/>
        <pt x="232" y="-20" on="0"/>
        <pt x="85" y="88" on="0"/>
        <pt x="85" y="171" on="1"/>
        <pt x="85" y="242" on="0"/>
        <pt x="193" y="335" on="0"/>
        <pt x="282" y="351" on="1"/>
        <pt x="192" y="367" on="0"/>
        <pt x="102" y="459" on="0"/>
        <pt x="102" y="525" on="1"/>
        <pt x="102" y="569" on="0"/>
        <pt x="141" y="640" on="0"/>
        <pt x="211" y="690" on="0"/>
        <pt x="308" y="718" on="0"/>
        <pt x="366" y="718" on="1"/>
        <pt x="424" y="718" on="0"/>
        <pt x="521" y="690" on="0"/>
        <pt x="591" y="640" on="0"/>
        <pt x="630" y="569" on="0"/>
        <pt x="630" y="525" on="1"/>
        <pt x="630" y="459" on="0"/>
        <pt x="540" y="367" on="0"/>
        <pt x="450" y="351" on="1"/>
        <pt x="539" y="335" on="0"/>
        <pt x="647" y="242" on="0"/>
        <pt x="647" y="171" on="1"/>
        <pt x="647" y="88" on="0"/>
        <pt x="500" y="-20" on="0"/>
      </contour>
      <contour>
        <pt x="366" y="359" on="1"/>
        <pt x="476" y="359" on="0"/>
        <pt x="608" y="448" on="0"/>
        <pt x="608" y="524" on="1"/>
        <pt x="608" y="602" on="0"/>
        <pt x="476" y="698" on="0"/>
        <pt x="366" y="698" on="1"/>
        <pt x="256" y="698" on="0"/>
        <pt x="124" y="602" on="0"/>
        <pt x="124" y="524" on="1"/>
        <pt x="124" y="448" on="0"/>
        <pt x="256" y="359" on="0"/>
      </contour>
      <contour>
        <pt x="366" y="0" on="1"/>
        <pt x="485" y="0" on="0"/>
        <pt x="625" y="93" on="0"/>
        <pt x="625" y="170" on="1"/>
        <pt x="625" y="210" on="0"/>
        <pt x="586" y="274" on="0"/>
        <pt x="517" y="318" on="0"/>
        <pt x="422" y="341" on="0"/>
        <pt x="366" y="341" on="1"/>
        <pt x="310" y="341" on="0"/>
        <pt x="215" y="318" on="0"/>
        <pt x="146" y="274" on="0"/>
        <pt x="107" y="210" on="0"/>
        <pt x="107" y="170" on="1"/>
        <pt x="107" y="93" on="0"/>
        <pt x="247" y="0" on="0"/>
      </contour>
    </TTGlyph>
    <TTGlyph name="eight.den" xMin="35" yMin="-12" xMax="359" yMax="402">
      <component glyphName="eight.small" x="-20" y="0" flags="0x4"/>
    </TTGlyph>
    <TTGlyph name="eight.inf" xMin="75" yMin="-190" xMax="399" yMax="224">
      <component glyphName="eight.small" x="20" y="-178" flags="0x4"/>
    </TTGlyph>
    <TTGlyph name="eight.num" xMin="75" yMin="295" xMax="399" yMax="709">
      <component glyphName="eight.small" x="20" y="307" flags="0x4"/>
    </TTGlyph>
    <TTGlyph name="eight.osf" xMin="92" yMin="-20" xMax="620" yMax="718">
      <contour>
        <pt x="356" y="-20" on="1"/>
        <pt x="235" y="-20" on="0"/>
        <pt x="92" y="85" on="0"/>
        <pt x="92" y="169" on="1"/>
        <pt x="92" y="229" on="0"/>
        <pt x="180" y="332" on="0"/>
        <pt x="274" y="351" on="1"/>
        <pt x="188" y="372" on="0"/>
        <pt x="109" y="467" on="0"/>
        <pt x="109" y="527" on="1"/>
        <pt x="109" y="565" on="0"/>
        <pt x="143" y="635" on="0"/>
        <pt x="206" y="687" on="0"/>
        <pt x="299" y="718" on="0"/>
        <pt x="356" y="718" on="1"/>
        <pt x="413" y="718" on="0"/>
        <pt x="506" y="687" on="0"/>
        <pt x="569" y="635" on="0"/>
        <pt x="603" y="565" on="0"/>
        <pt x="603" y="527" on="1"/>
        <pt x="603" y="467" on="0"/>
        <pt x="524" y="372" on="0"/>
        <pt x="438" y="351" on="1"/>
        <pt x="532" y="332" on="0"/>
        <pt x="620" y="229" on="0"/>
        <pt x="620" y="169" on="1"/>
        <pt x="620" y="85" on="0"/>
        <pt x="477" y="-20" on="0"/>
      </contour>
      <contour>
        <pt x="356" y="360" on="1"/>
        <pt x="412" y="360" on="0"/>
        <pt x="496" y="387" on="0"/>
        <pt x="552" y="432" on="0"/>
        <pt x="581" y="493" on="0"/>
        <pt x="581" y="526" on="1"/>
        <pt x="581" y="561" on="0"/>
        <pt x="550" y="624" on="0"/>
        <pt x="492" y="671" on="0"/>
        <pt x="408" y="698" on="0"/>
        <pt x="356" y="698" on="1"/>
        <pt x="304" y="698" on="0"/>
        <pt x="220" y="671" on="0"/>
        <pt x="162" y="624" on="0"/>
        <pt x="131" y="561" on="0"/>
        <pt x="131" y="526" on="1"/>
        <pt x="131" y="493" on="0"/>
        <pt x="160" y="432" on="0"/>
        <pt x="216" y="387" on="0"/>
        <pt x="300" y="360" on="0"/>
      </contour>
      <contour>
        <pt x="356" y="0" on="1"/>
        <pt x="468" y="0" on="0"/>
        <pt x="598" y="95" on="0"/>
        <pt x="598" y="170" on="1"/>
        <pt x="598" y="205" on="0"/>
        <pt x="566" y="267" on="0"/>
        <pt x="504" y="314" on="0"/>
        <pt x="414" y="342" on="0"/>
        <pt x="356" y="342" on="1"/>
        <pt x="298" y="342" on="0"/>
        <pt x="208" y="314" on="0"/>
        <pt x="146" y="267" on="0"/>
        <pt x="114" y="205" on="0"/>
        <pt x="114" y="170" on="1"/>
        <pt x="114" y="95" on="0"/>
        <pt x="244" y="0" on="0"/>
      </contour>
    </TTGlyph>
    <TTGlyph name="eight.small" xMin="55" yMin="-12" xMax="379" yMax="402">
      <contour>
        <pt x="217" y="-12" on="1"/>
        <pt x="139" y="-12" on="0"/>
        <pt x="55" y="49" on="0"/>
        <pt x="55" y="95" on="1"/>
        <pt x="55" y="135" on="0"/>
        <pt x="114" y="187" on="0"/>
        <pt x="164" y="196" on="1"/>
        <pt x="113" y="205" on="0"/>
        <pt x="65" y="257" on="0"/>
        <pt x="65" y="294" on="1"/>
        <pt x="65" y="343" on="0"/>
        <pt x="149" y="402" on="0"/>
        <pt x="217" y="402" on="1"/>
        <pt x="285" y="402" on="0"/>
        <pt x="369" y="343" on="0"/>
        <pt x="369" y="294" on="1"/>
        <pt x="369" y="257" on="0"/>
        <pt x="321" y="205" on="0"/>
        <pt x="270" y="196" on="1"/>
        <pt x="320" y="187" on="0"/>
        <pt x="379" y="135" on="0"/>
        <pt x="379" y="95" on="1"/>
        <pt x="379" y="49" on="0"/>
        <pt x="295" y="-12" on="0"/>
      </contour>
      <contour>
        <pt x="217" y="205" on="1"/>
        <pt x="277" y="205" on="0"/>
        <pt x="348" y="251" on="0"/>
        <pt x="348" y="291" on="1"/>
        <pt x="348" y="332" on="0"/>
        <pt x="277" y="383" on="0"/>
        <pt x="217" y="383" on="1"/>
        <pt x="157" y="383" on="0"/>
        <pt x="86" y="332" on="0"/>
        <pt x="86" y="291" on="1"/>
        <pt x="86" y="251" on="0"/>
        <pt x="157" y="205" on="0"/>
      </contour>
      <contour>
        <pt x="217" y="7" on="1"/>
        <pt x="283" y="7" on="0"/>
        <pt x="358" y="56" on="0"/>
        <pt x="358" y="97" on="1"/>
        <pt x="358" y="139" on="0"/>
        <pt x="278" y="187" on="0"/>
        <pt x="217" y="187" on="1"/>
        <pt x="156" y="187" on="0"/>
        <pt x="76" y="139" on="0"/>
        <pt x="76" y="97" on="1"/>
        <pt x="76" y="56" on="0"/>
        <pt x="151" y="7" on="0"/>
      </contour>
    </TTGlyph>
    <TTGlyph name="eight.sup" xMin="75" yMin="346" xMax="399" yMax="760">
      <component glyphName="eight.small" x="20" y="358" flags="0x4"/>
    </TTGlyph>
    <TTGlyph name="eight.tab" xMin="84" yMin="-20" xMax="640" yMax="718">
      <contour>
        <pt x="362" y="-20" on="1"/>
        <pt x="231" y="-20" on="0"/>
        <pt x="84" y="88" on="0"/>
        <pt x="84" y="171" on="1"/>
        <pt x="84" y="242" on="0"/>
        <pt x="191" y="335" on="0"/>
        <pt x="278" y="351" on="1"/>
        <pt x="190" y="367" on="0"/>
        <pt x="101" y="459" on="0"/>
        <pt x="101" y="525" on="1"/>
        <pt x="101" y="569" on="0"/>
        <pt x="140" y="640" on="0"/>
        <pt x="209" y="690" on="0"/>
        <pt x="305" y="718" on="0"/>
        <pt x="362" y="718" on="1"/>
        <pt x="419" y="718" on="0"/>
        <pt x="515" y="690" on="0"/>
        <pt x="584" y="640" on="0"/>
        <pt x="623" y="569" on="0"/>
        <pt x="623" y="525" on="1"/>
        <pt x="623" y="459" on="0"/>
        <pt x="534" y="367" on="0"/>
        <pt x="446" y="351" on="1"/>
        <pt x="533" y="335" on="0"/>
        <pt x="640" y="242" on="0"/>
        <pt x="640" y="171" on="1"/>
        <pt x="640" y="88" on="0"/>
        <pt x="493" y="-20" on="0"/>
      </contour>
      <contour>
        <pt x="362" y="359" on="1"/>
        <pt x="470" y="359" on="0"/>
        <pt x="601" y="448" on="0"/>
        <pt x="601" y="524" on="1"/>
        <pt x="601" y="602" on="0"/>
        <pt x="470" y="698" on="0"/>
        <pt x="362" y="698" on="1"/>
        <pt x="254" y="698" on="0"/>
        <pt x="123" y="602" on="0"/>
        <pt x="123" y="524" on="1"/>
        <pt x="123" y="448" on="0"/>
        <pt x="254" y="359" on="0"/>
      </contour>
      <contour>
        <pt x="362" y="0" on="1"/>
        <pt x="479" y="0" on="0"/>
        <pt x="618" y="93" on="0"/>
        <pt x="618" y="170" on="1"/>
        <pt x="618" y="210" on="0"/>
        <pt x="579" y="274" on="0"/>
        <pt x="511" y="318" on="0"/>
        <pt x="417" y="341" on="0"/>
        <pt x="362" y="341" on="1"/>
        <pt x="307" y="341" on="0"/>
        <pt x="213" y="318" on="0"/>
        <pt x="145" y="274" on="0"/>
        <pt x="106" y="210" on="0"/>
        <pt x="106" y="170" on="1"/>
        <pt x="106" y="93" on="0"/>
        <pt x="245" y="0" on="0"/>
      </contour>
    </TTGlyph>
    <TTGlyph name="ellipsis" xMin="121" yMin="-13" xMax="778" yMax="39">
      <component glyphName="period" x="0" y="0" flags="0x4"/>
      <component glyphName="period" x="300" y="0" flags="0x4"/>
      <component glyphName="period" x="600" y="0" flags="0x4"/>
    </TTGlyph>
    <TTGlyph name="emacron" xMin="74" yMin="-11" xMax="569" yMax="700">
      <component glyphName="e" x="0" y="0" flags="0x204"/>
      <component glyphName="macron" x="85" y="13" flags="0x4"/>
    </TTGlyph>
    <TTGlyph name="emacron.sc" xMin="142" yMin="0" xMax="616" yMax="727">
      <component glyphName="e.sc" x="0" y="0" flags="0x204"/>
      <component glyphName="macron" x="126" y="40" flags="0x4"/>
    </TTGlyph>
    <TTGlyph name="emdash" xMin="77" yMin="303" xMax="781" yMax="323">
      <contour>
        <pt x="77" y="303" on="1"/>
        <pt x="77" y="323" on="1"/>
        <pt x="781" y="323" on="1"/>
        <pt x="781" y="303" on="1"/>
      </contour>
    </TTGlyph>
    <TTGlyph name="emdash.cap" xMin="77" yMin="340" xMax="781" yMax="360">
      <component glyphName="emdash" x="0" y="37" flags="0x4"/>
    </TTGlyph>
    <TTGlyph name="endash" xMin="77" yMin="303" xMax="611" yMax="323">
      <contour>
        <pt x="77" y="303" on="1"/>
        <pt x="77" y="323" on="1"/>
        <pt x="611" y="323" on="1"/>
        <pt x="611" y="303" on="1"/>
      </contour>
    </TTGlyph>
    <TTGlyph name="endash.cap" xMin="77" yMin="340" xMax="611" yMax="360">
      <component glyphName="endash" x="0" y="37" flags="0x4"/>
    </TTGlyph>
    <TTGlyph name="endash.tab" xMin="75" yMin="340" xMax="649" yMax="360">
      <contour>
        <pt x="75" y="340" on="1"/>
        <pt x="75" y="360" on="1"/>
        <pt x="649" y="360" on="1"/>
        <pt x="649" y="340" on="1"/>
      </contour>
    </TTGlyph>
    <TTGlyph name="eogonek" xMin="74" yMin="-288" xMax="569" yMax="533">
      <contour>
        <pt x="345" y="-11" on="1"/>
        <pt x="218" y="-11" on="0"/>
        <pt x="74" y="134" on="0"/>
        <pt x="74" y="250" on="1"/>
        <pt x="74" y="311" on="0"/>
        <pt x="113" y="416" on="0"/>
        <pt x="182" y="491" on="0"/>
        <pt x="278" y="533" on="0"/>
        <pt x="335" y="533" on="1"/>
        <pt x="398" y="533" on="0"/>
        <pt x="488" y="488" on="0"/>
        <pt x="544" y="416" on="0"/>
        <pt x="569" y="323" on="0"/>
        <pt x="569" y="276" on="1"/>
        <pt x="569" y="273" on="1"/>
        <pt x="96" y="273" on="1"/>
        <pt x="95" y="269" on="0"/>
        <pt x="95" y="258" on="0"/>
        <pt x="95" y="254" on="1"/>
        <pt x="95" y="253" on="1"/>
        <pt x="95" y="145" on="0"/>
        <pt x="226" y="8" on="0"/>
        <pt x="345" y="8" on="1"/>
        <pt x="399" y="8" on="0"/>
        <pt x="499" y="39" on="0"/>
        <pt x="548" y="75" on="1"/>
        <pt x="549" y="75" on="1"/>
        <pt x="549" y="50" on="1"/>
        <pt x="462" y="-30" on="0"/>
        <pt x="364" y="-143" on="0"/>
        <pt x="364" y="-194" on="1"/>
        <pt x="364" y="-233" on="0"/>
        <pt x="425" y="-269" on="0"/>
        <pt x="462" y="-269" on="1"/>
        <pt x="487" y="-269" on="0"/>
        <pt x="538" y="-258" on="0"/>
        <pt x="558" y="-246" on="1"/>
        <pt x="558" y="-268" on="1"/>
        <pt x="538" y="-278" on="0"/>
        <pt x="487" y="-288" on="0"/>
        <pt x="462" y="-288" on="1"/>
        <pt x="414" y="-288" on="0"/>
        <pt x="343" y="-243" on="0"/>
        <pt x="343" y="-194" on="1"/>
        <pt x="343" y="-147" on="0"/>
        <pt x="421" y="-44" on="0"/>
        <pt x="485" y="16" on="1"/>
        <pt x="452" y="3" on="0"/>
        <pt x="380" y="-11" on="0"/>
      </contour>
      <contour>
        <pt x="334" y="514" on="1"/>
        <pt x="239" y="514" on="0"/>
        <pt x="109" y="389" on="0"/>
        <pt x="97" y="292" on="1"/>
        <pt x="548" y="292" on="1"/>
        <pt x="546" y="332" on="0"/>
        <pt x="521" y="412" on="0"/>
        <pt x="471" y="475" on="0"/>
        <pt x="391" y="514" on="0"/>
      </contour>
    </TTGlyph>
    <TTGlyph name="eogonek.sc" xMin="142" yMin="-289" xMax="667" yMax="560">
      <contour>
        <pt x="142" y="0" on="1"/>
        <pt x="142" y="560" on="1"/>
        <pt x="598" y="560" on="1"/>
        <pt x="600" y="540" on="1"/>
        <pt x="164" y="540" on="1"/>
        <pt x="164" y="300" on="1"/>
        <pt x="525" y="300" on="1"/>
        <pt x="525" y="280" on="1"/>
        <pt x="164" y="280" on="1"/>
        <pt x="164" y="20" on="1"/>
        <pt x="616" y="20" on="1"/>
        <pt x="613" y="0" on="1"/>
        <pt x="554" y="-61" on="1"/>
        <pt x="504" y="-113" on="0"/>
        <pt x="473" y="-170" on="0"/>
        <pt x="473" y="-197" on="1"/>
        <pt x="473" y="-237" on="0"/>
        <pt x="532" y="-270" on="0"/>
        <pt x="568" y="-270" on="1"/>
        <pt x="596" y="-270" on="0"/>
        <pt x="647" y="-254" on="0"/>
        <pt x="667" y="-237" on="1"/>
        <pt x="667" y="-261" on="1"/>
        <pt x="647" y="-275" on="0"/>
        <pt x="596" y="-289" on="0"/>
        <pt x="568" y="-289" on="1"/>
        <pt x="522" y="-289" on="0"/>
        <pt x="452" y="-247" on="0"/>
        <pt x="452" y="-197" on="1"/>
        <pt x="452" y="-167" on="0"/>
        <pt x="489" y="-99" on="0"/>
        <pt x="540" y="-47" on="1"/>
        <pt x="586" y="0" on="1"/>
      </contour>
    </TTGlyph>
    <TTGlyph name="equal" xMin="124" yMin="201" xMax="643" yMax="499">
      <contour>
        <pt x="124" y="479" on="1"/>
        <pt x="124" y="499" on="1"/>
        <pt x="643" y="499" on="1"/>
        <pt x="643" y="479" on="1"/>
      </contour>
      <contour>
        <pt x="124" y="201" on="1"/>
        <pt x="124" y="221" on="1"/>
        <pt x="643" y="221" on="1"/>
        <pt x="643" y="201" on="1"/>
      </contour>
    </TTGlyph>
    <TTGlyph name="equal.tab" xMin="107" yMin="201" xMax="626" yMax="499">
      <component glyphName="equal" x="-17" y="0" flags="0x4"/>
    </TTGlyph>
    <TTGlyph name="eth" xMin="76" yMin="-13" xMax="595" yMax="739">
      <contour>
        <pt x="331" y="-13" on="1"/>
        <pt x="275" y="-13" on="0"/>
        <pt x="180" y="22" on="0"/>
        <pt x="113" y="87" on="0"/>
        <pt x="76" y="178" on="0"/>
        <pt x="76" y="233" on="1"/>
        <pt x="76" y="289" on="0"/>
        <pt x="115" y="381" on="0"/>
        <pt x="184" y="446" on="0"/>
        <pt x="279" y="481" on="0"/>
        <pt x="334" y="481" on="1"/>
        <pt x="412" y="481" on="0"/>
        <pt x="533" y="410" on="0"/>
        <pt x="573" y="344" on="1"/>
        <pt x="557" y="437" on="0"/>
        <pt x="476" y="589" on="0"/>
        <pt x="398" y="649" on="1"/>
        <pt x="222" y="574" on="1"/>
        <pt x="222" y="593" on="1"/>
        <pt x="382" y="662" on="1"/>
        <pt x="354" y="681" on="0"/>
        <pt x="289" y="719" on="0"/>
        <pt x="252" y="736" on="1"/>
        <pt x="252" y="738" on="1"/>
        <pt x="285" y="738" on="1"/>
        <pt x="318" y="723" on="0"/>
        <pt x="377" y="689" on="0"/>
        <pt x="402" y="670" on="1"/>
        <pt x="562" y="739" on="1"/>
        <pt x="562" y="720" on="1"/>
        <pt x="417" y="658" on="1"/>
        <pt x="510" y="583" on="0"/>
        <pt x="595" y="388" on="0"/>
        <pt x="595" y="287" on="1"/>
        <pt x="595" y="221" on="0"/>
        <pt x="559" y="111" on="0"/>
        <pt x="491" y="31" on="0"/>
        <pt x="393" y="-13" on="0"/>
      </contour>
      <contour>
        <pt x="98" y="234" on="1"/>
        <pt x="98" y="183" on="0"/>
        <pt x="133" y="98" on="0"/>
        <pt x="195" y="39" on="0"/>
        <pt x="281" y="6" on="0"/>
        <pt x="331" y="6" on="1"/>
        <pt x="387" y="6" on="0"/>
        <pt x="478" y="47" on="0"/>
        <pt x="540" y="121" on="0"/>
        <pt x="573" y="224" on="0"/>
        <pt x="573" y="285" on="1"/>
        <pt x="573" y="288" on="0"/>
        <pt x="573" y="302" on="0"/>
        <pt x="572" y="310" on="1"/>
        <pt x="532" y="383" on="0"/>
        <pt x="409" y="462" on="0"/>
        <pt x="334" y="462" on="1"/>
        <pt x="284" y="462" on="0"/>
        <pt x="197" y="430" on="0"/>
        <pt x="134" y="371" on="0"/>
        <pt x="98" y="286" on="0"/>
      </contour>
    </TTGlyph>
    <TTGlyph name="eth.sc" xMin="48" yMin="0" xMax="700" yMax="560">
      <contour>
        <pt x="162" y="0" on="1"/>
        <pt x="162" y="277" on="1"/>
        <pt x="48" y="277" on="1"/>
        <pt x="51" y="296" on="1"/>
        <pt x="162" y="296" on="1"/>
        <pt x="162" y="560" on="1"/>
        <pt x="393" y="560" on="1"/>
        <pt x="547" y="560" on="0"/>
        <pt x="700" y="407" on="0"/>
        <pt x="700" y="280" on="1"/>
        <pt x="700" y="154" on="0"/>
        <pt x="547" y="0" on="0"/>
        <pt x="393" y="0" on="1"/>
      </contour>
      <contour>
        <pt x="184" y="20" on="1"/>
        <pt x="390" y="20" on="1"/>
        <pt x="539" y="20" on="0"/>
        <pt x="678" y="163" on="0"/>
        <pt x="678" y="279" on="1"/>
        <pt x="678" y="395" on="0"/>
        <pt x="539" y="540" on="0"/>
        <pt x="391" y="540" on="1"/>
        <pt x="184" y="540" on="1"/>
        <pt x="184" y="296" on="1"/>
        <pt x="386" y="296" on="1"/>
        <pt x="386" y="277" on="1"/>
        <pt x="184" y="277" on="1"/>
      </contour>
    </TTGlyph>
    <TTGlyph name="exclam" xMin="144" yMin="-13" xMax="201" yMax="700">
      <contour>
        <pt x="162" y="190" on="1"/>
        <pt x="159" y="700" on="1"/>
        <pt x="185" y="700" on="1"/>
        <pt x="182" y="190" on="1"/>
      </contour>
      <contour>
        <pt x="172" y="-13" on="1"/>
        <pt x="159" y="-13" on="0"/>
        <pt x="144" y="3" on="0"/>
        <pt x="144" y="13" on="1"/>
        <pt x="144" y="23" on="0"/>
        <pt x="159" y="39" on="0"/>
        <pt x="172" y="39" on="1"/>
        <pt x="185" y="39" on="0"/>
        <pt x="201" y="23" on="0"/>
        <pt x="201" y="13" on="1"/>
        <pt x="201" y="3" on="0"/>
        <pt x="185" y="-13" on="0"/>
      </contour>
    </TTGlyph>
    <TTGlyph name="exclamdown" xMin="144" yMin="-180" xMax="201" yMax="533">
      <contour>
        <pt x="173" y="533" on="1"/>
        <pt x="186" y="533" on="0"/>
        <pt x="201" y="517" on="0"/>
        <pt x="201" y="507" on="1"/>
        <pt x="201" y="497" on="0"/>
        <pt x="186" y="481" on="0"/>
        <pt x="173" y="481" on="1"/>
        <pt x="160" y="481" on="0"/>
        <pt x="144" y="497" on="0"/>
        <pt x="144" y="507" on="1"/>
        <pt x="144" y="517" on="0"/>
        <pt x="160" y="533" on="0"/>
      </contour>
      <contour>
        <pt x="183" y="330" on="1"/>
        <pt x="186" y="-180" on="1"/>
        <pt x="160" y="-180" on="1"/>
        <pt x="163" y="330" on="1"/>
      </contour>
    </TTGlyph>
    <TTGlyph name="exclamdown.cap" xMin="144" yMin="0" xMax="201" yMax="713">
      <contour>
        <pt x="173" y="713" on="1"/>
        <pt x="186" y="713" on="0"/>
        <pt x="201" y="697" on="0"/>
        <pt x="201" y="687" on="1"/>
        <pt x="201" y="677" on="0"/>
        <pt x="186" y="661" on="0"/>
        <pt x="173" y="661" on="1"/>
        <pt x="160" y="661" on="0"/>
        <pt x="144" y="677" on="0"/>
        <pt x="144" y="687" on="1"/>
        <pt x="144" y="697" on="0"/>
        <pt x="160" y="713" on="0"/>
      </contour>
      <contour>
        <pt x="183" y="510" on="1"/>
        <pt x="186" y="0" on="1"/>
        <pt x="160" y="0" on="1"/>
        <pt x="163" y="510" on="1"/>
      </contour>
    </TTGlyph>
    <TTGlyph name="f" xMin="49" yMin="0" xMax="380" yMax="751">
      <contour>
        <pt x="161" y="0" on="1"/>
        <pt x="161" y="501" on="1"/>
        <pt x="49" y="501" on="1"/>
        <pt x="54" y="520" on="1"/>
        <pt x="161" y="520" on="1"/>
        <pt x="161" y="582" on="1"/>
        <pt x="161" y="661" on="0"/>
        <pt x="233" y="751" on="0"/>
        <pt x="301" y="751" on="1"/>
        <pt x="319" y="751" on="0"/>
        <pt x="361" y="742" on="0"/>
        <pt x="377" y="734" on="1"/>
        <pt x="377" y="713" on="1"/>
        <pt x="376" y="713" on="1"/>
        <pt x="360" y="722" on="0"/>
        <pt x="319" y="732" on="0"/>
        <pt x="301" y="732" on="1"/>
        <pt x="244" y="732" on="0"/>
        <pt x="182" y="655" on="0"/>
        <pt x="182" y="576" on="1"/>
        <pt x="182" y="520" on="1"/>
        <pt x="380" y="520" on="1"/>
        <pt x="380" y="501" on="1"/>
        <pt x="182" y="501" on="1"/>
        <pt x="182" y="0" on="1"/>
      </contour>
    </TTGlyph>
    <TTGlyph name="f.sc" xMin="142" yMin="0" xMax="590" yMax="560">
      <contour>
        <pt x="142" y="0" on="1"/>
        <pt x="142" y="560" on="1"/>
        <pt x="585" y="560" on="1"/>
        <pt x="590" y="540" on="1"/>
        <pt x="164" y="540" on="1"/>
        <pt x="164" y="300" on="1"/>
        <pt x="515" y="300" on="1"/>
        <pt x="515" y="280" on="1"/>
        <pt x="164" y="280" on="1"/>
        <pt x="164" y="0" on="1"/>
      </contour>
    </TTGlyph>
    <TTGlyph name="five" xMin="86" yMin="-16" xMax="625" yMax="700">
      <contour>
        <pt x="350" y="-16" on="1"/>
        <pt x="293" y="-16" on="0"/>
        <pt x="155" y="13" on="0"/>
        <pt x="86" y="45" on="1"/>
        <pt x="86" y="69" on="1"/>
        <pt x="87" y="69" on="1"/>
        <pt x="152" y="38" on="0"/>
        <pt x="291" y="4" on="0"/>
        <pt x="351" y="4" on="1"/>
        <pt x="417" y="4" on="0"/>
        <pt x="512" y="34" on="0"/>
        <pt x="574" y="86" on="0"/>
        <pt x="603" y="154" on="0"/>
        <pt x="603" y="191" on="1"/>
        <pt x="603" y="227" on="0"/>
        <pt x="583" y="283" on="0"/>
        <pt x="562" y="304" on="1"/>
        <pt x="529" y="337" on="0"/>
        <pt x="407" y="370" on="0"/>
        <pt x="314" y="370" on="1"/>
        <pt x="124" y="370" on="1"/>
        <pt x="134" y="700" on="1"/>
        <pt x="593" y="700" on="1"/>
        <pt x="596" y="680" on="1"/>
        <pt x="155" y="680" on="1"/>
        <pt x="146" y="390" on="1"/>
        <pt x="314" y="390" on="1"/>
        <pt x="413" y="390" on="0"/>
        <pt x="543" y="355" on="0"/>
        <pt x="579" y="319" on="1"/>
        <pt x="602" y="296" on="0"/>
        <pt x="625" y="233" on="0"/>
        <pt x="625" y="193" on="1"/>
        <pt x="625" y="102" on="0"/>
        <pt x="484" y="-16" on="0"/>
      </contour>
    </TTGlyph>
    <TTGlyph name="five.den" xMin="42" yMin="-9" xMax="349" yMax="393">
      <component glyphName="five.small" x="-20" y="0" flags="0x4"/>
    </TTGlyph>
    <TTGlyph name="five.inf" xMin="82" yMin="-187" xMax="389" yMax="215">
      <component glyphName="five.small" x="20" y="-178" flags="0x4"/>
    </TTGlyph>
    <TTGlyph name="five.num" xMin="82" yMin="298" xMax="389" yMax="700">
      <component glyphName="five.small" x="20" y="307" flags="0x4"/>
    </TTGlyph>
    <TTGlyph name="five.osf" xMin="98" yMin="-158" xMax="583" yMax="560">
      <contour>
        <pt x="330" y="-158" on="1"/>
        <pt x="265" y="-158" on="0"/>
        <pt x="155" y="-133" on="0"/>
        <pt x="98" y="-108" on="1"/>
        <pt x="98" y="-84" on="1"/>
        <pt x="99" y="-84" on="1"/>
        <pt x="155" y="-110" on="0"/>
        <pt x="268" y="-138" on="0"/>
        <pt x="331" y="-138" on="1"/>
        <pt x="435" y="-138" on="0"/>
        <pt x="562" y="-31" on="0"/>
        <pt x="562" y="51" on="1"/>
        <pt x="562" y="87" on="0"/>
        <pt x="542" y="144" on="0"/>
        <pt x="520" y="166" on="1"/>
        <pt x="489" y="197" on="0"/>
        <pt x="373" y="231" on="0"/>
        <pt x="286" y="231" on="1"/>
        <pt x="137" y="231" on="1"/>
        <pt x="142" y="560" on="1"/>
        <pt x="563" y="560" on="1"/>
        <pt x="566" y="540" on="1"/>
        <pt x="163" y="540" on="1"/>
        <pt x="159" y="251" on="1"/>
        <pt x="286" y="251" on="1"/>
        <pt x="440" y="251" on="0"/>
        <pt x="583" y="149" on="0"/>
        <pt x="583" y="53" on="1"/>
        <pt x="583" y="-39" on="0"/>
        <pt x="444" y="-158" on="0"/>
      </contour>
    </TTGlyph>
    <TTGlyph name="five.small" xMin="62" yMin="-9" xMax="369" yMax="393">
      <contour>
        <pt x="214" y="-9" on="1"/>
        <pt x="176" y="-9" on="0"/>
        <pt x="101" y="10" on="0"/>
        <pt x="62" y="29" on="1"/>
        <pt x="62" y="52" on="1"/>
        <pt x="63" y="52" on="1"/>
        <pt x="100" y="33" on="0"/>
        <pt x="175" y="10" on="0"/>
        <pt x="214" y="10" on="1"/>
        <pt x="283" y="10" on="0"/>
        <pt x="348" y="70" on="0"/>
        <pt x="348" y="108" on="1"/>
        <pt x="348" y="127" on="0"/>
        <pt x="337" y="159" on="0"/>
        <pt x="326" y="169" on="1"/>
        <pt x="308" y="186" on="0"/>
        <pt x="241" y="203" on="0"/>
        <pt x="186" y="203" on="1"/>
        <pt x="81" y="203" on="1"/>
        <pt x="86" y="393" on="1"/>
        <pt x="350" y="393" on="1"/>
        <pt x="352" y="374" on="1"/>
        <pt x="107" y="374" on="1"/>
        <pt x="103" y="222" on="1"/>
        <pt x="189" y="222" on="1"/>
        <pt x="247" y="222" on="0"/>
        <pt x="322" y="202" on="0"/>
        <pt x="343" y="181" on="1"/>
        <pt x="356" y="168" on="0"/>
        <pt x="369" y="134" on="0"/>
        <pt x="369" y="110" on="1"/>
        <pt x="369" y="59" on="0"/>
        <pt x="289" y="-9" on="0"/>
      </contour>
    </TTGlyph>
    <TTGlyph name="five.sup" xMin="82" yMin="349" xMax="389" yMax="751">
      <component glyphName="five.small" x="20" y="358" flags="0x4"/>
    </TTGlyph>
    <TTGlyph name="five.tab" xMin="88" yMin="-16" xMax="630" yMax="700">
      <contour>
        <pt x="358" y="-16" on="1"/>
        <pt x="290" y="-16" on="0"/>
        <pt x="157" y="17" on="0"/>
        <pt x="88" y="53" on="1"/>
        <pt x="88" y="78" on="1"/>
        <pt x="89" y="78" on="1"/>
        <pt x="155" y="43" on="0"/>
        <pt x="289" y="4" on="0"/>
        <pt x="359" y="4" on="1"/>
        <pt x="424" y="4" on="0"/>
        <pt x="518" y="34" on="0"/>
        <pt x="579" y="86" on="0"/>
        <pt x="608" y="154" on="0"/>
        <pt x="608" y="191" on="1"/>
        <pt x="608" y="227" on="0"/>
        <pt x="588" y="283" on="0"/>
        <pt x="567" y="304" on="1"/>
        <pt x="534" y="337" on="0"/>
        <pt x="412" y="370" on="0"/>
        <pt x="319" y="370" on="1"/>
        <pt x="124" y="370" on="1"/>
        <pt x="132" y="700" on="1"/>
        <pt x="597" y="700" on="1"/>
        <pt x="600" y="680" on="1"/>
        <pt x="153" y="680" on="1"/>
        <pt x="146" y="390" on="1"/>
        <pt x="319" y="390" on="1"/>
        <pt x="418" y="390" on="0"/>
        <pt x="548" y="355" on="0"/>
        <pt x="584" y="319" on="1"/>
        <pt x="607" y="296" on="0"/>
        <pt x="630" y="233" on="0"/>
        <pt x="630" y="193" on="1"/>
        <pt x="630" y="102" on="0"/>
        <pt x="490" y="-16" on="0"/>
      </contour>
    </TTGlyph>
    <TTGlyph name="fiveeighths" xMin="82" yMin="-12" xMax="1071" yMax="700">
      <component glyphName="five.num" x="0" y="0" flags="0x4"/>
      <component glyphName="fraction" x="434" y="0" flags="0x4"/>
      <component glyphName="eight.den" x="712" y="0" flags="0x4"/>
    </TTGlyph>
    <TTGlyph name="fiveeighths.tab" xMin="82" yMin="-12" xMax="1011" yMax="700">
      <component glyphName="five.num" x="0" y="0" flags="0x4"/>
      <component glyphName="fraction.tab" x="439" y="0" flags="0x4"/>
      <component glyphName="eight.den" x="652" y="0" flags="0x4"/>
    </TTGlyph>
    <TTGlyph name="four" xMin="82" yMin="2" xMax="723" yMax="700">
      <contour>
        <pt x="547" y="2" on="1"/>
        <pt x="547" y="195" on="1"/>
        <pt x="82" y="195" on="1"/>
        <pt x="82" y="212" on="1"/>
        <pt x="378" y="700" on="1"/>
        <pt x="569" y="700" on="1"/>
        <pt x="569" y="215" on="1"/>
        <pt x="723" y="215" on="1"/>
        <pt x="721" y="195" on="1"/>
        <pt x="569" y="195" on="1"/>
        <pt x="569" y="2" on="1"/>
      </contour>
      <contour>
        <pt x="547" y="680" on="1"/>
        <pt x="390" y="680" on="1"/>
        <pt x="108" y="215" on="1"/>
        <pt x="547" y="215" on="1"/>
      </contour>
    </TTGlyph>
    <TTGlyph name="four.den" xMin="20" yMin="1" xMax="393" yMax="393">
      <component glyphName="four.small" x="-20" y="0" flags="0x4"/>
    </TTGlyph>
    <TTGlyph name="four.inf" xMin="60" yMin="-177" xMax="433" yMax="215">
      <component glyphName="four.small" x="20" y="-178" flags="0x4"/>
    </TTGlyph>
    <TTGlyph name="four.num" xMin="60" yMin="308" xMax="433" yMax="700">
      <component glyphName="four.small" x="20" y="307" flags="0x4"/>
    </TTGlyph>
    <TTGlyph name="four.osf" xMin="72" yMin="-155" xMax="674" yMax="560">
      <contour>
        <pt x="503" y="-155" on="1"/>
        <pt x="503" y="58" on="1"/>
        <pt x="72" y="58" on="1"/>
        <pt x="72" y="75" on="1"/>
        <pt x="353" y="560" on="1"/>
        <pt x="525" y="560" on="1"/>
        <pt x="525" y="78" on="1"/>
        <pt x="674" y="78" on="1"/>
        <pt x="672" y="58" on="1"/>
        <pt x="525" y="58" on="1"/>
        <pt x="525" y="-155" on="1"/>
      </contour>
      <contour>
        <pt x="99" y="78" on="1"/>
        <pt x="503" y="78" on="1"/>
        <pt x="503" y="540" on="1"/>
        <pt x="365" y="540" on="1"/>
      </contour>
    </TTGlyph>
    <TTGlyph name="four.small" xMin="40" yMin="1" xMax="413" yMax="393">
      <contour>
        <pt x="307" y="1" on="1"/>
        <pt x="307" y="101" on="1"/>
        <pt x="40" y="101" on="1"/>
        <pt x="40" y="117" on="1"/>
        <pt x="203" y="393" on="1"/>
        <pt x="328" y="393" on="1"/>
        <pt x="328" y="120" on="1"/>
        <pt x="413" y="120" on="1"/>
        <pt x="412" y="101" on="1"/>
        <pt x="328" y="101" on="1"/>
        <pt x="328" y="1" on="1"/>
      </contour>
      <contour>
        <pt x="66" y="120" on="1"/>
        <pt x="307" y="120" on="1"/>
        <pt x="307" y="374" on="1"/>
        <pt x="216" y="374" on="1"/>
      </contour>
    </TTGlyph>
    <TTGlyph name="four.sup" xMin="60" yMin="359" xMax="433" yMax="751">
      <component glyphName="four.small" x="20" y="358" flags="0x4"/>
    </TTGlyph>
    <TTGlyph name="four.tab" xMin="61" yMin="2" xMax="697" yMax="700">
      <contour>
        <pt x="525" y="2" on="1"/>
        <pt x="525" y="191" on="1"/>
        <pt x="61" y="191" on="1"/>
        <pt x="61" y="208" on="1"/>
        <pt x="347" y="700" on="1"/>
        <pt x="547" y="700" on="1"/>
        <pt x="547" y="211" on="1"/>
        <pt x="697" y="211" on="1"/>
        <pt x="695" y="191" on="1"/>
        <pt x="547" y="191" on="1"/>
        <pt x="547" y="2" on="1"/>
      </contour>
      <contour>
        <pt x="87" y="211" on="1"/>
        <pt x="525" y="211" on="1"/>
        <pt x="525" y="680" on="1"/>
        <pt x="359" y="680" on="1"/>
      </contour>
    </TTGlyph>
    <TTGlyph name="fraction" xMin="-114" yMin="0" xMax="392" yMax="700">
      <contour>
        <pt x="-114" y="1" on="1"/>
        <pt x="367" y="700" on="1"/>
        <pt x="392" y="700" on="1"/>
        <pt x="392" y="699" on="1"/>
        <pt x="-90" y="0" on="1"/>
        <pt x="-114" y="0" on="1"/>
      </contour>
    </TTGlyph>
    <TTGlyph name="fraction.tab" xMin="-144" yMin="0" xMax="362" yMax="700">
      <contour>
        <pt x="-144" y="1" on="1"/>
        <pt x="337" y="700" on="1"/>
        <pt x="362" y="700" on="1"/>
        <pt x="362" y="699" on="1"/>
        <pt x="-120" y="0" on="1"/>
        <pt x="-144" y="0" on="1"/>
      </contour>
    </TTGlyph>
    <TTGlyph name="g" xMin="60" yMin="-194" xMax="582" yMax="625">
      <contour>
        <pt x="311" y="189" on="1"/>
        <pt x="292" y="189" on="0"/>
        <pt x="257" y="193" on="0"/>
        <pt x="241" y="197" on="1"/>
        <pt x="214" y="74" on="1"/>
        <pt x="293" y="69" on="0"/>
        <pt x="428" y="49" on="0"/>
        <pt x="526" y="15" on="0"/>
        <pt x="582" y="-34" on="0"/>
        <pt x="582" y="-68" on="1"/>
        <pt x="582" y="-98" on="0"/>
        <pt x="540" y="-145" on="0"/>
        <pt x="470" y="-177" on="0"/>
        <pt x="374" y="-194" on="0"/>
        <pt x="321" y="-194" on="1"/>
        <pt x="265" y="-194" on="0"/>
        <pt x="169" y="-178" on="0"/>
        <pt x="100" y="-146" on="0"/>
        <pt x="60" y="-97" on="0"/>
        <pt x="60" y="-65" on="1"/>
        <pt x="60" y="-21" on="0"/>
        <pt x="133" y="48" on="0"/>
        <pt x="193" y="72" on="1"/>
        <pt x="222" y="203" on="1"/>
        <pt x="166" y="222" on="0"/>
        <pt x="104" y="304" on="0"/>
        <pt x="104" y="356" on="1"/>
        <pt x="104" y="393" on="0"/>
        <pt x="133" y="457" on="0"/>
        <pt x="187" y="505" on="0"/>
        <pt x="268" y="533" on="0"/>
        <pt x="319" y="533" on="1"/>
        <pt x="350" y="533" on="0"/>
        <pt x="407" y="521" on="0"/>
        <pt x="429" y="511" on="1"/>
        <pt x="513" y="625" on="1"/>
        <pt x="538" y="625" on="1"/>
        <pt x="538" y="624" on="1"/>
        <pt x="447" y="502" on="1"/>
        <pt x="485" y="480" on="0"/>
        <pt x="526" y="409" on="0"/>
        <pt x="526" y="366" on="1"/>
        <pt x="526" y="329" on="0"/>
        <pt x="497" y="265" on="0"/>
        <pt x="443" y="217" on="0"/>
        <pt x="362" y="189" on="0"/>
      </contour>
      <contour>
        <pt x="311" y="208" on="1"/>
        <pt x="398" y="208" on="0"/>
        <pt x="505" y="293" on="0"/>
        <pt x="505" y="365" on="1"/>
        <pt x="505" y="432" on="0"/>
        <pt x="403" y="514" on="0"/>
        <pt x="319" y="514" on="1"/>
        <pt x="232" y="514" on="0"/>
        <pt x="125" y="429" on="0"/>
        <pt x="125" y="357" on="1"/>
        <pt x="125" y="290" on="0"/>
        <pt x="227" y="208" on="0"/>
      </contour>
      <contour>
        <pt x="323" y="-175" on="1"/>
        <pt x="369" y="-175" on="0"/>
        <pt x="455" y="-161" on="0"/>
        <pt x="521" y="-133" on="0"/>
        <pt x="560" y="-93" on="0"/>
        <pt x="560" y="-68" on="1"/>
        <pt x="560" y="-38" on="0"/>
        <pt x="504" y="5" on="0"/>
        <pt x="407" y="34" on="0"/>
        <pt x="276" y="51" on="0"/>
        <pt x="202" y="55" on="1"/>
        <pt x="137" y="30" on="0"/>
        <pt x="82" y="-31" on="0"/>
        <pt x="82" y="-64" on="1"/>
        <pt x="82" y="-91" on="0"/>
        <pt x="119" y="-133" on="0"/>
        <pt x="184" y="-161" on="0"/>
        <pt x="272" y="-175" on="0"/>
      </contour>
    </TTGlyph>
    <TTGlyph name="g.sc" xMin="87" yMin="-16" xMax="682" yMax="570">
      <contour>
        <pt x="392" y="-16" on="1"/>
        <pt x="254" y="-16" on="0"/>
        <pt x="89" y="140" on="0"/>
        <pt x="88" y="271" on="1"/>
        <pt x="88" y="336" on="0"/>
        <pt x="134" y="446" on="0"/>
        <pt x="216" y="525" on="0"/>
        <pt x="330" y="570" on="0"/>
        <pt x="398" y="570" on="1"/>
        <pt x="475" y="570" on="0"/>
        <pt x="599" y="519" on="0"/>
        <pt x="638" y="487" on="1"/>
        <pt x="638" y="460" on="1"/>
        <pt x="637" y="460" on="1"/>
        <pt x="600" y="492" on="0"/>
        <pt x="476" y="550" on="0"/>
        <pt x="398" y="550" on="1"/>
        <pt x="336" y="550" on="0"/>
        <pt x="230" y="509" on="0"/>
        <pt x="153" y="436" on="0"/>
        <pt x="110" y="334" on="0"/>
        <pt x="110" y="273" on="1"/>
        <pt x="110" y="151" on="0"/>
        <pt x="264" y="4" on="0"/>
        <pt x="393" y="4" on="1"/>
        <pt x="457" y="4" on="0"/>
        <pt x="558" y="42" on="0"/>
        <pt x="625" y="110" on="0"/>
        <pt x="661" y="205" on="0"/>
        <pt x="661" y="262" on="1"/>
        <pt x="375" y="262" on="1"/>
        <pt x="375" y="282" on="1"/>
        <pt x="682" y="282" on="1"/>
        <pt x="682" y="262" on="1"/>
        <pt x="682" y="203" on="0"/>
        <pt x="644" y="100" on="0"/>
        <pt x="570" y="26" on="0"/>
        <pt x="462" y="-16" on="0"/>
      </contour>
    </TTGlyph>
    <TTGlyph name="gbreve" xMin="60" yMin="-194" xMax="582" yMax="826">
      <component glyphName="g" x="0" y="0" flags="0x204"/>
      <component glyphName="breve" x="67" y="13" flags="0x4"/>
    </TTGlyph>
    <TTGlyph name="gbreve.sc" xMin="87" yMin="-16" xMax="682" yMax="863">
      <component glyphName="g.sc" x="0" y="0" flags="0x204"/>
      <component glyphName="breve" x="137" y="50" flags="0x4"/>
    </TTGlyph>
    <TTGlyph name="gdotaccent" xMin="60" yMin="-194" xMax="582" yMax="715">
      <component glyphName="g" x="0" y="0" flags="0x204"/>
      <component glyphName="dotaccent" x="67" y="13" flags="0x4"/>
    </TTGlyph>
    <TTGlyph name="gdotaccent.sc" xMin="87" yMin="-16" xMax="682" yMax="752">
      <component glyphName="g.sc" x="0" y="0" flags="0x204"/>
      <component glyphName="dotaccent" x="137" y="50" flags="0x4"/>
    </TTGlyph>
</ttFont>
